<?xml version="1.0" standalone="no"?>
<!DOCTYPE svg PUBLIC "-//W3C//DTD SVG 1.1//EN" "http://www.w3.org/Graphics/SVG/1.1/DTD/svg11.dtd" >
<svg>
<metadata>
Created by FontForge 20090914 at Wed Aug  5 08:36:26 2020
 By www-data
Copyright 2017 The Exo Project Authors (https://github.com/NDISCOVER/Exo-1.0)
</metadata>
<defs>
<font id="Exo-Regular" horiz-adv-x="0" >
  <font-face 
    font-family="Exo"
    font-weight="400"
    font-stretch="normal"
    units-per-em="1000"
    panose-1="0 0 0 0 0 0 0 0 0 0"
    ascent="800"
    descent="-200"
    x-height="534"
    cap-height="736"
    bbox="-508 -270 1333 1101"
    underline-thickness="50"
    underline-position="-75"
    unicode-range="U+000D-U+FB05"
  />
<missing-glyph horiz-adv-x="654" 
d="M57 537h540v-540h-540v540zM458 99l-131 131l-130 -131l-37 37l131 130l-131 131l37 36l130 -130l131 130l36 -36l-130 -131l130 -130zM553 40v453h-453v-453h453z" />
    <glyph glyph-name="f_f" unicode="ff" horiz-adv-x="767" 
d="M102 0v469h-82v51l82 14v71c0 36.667 4.5 67.167 13.5 91.5s24.333 42.5 46 54.5s50.834 18 87.501 18c25.333 0 47 -1.5 65 -4.5s34 -6.5 48 -10.5v-56c-14 1.33301 -28.833 2.5 -44.5 3.5s-30.834 1.5 -45.501 1.5c-24.667 0 -43.5 -4 -56.5 -12s-22 -20 -27 -36
s-7.5 -36 -7.5 -60v-61h347v-65h-347v-469h-79zM489 0l0.000976562 469.002h-82v51l82 14v61c0 38 4.5 69.833 13.5 95.5s24.667 45.167 47 58.5s53.166 20 92.499 20c23.333 0 43 -1.16699 59 -3.5l44 -6.5v-56h-90c-24 0 -42.167 -3.83301 -54.5 -11.5
s-20.833 -19.334 -25.5 -35.001s-7 -34.834 -7 -57.501v-65h165v-65h-165v-469h-79z" />
    <glyph glyph-name="fi" unicode="fi" horiz-adv-x="614" 
d="M102 0v469h-82v51l82 14v71c0 36.667 4.5 67.167 13.5 91.5s24.333 42.5 46 54.5s50.834 18 87.501 18c25.333 0 47 -1.5 65 -4.5s34 -6.5 48 -10.5v-56c-14 1.33301 -28.833 2.5 -44.5 3.5s-30.834 1.5 -45.501 1.5c-24.667 0 -43.5 -4 -56.5 -12s-22 -20 -27 -36
s-7.5 -36 -7.5 -60v-61h316v-65h-316v-469h-79zM459 0v534h79v-534h-79zM471 629c-10.667 0 -16 5.33301 -16 16v78c0 10.667 5.33301 16 16 16h57c4.66699 0 8.16699 -1.5 10.5 -4.5s3.5 -6.83301 3.5 -11.5v-78c0 -10.667 -4.66699 -16 -14 -16h-57z" />
    <glyph glyph-name="fl" unicode="fl" horiz-adv-x="677" 
d="M102 0l0.000976562 469h-82v51l82 14v64c0 38.667 6 70.667 18 96s31.833 44.166 59.5 56.499s65.167 18.5 112.5 18.5c33.333 0 65 -1.16699 95 -3.5s57.667 -5.16602 83 -8.49902l68 -9v-54c-22 2 -46.667 3.66699 -74 5s-54.833 2.33301 -82.5 3s-54.167 1 -79.5 1
c-32.667 0 -57.834 -4 -75.501 -12s-29.667 -20 -36 -36s-9.5 -36 -9.5 -60v-61h165v-65h-165v-469h-79zM600.001 0c-30.667 0 -56.499 5.49902 -77.499 16.499s-36.833 29 -47.5 54s-16 58.833 -16 101.5v565h79v-555c0 -32 3 -56.167 9 -72.5s14.667 -27.666 26 -33.999
s24.666 -10.5 39.999 -12.5l54 -6v-57h-67z" />
    <glyph glyph-name="f_f_i" unicode="ffi" horiz-adv-x="998" 
d="M102 0v469h-82v51l82 14v71c0 36.667 4.5 67.167 13.5 91.5s24.333 42.5 46 54.5s50.834 18 87.501 18c25.333 0 47 -1.5 65 -4.5s34 -6.5 48 -10.5v-56c-14 1.33301 -28.833 2.5 -44.5 3.5s-30.834 1.5 -45.501 1.5c-24.667 0 -43.5 -4 -56.5 -12s-22 -20 -27 -36
s-7.5 -36 -7.5 -60v-61h343v-65h-343v-469h-79zM843 0v534h79v-534h-79zM854 629c-10 0 -14.999 5.33301 -14.999 16v78c0 10.667 5 16 15 16h57c5.33301 0 9.16602 -1.5 11.499 -4.5s3.5 -6.83301 3.5 -11.5v-78c0 -10.667 -5 -16 -15 -16h-57zM485.001 0l0.000976562 469
h-82v51l82 14v71c0 36.667 4.66699 67.167 14 91.5s24.666 42.5 45.999 54.5s50.333 18 87 18c25.333 0 47 -1.5 65 -4.5s34 -6.5 48 -10.5v-56c-13.333 1.33301 -28 2.5 -44 3.5s-31.333 1.5 -46 1.5c-24.667 0 -43.5 -4 -56.5 -12s-21.833 -20 -26.5 -36s-7 -36 -7 -60
v-61h316v-65h-316v-469h-80z" />
    <glyph glyph-name="f_f_l" unicode="ffl" horiz-adv-x="1060" 
d="M102 0v469h-82v51l82 14v71c0 36.667 4.5 67.167 13.5 91.5s24.333 42.5 46 54.5s50.834 18 87.501 18c25.333 0 47 -1.5 65 -4.5s34 -6.5 48 -10.5v-56c-14 1.33301 -28.833 2.5 -44.5 3.5s-30.834 1.5 -45.501 1.5c-24.667 0 -43.5 -4 -56.5 -12s-22 -20 -27 -36
s-7.5 -36 -7.5 -60v-61h345v-65h-345v-469h-79zM485 0v469h-82v51l82 14v64c0 38.667 6 70.667 18 96s32 44.166 60 56.499s65.333 18.5 112 18.5c34 0 66 -1.16699 96 -3.5s57.667 -5.16602 83 -8.49902l68 -9v-54c-22 2 -46.667 3.66699 -74 5s-55 2.33301 -83 3
s-54.667 1 -80 1c-32 0 -56.833 -4 -74.5 -12s-29.667 -20 -36 -36s-9.5 -36 -9.5 -60v-61h165v-65h-165v-469h-80zM983 0c-30.667 0 -56.5 5.49902 -77.5 16.499s-36.667 29 -47 54s-15.5 58.833 -15.5 101.5v565h79v-555c0 -32 3 -56.167 9 -72.5
s14.5 -27.666 25.5 -33.999s24.5 -10.5 40.5 -12.5l53 -6v-57h-67z" />
    <glyph glyph-name=".notdef" horiz-adv-x="654" 
d="M57 537h540v-540h-540v540zM458 99l-131 131l-130 -131l-37 37l131 130l-131 131l37 36l130 -130l131 130l36 -36l-130 -131l130 -130zM553 40v453h-453v-453h453z" />
    <glyph glyph-name="CR" unicode="&#xd;" horiz-adv-x="270" 
 />
    <glyph glyph-name="space" unicode=" " horiz-adv-x="270" 
 />
    <glyph glyph-name="exclam" unicode="!" horiz-adv-x="266" 
d="M102 199l-10 536h79l-12 -536h-57zM108 -1c-10.667 0 -16 5.33301 -16 16v80c0 10.667 5.33301 16 16 16h45c10.667 0 16 -5.33301 16 -16v-80c0 -5.33301 -1.66699 -9.33301 -5 -12s-7 -4 -11 -4h-45z" />
    <glyph glyph-name="quotedbl" unicode="&#x22;" horiz-adv-x="285" 
d="M48 507l-8 172v67h77v-67l-8 -172h-61zM174 507l-8 172v67h77v-67l-8 -172h-61z" />
    <glyph glyph-name="numbersign" unicode="#" horiz-adv-x="685" 
d="M150 0l38 230h-166l8 51h168l27 167h-169l9 51h170l40 233h51l-40 -233h154l39 233h51l-39 -233h174l-7 -51h-176l-26 -167h174l-7 -51h-178l-39 -230h-51l39 230h-155l-38 -230h-51zM249 281h156l26 167h-155z" />
    <glyph glyph-name="dollar" unicode="$" horiz-adv-x="609" 
d="M279 727l-12 36l35 61l12 -34zM267 -89v95l47 -1v-94h-47zM286 -6c-14.667 0 -32.1689 0.501953 -52.502 1.50195s-41.166 2.33301 -62.499 4s-41.5 3.5 -60.5 5.5s-34.833 4.33301 -47.5 7v61c16.667 -1.33301 37 -2.66602 61 -3.99902s49.833 -2.33301 77.5 -3
s54.834 -1 81.501 -1c30 0 57 3 81 9s43.167 17 57.5 33s21.5 39 21.5 69v50c0 34 -8.66699 59.833 -26 77.5s-45.333 26.5 -84 26.5h-79c-60.667 0 -108.167 13.333 -142.5 40s-51.5 72.667 -51.5 138v42c0 69.333 18.667 118.666 56 147.999s90 44 158 44
c21.333 0 45.333 -1.16699 72 -3.5s52.5 -5 77.5 -8s45.833 -6.16699 62.5 -9.5v-61c-29.333 2.66699 -62.5 5 -99.5 7s-71.833 3 -104.5 3c-30 0 -56 -3.5 -78 -10.5s-38.833 -19.333 -50.5 -37s-17.5 -42.834 -17.5 -75.501v-34c0 -40.667 10.667 -68.667 32 -84
s51 -23 89 -23h85c40.667 0 74 -7.33301 100 -22s45.333 -34.834 58 -60.501s19 -55.167 19 -88.5v-57c0 -49.333 -10.5 -87.333 -31.5 -114s-49 -45 -84 -55s-74.167 -15 -117.5 -15z" />
    <glyph glyph-name="percent" unicode="%" horiz-adv-x="959" 
d="M226 0l443 732h54l-440 -732h-57zM177 349c-48.667 0 -82.666 10.667 -101.999 32s-29 53.333 -29 96v127c0 42.667 9.5 74.667 28.5 96s53.833 32 104.5 32h101c49.333 0 83.333 -10.667 102 -32s28 -53.333 28 -96v-127c0 -42.667 -9.33301 -74.667 -28 -96
s-53.334 -32 -104.001 -32h-101zM185.001 400l83.999 0.000976562c32 0 54.833 6.16699 68.5 18.5s20.5 35.166 20.5 68.499v107c0 32 -6.16699 54.5 -18.5 67.5s-35.166 19.5 -68.499 19.5h-84c-30 0 -52.333 -5.5 -67 -16.5s-22 -34.5 -22 -70.5v-107
c0 -32 6.5 -54.5 19.5 -67.5s35.5 -19.5 67.5 -19.5zM680 3.00098c-48.667 0 -82.5 10.667 -101.5 32s-28.5 53.333 -28.5 96v127c0 42.667 9.33301 74.667 28 96s53.334 32 104.001 32h101c49.333 0 83.333 -10.667 102 -32s28 -53.333 28 -96v-127
c0 -42.667 -9.33301 -74.667 -28 -96s-53.334 -32 -104.001 -32h-101zM688 54.001l85 0.000976562c31.333 0 54 6.16699 68 18.5s21 35.166 21 68.499v107c0 32 -6.16699 54.5 -18.5 67.5s-35.166 19.5 -68.499 19.5h-85c-30 0 -52.333 -5.5 -67 -16.5s-22 -34.5 -22 -70.5
v-107c0 -32 6.66699 -54.5 20 -67.5s35.666 -19.5 66.999 -19.5z" />
    <glyph glyph-name="ampersand" unicode="&#x26;" horiz-adv-x="673" 
d="M235 -6c-37.333 0 -70.666 8.16699 -99.999 24.5s-52.5 39 -69.5 68s-25.5 63.167 -25.5 102.5c0 34.667 7.66699 68 23 100s39.333 61.667 72 89l66 56l-18 27c-20.667 29.333 -34.334 55.5 -41.001 78.5s-10 43.5 -10 61.5c0 32.667 7.83301 58.834 23.5 78.501
s36.334 33.667 62.001 42s54.167 12.5 85.5 12.5c26 0 49.333 -0.666992 70 -2s39.167 -2.83301 55.5 -4.5s31.5 -3.83398 45.5 -6.50098v-57h-158c-30.667 0 -55.834 -5.83301 -75.501 -17.5s-29.5 -31.5 -29.5 -59.5c0 -16.667 3.83301 -33.667 11.5 -51
s20.5 -38.333 38.5 -63l199 -271l149 139l29 -34l-69 -93l-68 -65l111 -149h-86l-77 103l-34 -30c-31.333 -28.667 -61 -49 -89 -61s-58.333 -18 -91 -18zM247 68c20.667 0 40.999 4 60.999 12s41.667 23.667 65 47l32 30l-165 222l-52 -45
c-27.333 -22.667 -46.166 -45.334 -56.499 -68.001s-15.5 -45.667 -15.5 -69c0 -39.333 11.833 -70.666 35.5 -93.999s55.5 -35 95.5 -35z" />
    <glyph glyph-name="quotesingle" unicode="'" horiz-adv-x="159" 
d="M48 507l-8 172v67h77v-67l-8 -172h-61z" />
    <glyph glyph-name="parenleft" unicode="(" horiz-adv-x="347" 
d="M251 -210c-32.667 50.667 -61.668 103.167 -87.001 157.5s-45.333 112.5 -60 174.5s-22 130 -22 204c0 72 7.5 139 22.5 201s35.167 120.5 60.5 175.5s54 107.5 86 157.5h73c-30 -52.667 -57.333 -107.167 -82 -163.5s-44.334 -115 -59.001 -176s-22 -125.833 -22 -194.5
s6.83301 -133 20.5 -193s32.834 -117.833 57.501 -173.5s53.334 -112.167 86.001 -169.5h-74z" />
    <glyph glyph-name="parenright" unicode=")" horiz-adv-x="346" 
d="M22 -210c33.333 56 62.168 112 86.501 168s43.166 114 56.499 174s20 124.333 20 193s-6.33301 132.334 -19 191.001s-31.167 116 -55.5 172s-53.833 113.333 -88.5 172h74c34 -52 63.667 -105.167 89 -159.5s44.833 -112 58.5 -173s20.5 -128.5 20.5 -202.5
c0 -72 -6.83301 -138.667 -20.5 -200s-33.167 -119.333 -58.5 -174s-55 -108.334 -89 -161.001h-74z" />
    <glyph glyph-name="asterisk" unicode="*" horiz-adv-x="452" 
d="M297 522l-31 36l114 83l19 -27zM155 402l-30 10l30 135l47 -10zM198 578l-143 6v32l141 9zM341 414l-122 69l24 42l117 -85zM241 590l-51 133l31 10l65 -124z" />
    <glyph glyph-name="plus" unicode="+" horiz-adv-x="609" 
d="M271 132v448h66v-448h-66zM80 323v66h448v-66h-448z" />
    <glyph glyph-name="comma" unicode="," horiz-adv-x="200" 
d="M90 -78c-6.66699 0 -12.499 0.49707 -17.499 1.49707l-7.5 1.5v25c7.33301 0 12.666 1.16699 15.999 3.5s5 6.83301 5 13.5v38h-8c-4 0 -7.66699 1.33301 -11 4s-5 6.66699 -5 12v72c0 12 5.33301 18 16 18h43c6.66699 0 11 -1.66699 13 -5s3 -7.66602 3 -12.999v-122
c0 -13.333 -2.5 -23.666 -7.5 -30.999s-11 -12.166 -18 -14.499s-14.167 -3.5 -21.5 -3.5z" />
    <glyph glyph-name="hyphen" unicode="-" horiz-adv-x="343" 
d="M25 257v66h293v-66h-293z" />
    <glyph glyph-name="period" unicode="." horiz-adv-x="200" 
d="M78 -1c-10.667 0 -16 5.33301 -16 16v80c0 10.667 5.33301 16 16 16h44c10.667 0 16 -5.33301 16 -16v-80c0 -5.33301 -1.5 -9.33301 -4.5 -12s-6.83301 -4 -11.5 -4h-44z" />
    <glyph glyph-name="slash" unicode="/" horiz-adv-x="402" 
d="M22 -72l281 842h77l-281 -842h-77z" />
    <glyph glyph-name="zero" unicode="0" horiz-adv-x="655" 
d="M259 -2c-35.333 0 -66.834 6.16699 -94.501 18.5s-49.334 31.333 -65.001 57s-23.5 58.834 -23.5 99.501v390c0 39.333 7.83301 72.166 23.5 98.499s37.334 46.333 65.001 60s59.167 20.5 94.5 20.5h143c41.333 0 75 -7.5 101 -22.5s45.167 -35.833 57.5 -62.5
s18.5 -58 18.5 -94v-390c0 -60.667 -16.167 -105 -48.5 -133s-75.166 -42 -128.499 -42h-143zM273.999 69l110 0.000976562c40.667 0 70 10.167 88 30.5s27 48.166 27 83.499v374c0 38 -9.5 66.333 -28.5 85s-46.833 28 -83.5 28h-115c-36 0 -64.333 -9.83301 -85 -29.5
s-31 -47.5 -31 -83.5v-374c0 -38 10.5 -66.5 31.5 -85.5s49.833 -28.5 86.5 -28.5z" />
    <glyph glyph-name="one" unicode="1" horiz-adv-x="362" 
d="M195 0v665l-151 -41v51l158 68h73v-743h-80z" />
    <glyph glyph-name="two" unicode="2" horiz-adv-x="593" 
d="M54 0l0.00292969 64.998l272 261c28 26 50.167 50.333 66.5 73s28.166 45.5 35.499 68.5s11 48.167 11 75.5c0 24 -4.5 45.333 -13.5 64s-24.833 33.334 -47.5 44.001s-55.334 16 -98.001 16h-200v61c30.667 3.33301 64.5 6.5 101.5 9.5s75.5 4.5 115.5 4.5
c56 0 100.167 -8 132.5 -24s55.166 -38.167 68.499 -66.5s20 -61.5 20 -99.5c0 -34 -4.5 -65.333 -13.5 -94s-23.167 -56.667 -42.5 -84s-44.333 -55.666 -75 -84.999l-225 -216h383v-73h-491z" />
    <glyph glyph-name="three" unicode="3" horiz-adv-x="585" 
d="M310 -6c-52.667 0 -101.832 1.16895 -147.499 3.50195s-85.5 5.5 -119.5 9.5v61h241c28.667 0 54.334 3 77.001 9s40.5 17.167 53.5 33.5s19.5 39.5 19.5 69.5v49c0 26 -6.5 46.667 -19.5 62s-29.167 26.333 -48.5 33s-39.333 10.334 -60 11.001l-189 7v58l186 8
c36 1.33301 65.167 9.16602 87.5 23.499s33.5 38.5 33.5 72.5v49c0 36.667 -12.167 64.834 -36.5 84.501s-60.833 29.5 -109.5 29.5h-210v61c30.667 4 65.834 7.33301 105.501 10s84.167 4 133.5 4c44 -0.666992 80.5 -8.16699 109.5 -22.5s50.5 -34.333 64.5 -60
s21 -55.834 21 -90.501v-63c0 -22.667 -3.5 -42.167 -10.5 -58.5s-16 -29.833 -27 -40.5s-22.667 -18.834 -35 -24.501s-23.5 -9.5 -33.5 -11.5c11.333 -2.66699 23.666 -7.5 36.999 -14.5s26.166 -16.5 38.499 -28.5s22.5 -27 30.5 -45s12 -39.333 12 -64v-51
c0 -56.667 -17.833 -99.834 -53.5 -129.501s-85.834 -44.5 -150.501 -44.5z" />
    <glyph glyph-name="four" unicode="4" horiz-adv-x="595" 
d="M391 1v187h-347l-18 43l277 505h82l-267 -480h273v196l17 68h62v-264h101v-55l-101 -13v-187h-79z" />
    <glyph glyph-name="five" unicode="5" horiz-adv-x="630" 
d="M338 -5c-45.333 0 -90.332 0.998047 -134.999 2.99805s-84.667 4.66699 -120 8v61h256c30 0 56 4.83301 78 14.5s39.167 23.667 51.5 42s18.5 39.833 18.5 64.5v80c0 34.667 -10 61.834 -30 81.501s-50.667 29.5 -92 29.5h-79c-30 0 -54 -6.66699 -72 -20
s-29.667 -34.666 -35 -63.999h-75l21 441h417v-72h-348l-13 -270c8 13.333 22.167 25.5 42.5 36.5s46.166 16.5 77.499 16.5h88c38.667 0 71 -7.16699 97 -21.5s46 -34 60 -59s21 -53.167 21 -84.5v-109c0 -40 -9.66699 -73.167 -29 -99.5s-46 -46 -80 -59
s-74 -19.5 -120 -19.5z" />
    <glyph glyph-name="six" unicode="6" horiz-adv-x="623" 
d="M274 -3c-30.667 0 -58.6699 5.49805 -84.0029 16.498s-46.666 30.167 -63.999 57.5s-30.833 65 -40.5 113s-14.5 109.333 -14.5 184c0 66 5.83301 122.667 17.5 170s28.834 86 51.501 116s50 52.167 82 66.5s68.667 21.5 110 21.5c28 0 59 -1.16699 93 -3.5
s64 -4.83301 90 -7.5v-61h-182c-56.667 0 -101.167 -21.833 -133.5 -65.5s-48.5 -110.167 -48.5 -199.5c20 2.66699 42.167 4.83398 66.5 6.50098s48.5 2.66699 72.5 3s45.333 0.5 64 0.5c44 0 81.333 -5 112 -15s53.834 -26.333 69.501 -49s23.5 -52.667 23.5 -90v-103
c0 -39.333 -7.66699 -70.666 -23 -93.999s-36 -40.333 -62 -51s-54.667 -16 -86 -16h-114zM286.997 68.998l85.999 -0.00195312c20 0 38 2.83301 54 8.5s28.833 15.667 38.5 30s14.5 35.166 14.5 62.499v78c0 28 -5.66699 49 -17 63s-27.666 23.5 -48.999 28.5
s-47.333 7.5 -78 7.5h-185c0 -55.333 3 -101.166 9 -137.499s14.833 -64.666 26.5 -84.999s26 -34.666 43 -42.999s36.167 -12.5 57.5 -12.5z" />
    <glyph glyph-name="seven" unicode="7" horiz-adv-x="543" 
d="M146 0l257 656h-370v80h445l26 -41l-269 -695h-89z" />
    <glyph glyph-name="eight" unicode="8" horiz-adv-x="643" 
d="M261 -2c-26.667 0 -50.835 2.66895 -72.502 8.00195s-40.5 13.666 -56.5 24.999s-28.333 26.333 -37 45s-13 41.334 -13 68.001v106c0 24 4.83301 44.5 14.5 61.5s21.834 30.667 36.501 41s29 17.166 43 20.499c-20.667 9.33301 -36.834 20.666 -48.501 33.999
s-19.834 28.333 -24.501 45s-7 33.667 -7 51v84c0 37.333 7.16699 67.166 21.5 89.499s33.833 38.666 58.5 48.999s52 15.5 82 15.5h138c30.667 0 57.334 -5.16699 80.001 -15.5s40.334 -26.666 53.001 -48.999s19 -52.166 19 -89.499v-84c0 -11.333 -1.5 -23.333 -4.5 -36
s-7.66699 -24.667 -14 -36s-14.166 -21.333 -23.499 -30s-20.333 -14.667 -33 -18c21.333 -4 38.333 -12.667 51 -26s22.167 -28.833 28.5 -46.5s9.5 -35.834 9.5 -54.501v-112c0 -35.333 -7 -63.666 -21 -84.999s-33.5 -36.833 -58.5 -46.5s-53.833 -14.5 -86.5 -14.5h-135
zM271.999 66.002l108.002 0.000976562c35.333 0 61.333 7.5 78 22.5s25 37.167 25 66.5v93c0 33.333 -8.16699 57.166 -24.5 71.499s-43.833 21.5 -82.5 21.5h-104c-10.667 0 -22.334 -1.66699 -35.001 -5s-24.834 -8.5 -36.501 -15.5s-21.167 -16.5 -28.5 -28.5
s-11 -26.667 -11 -44v-93c0 -32.667 10.5 -55.667 31.5 -69s47.5 -20 79.5 -20zM272.001 409.003h103c24 0 42.833 4.66699 56.5 14s23.5 21 29.5 35s9 28.333 9 43v69c0 38.667 -7.5 65.5 -22.5 80.5s-37.167 22.5 -66.5 22.5h-109c-34.667 0 -59.667 -8 -75 -24
s-23 -42.333 -23 -79v-69c0 -27.333 7.83301 -49.5 23.5 -66.5s40.5 -25.5 74.5 -25.5z" />
    <glyph glyph-name="nine" unicode="9" horiz-adv-x="623" 
d="M293 -5c-28 0 -59 1.16895 -93 3.50195s-64 4.83301 -90 7.5v61h182c57.333 0 102 21.833 134 65.5s48 110.167 48 199.5c-20 -2.66699 -42.167 -4.83398 -66.5 -6.50098s-48.5 -2.66699 -72.5 -3s-45.333 -0.5 -64 -0.5c-44.667 0 -82.167 5 -112.5 15
s-53.333 26.333 -69 49s-23.5 52.667 -23.5 90v103c0 39.333 7.66699 70.666 23 93.999s35.833 40.333 61.5 51s54.167 16 85.5 16h114c31.333 0 59.5 -5.5 84.5 -16.5s46.333 -30.167 64 -57.5s31.167 -65 40.5 -113s14 -109.333 14 -184
c0 -66 -5.83301 -122.667 -17.5 -170s-28.667 -86 -51 -116s-49.5 -52.167 -81.5 -66.5s-68.667 -21.5 -110 -21.5zM289 390.002l184.999 0.00195312c0 55.333 -3 101.166 -9 137.499s-14.833 64.666 -26.5 84.999s-26 34.666 -43 42.999s-36.5 12.5 -58.5 12.5h-86
c-19.333 0 -37.166 -2.83301 -53.499 -8.5s-29.333 -15.667 -39 -30s-14.5 -35.166 -14.5 -62.499v-78c0 -28 5.83301 -49 17.5 -63s28.167 -23.5 49.5 -28.5s47.333 -7.5 78 -7.5z" />
    <glyph glyph-name="colon" unicode=":" horiz-adv-x="200" 
d="M78 -1c-10.667 0 -16 5.33301 -16 16v80c0 10.667 5.33301 16 16 16h44c10.667 0 16 -5.33301 16 -16v-80c0 -5.33301 -1.5 -9.33301 -4.5 -12s-6.83301 -4 -11.5 -4h-44zM78 422c-10.667 0 -16 5.33301 -16 16v80c0 10.667 5.33301 16 16 16h44
c10.667 0 16 -5.33301 16 -16v-80c0 -5.33301 -1.5 -9.33301 -4.5 -12s-6.83301 -4 -11.5 -4h-44z" />
    <glyph glyph-name="semicolon" unicode=";" horiz-adv-x="200" 
d="M78 422c-10.667 0 -16 5.33301 -16 16v80c0 10.667 5.33301 16 16 16h44c10.667 0 16 -5.33301 16 -16v-80c0 -5.33301 -1.5 -9.33301 -4.5 -12s-6.83301 -4 -11.5 -4h-44zM90 -78c-6.66699 0 -12.499 0.49707 -17.499 1.49707l-7.5 1.5v25
c7.33301 0 12.666 1.16699 15.999 3.5s5 6.83301 5 13.5v38h-8c-4 0 -7.66699 1.33301 -11 4s-5 6.66699 -5 12v72c0 12 5.33301 18 16 18h43c6.66699 0 11 -1.66699 13 -5s3 -7.66602 3 -12.999v-122c0 -13.333 -2.5 -23.666 -7.5 -30.999s-11 -12.166 -18 -14.499
s-14.167 -3.5 -21.5 -3.5z" />
    <glyph glyph-name="less" unicode="&#x3c;" horiz-adv-x="609" 
d="M511 177l-415 136v72l415 134v-69l-340 -100l340 -104v-69z" />
    <glyph glyph-name="equal" unicode="=" horiz-adv-x="609" 
d="M80 203v66h448v-66h-448zM80 443v66h448v-66h-448z" />
    <glyph glyph-name="greater" unicode="&#x3e;" horiz-adv-x="609" 
d="M98 177v69l340 103l-340 101v69l415 -134v-72z" />
    <glyph glyph-name="question" unicode="?" horiz-adv-x="531" 
d="M170 199l0.000976562 156.997h50c54 0 93 8.16699 117 24.5s36 46.5 36 90.5v59c0 50.667 -10.833 86.334 -32.5 107.001s-56.167 31 -103.5 31c-34 0 -66 -3.16699 -96 -9.5s-62 -16.166 -96 -29.499v57c30.667 18 63.667 31.167 99 39.5s73 12.833 113 13.5
c48 0.666992 86.167 -7.16602 114.5 -23.499s49 -39.333 62 -69s19.5 -64.834 19.5 -105.501v-71c0 -59.333 -17.333 -103.666 -52 -132.999s-91.334 -44 -170.001 -44v-94h-61zM178.001 -1.00293c-10.667 0 -16 5.33301 -16 16v80c0 10.667 5.33301 16 16 16h44
c10.667 0 16 -5.33301 16 -16v-80c0 -5.33301 -1.5 -9.33301 -4.5 -12s-6.83301 -4 -11.5 -4h-44z" />
    <glyph glyph-name="at" unicode="@" horiz-adv-x="873" 
d="M262 -164c-26.667 0 -51.668 3.83203 -75.001 11.499s-43.666 19.5 -60.999 35.5s-30.833 36.5 -40.5 61.5s-14.5 54.5 -14.5 88.5v322c0 13.333 1.33301 28 4 44s7.5 32.167 14.5 48.5s17.667 31.333 32 45s32.833 24.834 55.5 33.501s51 13 85 13h191
c20 0 39.833 -2 59.5 -6s37.5 -11.333 53.5 -22s28.833 -25.834 38.5 -45.501s14.5 -45.167 14.5 -76.5v-362h-49l-12 60c-0.666992 0 -7 -3.5 -19 -10.5s-27.333 -15 -46 -24s-39.5 -17 -62.5 -24s-45.833 -10.5 -68.5 -10.5c-27.333 0 -50.5 5.83301 -69.5 17.5
s-33.5 27.167 -43.5 46.5s-15 40.333 -15 63v46c0 38.667 12 68.834 36 90.501s58 32.5 102 32.5h184v70c0 33.333 -9.16699 57 -27.5 71s-43.5 21 -75.5 21h-191c-24.667 0 -46.5 -3.66699 -65.5 -11s-34.167 -20 -45.5 -38s-17 -43 -17 -75v-312
c0 -36.667 6.66699 -65.167 20 -85.5s29.833 -34.5 49.5 -42.5s39.167 -12 58.5 -12h319c48 0 82.833 12 104.5 36s32.5 58.667 32.5 104v479c0 44.667 -11.5 80.834 -34.5 108.501s-57.167 41.5 -102.5 41.5h-394v47c16 3.33301 39.5 6.16602 70.5 8.49902
s66.167 4.16602 105.5 5.49902s80 2 122 2h96c27.333 0 53 -4.16699 77 -12.5s45.333 -21 64 -38s33.167 -38.833 43.5 -65.5s15.5 -59 15.5 -97v-479c0 -42.667 -6.66699 -79.167 -20 -109.5s-34.333 -53.666 -63 -69.999s-66.667 -24.5 -114 -24.5h-322zM385.999 80.999
c16.667 0 35.832 2.83301 57.499 8.5s42.667 12.5 63 20.5s36.833 16 49.5 24v137l-170 -9c-12 -0.666992 -24.667 -2.5 -38 -5.5s-24.666 -9.5 -33.999 -19.5s-14 -25 -14 -45v-35c0 -23.333 7.5 -41.833 22.5 -55.5s36.167 -20.5 63.5 -20.5z" />
    <glyph glyph-name="A" unicode="A" horiz-adv-x="674" 
d="M34 0l252 736h102l252 -736h-82l-74 210h-296l-72 -210h-82zM208 282h256l-127 384z" />
    <glyph glyph-name="B" unicode="B" horiz-adv-x="603" 
d="M77 0l0.00292969 735.998h266c63.333 0 110.833 -15.667 142.5 -47s47.5 -78.666 47.5 -141.999c0 -30.667 -4.66699 -57.334 -14 -80.001s-21.833 -41.167 -37.5 -55.5s-33.167 -24.166 -52.5 -29.499c13.333 -3.33301 27.5 -8.83301 42.5 -16.5
s29.167 -18.5 42.5 -32.5s24.166 -31.667 32.499 -53s12.5 -46.666 12.5 -75.999c0 -52 -8.33301 -92.833 -25 -122.5s-40.334 -50.667 -71.001 -63s-67.334 -18.5 -110.001 -18.5h-276zM157.003 70.998l193.999 0.00195312c26.667 0 49.834 4.16699 69.501 12.5
s35 23 46 44s16.5 50.833 16.5 89.5c0 27.333 -5.83301 50.666 -17.5 69.999s-27.5 34.166 -47.5 44.499s-42.333 15.5 -67 15.5h-194v-276zM157.002 410l191.002 -0.000976562c31.333 0 57.166 11.333 77.499 34s30.833 53.334 31.5 92.001
c1.33301 47.333 -8.83398 80.5 -30.501 99.5s-49.5 28.5 -83.5 28.5h-186v-254z" />
    <glyph glyph-name="C" unicode="C" horiz-adv-x="581" 
d="M318 -6c-44 0 -82.3359 5.00293 -115.003 15.0029s-59.667 28.167 -81 54.5s-37.166 64.166 -47.499 113.499s-15.5 113.666 -15.5 192.999c0 74.667 5.33301 136.167 16 184.5s26.834 86.166 48.501 113.499s49.167 46.5 82.5 57.5s72.666 16.5 117.999 16.5
c20.667 0 43.667 -1.33301 69 -4s50.333 -5.83398 75 -9.50098s47 -8.16699 67 -13.5v-59c-11.333 2 -27.333 4 -48 6s-44.167 3.83301 -70.5 5.5s-53.166 2.5 -80.499 2.5c-35.333 0 -65.666 -4 -90.999 -12s-45.833 -22.833 -61.5 -44.5s-27.167 -52.167 -34.5 -91.5
s-11 -90.333 -11 -153c0 -63.333 3.5 -115.166 10.5 -155.499s18.167 -71.166 33.5 -92.499s35.333 -36 60 -44s55.334 -12 92.001 -12c50 0 91 1.33301 123 4s58 5.66699 78 9v-60c-20 -4.66699 -42.167 -8.83398 -66.5 -12.501s-49.333 -6.5 -75 -8.5
s-50.834 -3 -75.501 -3z" />
    <glyph glyph-name="D" unicode="D" horiz-adv-x="669" 
d="M77 0l-0.000976562 736h291c44.667 0 82.334 -8.16699 113.001 -24.5s55.5 -40.166 74.5 -71.499s32.833 -69.833 41.5 -115.5s13 -97.834 13 -156.501c0 -77.333 -9 -143.333 -27 -198s-45 -96.667 -81 -126s-80.667 -44 -134 -44h-291zM156.999 71l205 0.000976562
c39.333 0 71.333 12.167 96 36.5s43 58.666 55 102.999s18 96.833 18 157.5c0 54.667 -3.33301 100.834 -10 138.501s-16.834 68.167 -30.501 91.5s-31.167 40.166 -52.5 50.499s-46.666 15.5 -75.999 15.5h-205v-593z" />
    <glyph glyph-name="E" unicode="E" horiz-adv-x="587" 
d="M233 -4c-16 0 -32.9961 1.50098 -50.9961 4.50098s-35 9.16699 -51 18.5s-29 23.5 -39 42.5s-15 44.833 -15 77.5v449c0 28.667 4.16699 52.5 12.5 71.5s19.5 34 33.5 45s29.667 19 47 24s34.666 7.5 51.999 7.5c41.333 -0.666992 79.666 -1.5 114.999 -2.5
s68.833 -2 100.5 -3s62.5 -2.16699 92.5 -3.5v-64h-288c-26 0 -46.667 -7 -62 -21s-23 -36.333 -23 -67v-174l329 -5v-61l-329 -5v-173c0 -24.667 4.16699 -43.334 12.5 -56.001s19.5 -21 33.5 -25s28.333 -6 43 -6h284v-64c-30.667 -2 -62.834 -3.66699 -96.501 -5
s-67.334 -2.33301 -101.001 -3z" />
    <glyph glyph-name="F" unicode="F" horiz-adv-x="567" 
d="M77 0l0.00390625 588.002c0 28.667 4.16699 52.5 12.5 71.5s19.5 34 33.5 45s29.667 19 47 24s34.666 7.5 51.999 7.5c29.333 -0.666992 61.166 -1.33398 95.499 -2.00098s69.666 -1.5 105.999 -2.5s71.833 -2.83301 106.5 -5.5v-63h-289
c-26.667 0 -47.334 -7.33301 -62.001 -22s-22 -36.334 -22 -65.001v-191l329 -5v-61l-329 -5v-314h-80z" />
    <glyph glyph-name="G" unicode="G" horiz-adv-x="653" 
d="M295 -5c-46.667 -0.666992 -85.333 6.50488 -116 21.5049s-54.667 37.833 -72 68.5s-29.666 69.667 -36.999 117s-11 103.333 -11 168c0 62 3.83301 116.333 11.5 163s20.834 85.5 39.501 116.5s44.167 54.167 76.5 69.5s72.833 23 121.5 23c26 0 53 -1 81 -3
s55.333 -5 82 -9s51.334 -8.66699 74.001 -14v-60c-13.333 2 -32 4.16699 -56 6.5s-50.833 4.16602 -80.5 5.49902s-59.167 2 -88.5 2c-48 0 -85.167 -9.83301 -111.5 -29.5s-44.666 -51.667 -54.999 -96s-15.5 -102.833 -15.5 -175.5
c0 -58.667 2.83301 -107.334 8.5 -146.001s15.167 -69.334 28.5 -92.001s31.5 -38.834 54.5 -48.501s52.167 -14.5 87.5 -14.5c31.333 0 63.666 4 96.999 12s61.666 16.667 84.999 26v217h-178v59c12.667 2 28 3.66699 46 5s37.167 2.5 57.5 3.5s40.833 1.5 61.5 1.5
c17.333 0 33.666 -0.166992 48.999 -0.5s28.666 -1.5 39.999 -3.5v-388h-58l-12 52c-24 -12 -54.5 -24.333 -91.5 -37s-76.5 -19.334 -118.5 -20.001z" />
    <glyph glyph-name="H" unicode="H" horiz-adv-x="682" 
d="M77 0v736h80v-341h368v341h79v-736h-79v323h-368v-323h-80z" />
    <glyph glyph-name="I" unicode="I" horiz-adv-x="234" 
d="M77 0v736h80v-736h-80z" />
    <glyph glyph-name="J" unicode="J" horiz-adv-x="385" 
d="M140 -6c-18.667 0 -38.666 2.33301 -59.999 7s-39 10 -53 16v61c14 -2.66699 30.167 -5.5 48.5 -8.5s34.833 -4.5 49.5 -4.5c21.333 0 39.666 3 54.999 9s27.166 16.667 35.499 32s12.5 37 12.5 65v565h79v-575c0 -40 -6.16699 -72.333 -18.5 -97
s-30.666 -42.5 -54.999 -53.5s-55.5 -16.5 -93.5 -16.5z" />
    <glyph glyph-name="K" unicode="K" horiz-adv-x="605" 
d="M77 0v736h80v-333h129l202 333h84l-223 -368l226 -368h-85l-204 331h-129v-331h-80z" />
    <glyph glyph-name="L" unicode="L" horiz-adv-x="532" 
d="M225 0c-28.667 0 -54.167 4.49902 -76.5 13.499s-39.833 24.333 -52.5 46s-19 51.167 -19 88.5v588h80v-577c0 -24 4 -42.167 12 -54.5s18.667 -20.666 32 -24.999s27 -6.5 41 -6.5h264v-73h-281z" />
    <glyph glyph-name="M" unicode="M" horiz-adv-x="835" 
d="M57 0l84 736h81l196 -636l192 636h82l86 -736h-77l-74 645l13 -2l-186 -643h-73l-191 642l15 2l-71 -644h-77z" />
    <glyph glyph-name="N" unicode="N" horiz-adv-x="683" 
d="M91 0v736h65l384 -599v599h79v-736h-65l-384 599v-599h-79z" />
    <glyph glyph-name="O" unicode="O" horiz-adv-x="686" 
d="M343 -6c-47.333 0 -88.8311 4.5 -124.498 13.5s-65.334 26.167 -89.001 51.5s-41.334 62.666 -53.001 111.999s-17.5 114 -17.5 194s6 144.833 18 194.5s30 87.667 54 114s53.667 44.333 89 54s76.333 14.5 123 14.5c48 0 89.833 -4.83301 125.5 -14.5
s65.334 -27.667 89.001 -54s41.167 -64.333 52.5 -114s17 -114.5 17 -194.5s-5.83301 -144.667 -17.5 -194s-29.334 -86.666 -53.001 -111.999s-53.167 -42.5 -88.5 -51.5s-77 -13.5 -125 -13.5zM343.002 65c37.333 0 69.002 3.66699 95.002 11s47.167 21.5 63.5 42.5
s28.166 51.167 35.499 90.5s11 91.333 11 156c0 67.333 -3.83301 121.333 -11.5 162s-19.667 71.334 -36 92.001s-37.333 34.334 -63 41.001s-57.167 10 -94.5 10c-34.667 0 -64.834 -3.33301 -90.501 -10s-47 -20.334 -64 -41.001s-29.667 -51.334 -38 -92.001
s-12.5 -94.667 -12.5 -162c0 -64.667 3.5 -116.667 10.5 -156s18.5 -69.5 34.5 -90.5s37.167 -35.167 63.5 -42.5s58.5 -11 96.5 -11z" />
    <glyph glyph-name="P" unicode="P" horiz-adv-x="604" 
d="M77 0l0.00390625 736h293c21.333 0 43.166 -2.83301 65.499 -8.5s43.166 -16.667 62.499 -33s34.833 -40 46.5 -71s17.5 -71.833 17.5 -122.5c0 -52 -6.16699 -93.833 -18.5 -125.5s-28.333 -56 -48 -73s-40.834 -28.5 -63.501 -34.5s-44.667 -9 -66 -9
c-10 0 -24.667 0.333008 -44 1s-39.833 1.5 -61.5 2.5s-41.834 2.16699 -60.501 3.5l-43 3v-269h-80zM157.004 330h199.001c23.333 0 44.666 5 63.999 15s34.5 27.333 45.5 52s16.5 59 16.5 103c0 43.333 -5.5 76.833 -16.5 100.5s-25.5 40.167 -43.5 49.5
s-37.667 14 -59 14h-206v-334z" />
    <glyph glyph-name="Q" unicode="Q" horiz-adv-x="686" 
d="M506 -170c-24.667 0 -48.502 4.99902 -71.502 14.999s-42.667 25 -59 45s-26.166 45 -29.499 75h54c8 -26 22 -44.833 42 -56.5s41 -17.5 63 -17.5c9.33301 0 18.333 0.833008 27 2.5s17 3.83398 25 6.50098v-62c-8 -2 -16.167 -3.83301 -24.5 -5.5
s-17.166 -2.5 -26.499 -2.5zM342.998 -6.00098c-47.333 0 -88.8311 4.5 -124.498 13.5s-65.334 26.167 -89.001 51.5s-41.334 62.666 -53.001 111.999s-17.5 114 -17.5 194s6 144.833 18 194.5s30 87.667 54 114s53.667 44.333 89 54s76.333 14.5 123 14.5
c48 0 89.833 -4.83301 125.5 -14.5s65.334 -27.667 89.001 -54s41.167 -64.333 52.5 -114s17 -114.5 17 -194.5s-5.83301 -144.667 -17.5 -194s-29.334 -86.666 -53.001 -111.999s-53.167 -42.5 -88.5 -51.5s-77 -13.5 -125 -13.5zM343 64.999
c37.333 0 69.002 3.66699 95.002 11s47.167 21.5 63.5 42.5s28.166 51.167 35.499 90.5s11 91.333 11 156c0 67.333 -3.83301 121.333 -11.5 162s-19.667 71.334 -36 92.001s-37.333 34.334 -63 41.001s-57.167 10 -94.5 10c-34.667 0 -64.834 -3.33301 -90.501 -10
s-47 -20.334 -64 -41.001s-29.667 -51.334 -38 -92.001s-12.5 -94.667 -12.5 -162c0 -64.667 3.5 -116.667 10.5 -156s18.5 -69.5 34.5 -90.5s37.167 -35.167 63.5 -42.5s58.5 -11 96.5 -11z" />
    <glyph glyph-name="R" unicode="R" horiz-adv-x="608" 
d="M77 0l-0.000976562 735.999h290c24 0 47.333 -2.83301 70 -8.5s43.167 -16.167 61.5 -31.5s32.833 -37.166 43.5 -65.499s16 -65.5 16 -111.5c0 -40 -4.33301 -72.833 -13 -98.5s-20 -46 -34 -61s-29.167 -26 -45.5 -33s-32.166 -11.833 -47.499 -14.5l151 -312h-81
l-143 301c-10.667 0 -24 0.333008 -40 1s-33 1 -51 1s-35.5 0.333008 -52.5 1s-31.833 1 -44.5 1v-305h-80zM156.999 365.999h198.003c17.333 0 33.333 2 48 6s27.667 11.5 39 22.5s20.333 26.5 27 46.5s10 46 10 78c0 30.667 -3.33301 55.5 -10 74.5
s-15.834 33.667 -27.501 44s-24.834 17.333 -39.501 21s-30.334 5.5 -47.001 5.5h-198v-298z" />
    <glyph glyph-name="S" unicode="S" horiz-adv-x="578" 
d="M286 -6c-14.667 0 -32.1689 0.501953 -52.502 1.50195s-41.166 2.33301 -62.499 4s-41.5 3.5 -60.5 5.5s-34.833 4.33301 -47.5 7v61c16.667 -1.33301 37 -2.66602 61 -3.99902s49.833 -2.33301 77.5 -3s54.834 -1 81.501 -1c30 0 57 3 81 9s43.167 17 57.5 33
s21.5 39 21.5 69v50c0 34 -8.66699 59.833 -26 77.5s-45.333 26.5 -84 26.5h-79c-60.667 0 -108.167 13.333 -142.5 40s-51.5 72.667 -51.5 138v42c0 69.333 18.667 118.666 56 147.999s90 44 158 44c21.333 0 45.333 -1.16699 72 -3.5s52.5 -5 77.5 -8
s45.833 -6.16699 62.5 -9.5v-61c-29.333 2.66699 -62.5 5 -99.5 7s-71.833 3 -104.5 3c-30 0 -56 -3.5 -78 -10.5s-38.833 -19.333 -50.5 -37s-17.5 -42.834 -17.5 -75.501v-34c0 -40.667 10.667 -68.667 32 -84s51 -23 89 -23h85c40.667 0 74 -7.33301 100 -22
s45.333 -34.834 58 -60.501s19 -55.167 19 -88.5v-57c0 -49.333 -10.5 -87.333 -31.5 -114s-49 -45 -84 -55s-74.167 -15 -117.5 -15z" />
    <glyph glyph-name="T" unicode="T" horiz-adv-x="566" 
d="M243 0v664h-227v72h534v-72h-227v-664h-80z" />
    <glyph glyph-name="U" unicode="U" horiz-adv-x="676" 
d="M338 -6c-41.333 0 -78.666 3.66699 -111.999 11s-61.833 19.833 -85.5 37.5s-41.834 41.667 -54.501 72s-19 68.166 -19 113.499v508h80v-508c0 -42 7.5 -74.667 22.5 -98s36.833 -39.833 65.5 -49.5s63 -14.5 103 -14.5s74.333 4.83301 103 14.5s50.5 26.167 65.5 49.5
s22.5 56 22.5 98v508h80v-508c0 -45.333 -6.33301 -83.166 -19 -113.499s-30.834 -54.333 -54.501 -72s-52.167 -30.167 -85.5 -37.5s-70.666 -11 -111.999 -11z" />
    <glyph glyph-name="V" unicode="V" horiz-adv-x="674" 
d="M286 0l-252 736h82l222 -653l221 653h81l-252 -736h-102z" />
    <glyph glyph-name="W" unicode="W" horiz-adv-x="991" 
d="M223 0l-189 736h82l158 -627l182 627h80l181 -627l158 627h82l-189 -736h-86l-186 625l-187 -625h-86z" />
    <glyph glyph-name="X" unicode="X" horiz-adv-x="623" 
d="M499 0l-464 736h87l464 -736h-87zM38 0l240 385l40 -68l-193 -317h-87zM345 341l-38 72l194 323h87z" />
    <glyph glyph-name="Y" unicode="Y" horiz-adv-x="618" 
d="M269 0v244l-234 492h83l192 -412l192 412h80l-233 -492v-244h-80z" />
    <glyph glyph-name="Z" unicode="Z" horiz-adv-x="560" 
d="M43 0v65l383 599h-383v72h479v-65l-383 -600h383v-71h-479z" />
    <glyph glyph-name="bracketleft" unicode="[" horiz-adv-x="333" 
d="M249 -210c-34 0 -61.498 6.33398 -82.498 19.001s-36.667 28.667 -47 48s-17.333 39.833 -21 61.5s-5.5 41.5 -5.5 59.5v682c0 21.333 2.16699 42.666 6.5 63.999s12.166 40.833 23.499 58.5s27.166 32 47.499 43s46.5 16.5 78.5 16.5h63v-65h-44
c-28 0 -51 -9.66699 -69 -29s-27 -52 -27 -98v-668c0 -25.333 3.33301 -47.5 10 -66.5s17 -33.833 31 -44.5s32.333 -16 55 -16h44v-65h-63z" />
    <glyph glyph-name="backslash" unicode="\" horiz-adv-x="402" 
d="M303 -72l-281 842h77l281 -842h-77z" />
    <glyph glyph-name="bracketright" unicode="]" horiz-adv-x="333" 
d="M22 -210l0.00195312 64.999h43c23.333 0 42 5.33301 56 16s24.167 25.5 30.5 44.5s9.5 41.167 9.5 66.5v668c0 46 -8.83301 78.667 -26.5 98s-40.834 29 -69.501 29h-43v65h63c31.333 0 57.333 -5.5 78 -16.5s36.5 -25.333 47.5 -43s18.667 -37.167 23 -58.5
s6.5 -42.666 6.5 -63.999v-682c0 -18 -1.66699 -37.833 -5 -59.5s-10.333 -42.167 -21 -61.5s-26.334 -35.333 -47.001 -48s-48 -19 -82 -19h-63z" />
    <glyph glyph-name="asciicircum" unicode="^" horiz-adv-x="398" 
d="M55 531l122 133h56l110 -133h-48l-92 94l-99 -94h-49z" />
    <glyph glyph-name="underscore" unicode="_" horiz-adv-x="609" 
d="M0 -164v67h609v-67h-609z" />
    <glyph glyph-name="grave" unicode="`" horiz-adv-x="215" 
d="M147 631l-125 136h67l104 -136h-46z" />
    <glyph glyph-name="a" unicode="a" horiz-adv-x="545" 
d="M180 -6c-39.333 0 -71.667 11.6641 -97 34.9971s-38 56.333 -38 99v38c0 42 13.833 76 41.5 102s69.5 39 125.5 39h181v66c0 22 -3.83301 40.833 -11.5 56.5s-21.334 27.834 -41.001 36.501s-48.167 13 -85.5 13h-166v47c23.333 4 50.5 7.66699 81.5 11s67.5 5 109.5 5
c43.333 0.666992 79.333 -4.66602 108 -15.999s49.834 -29.166 63.501 -53.499s20.5 -56.166 20.5 -95.499v-377h-61l-15 61c-2.66699 -2.66699 -10.834 -7.33398 -24.501 -14.001s-31 -14.167 -52 -22.5s-43.667 -15.5 -68 -21.5s-48.166 -9 -71.499 -9zM212.999 52.9971
c12 -0.666992 25.665 0.666016 40.998 3.99902s31 7.16602 47 11.499s30.833 8.83301 44.5 13.5s24.834 8.66699 33.501 12s13.334 5 14.001 5v168l-163 -7c-38 -1.33301 -65.167 -10.666 -81.5 -27.999s-24.5 -39.666 -24.5 -66.999v-24c0 -21.333 4.5 -38.5 13.5 -51.5
s20.333 -22.167 34 -27.5s27.5 -8.33301 41.5 -9z" />
    <glyph glyph-name="b" unicode="b" horiz-adv-x="578" 
d="M333 -6c-25.333 0 -48.8311 3.16602 -70.498 9.49902s-41.5 14 -59.5 23s-34 18.167 -48 27.5l-15 -54h-64v763h79v-278c25.333 14.667 54 27.667 86 39s61.667 17 89 17c42.667 0 78 -9 106 -27s49.167 -47.333 63.5 -88s21.5 -95 21.5 -163
c0 -55.333 -6.33301 -103.166 -19 -143.499s-32.834 -71.333 -60.501 -93s-63.834 -32.5 -108.501 -32.5zM308.002 59.999c29.333 0 53.834 7.49707 73.501 22.4971s34.667 37.833 45 68.5s15.5 69 15.5 115c0 58.667 -5.83301 102.834 -17.5 132.501
s-27.5 49.834 -47.5 60.501s-43 16 -69 16c-30 0 -56.833 -4.16699 -80.5 -12.5s-47.834 -19.166 -72.501 -32.499v-327c20.667 -10 43.5 -19.667 68.5 -29s53.167 -14 84.5 -14z" />
    <glyph glyph-name="c" unicode="c" horiz-adv-x="490" 
d="M270 -6c-30 0 -58.002 4.00098 -84.002 12.001s-48.667 22 -68 42s-34.333 47.667 -45 83s-16 80.333 -16 135c0 55.333 5 100.833 15 136.5s24.333 63.5 43 83.5s41.334 34 68.001 42s56.334 12 89.001 12c26.667 0 55.667 -1.16699 87 -3.5s61.333 -5.83301 90 -10.5
v-47h-156c-34 0 -62.667 -5.66699 -86 -17s-41 -32.5 -53 -63.5s-18 -75.833 -18 -134.5c0 -56.667 6.33301 -100 19 -130s30.667 -50.5 54 -61.5s51.666 -16.5 84.999 -16.5h163v-46c-15.333 -2.66699 -33.166 -5.33398 -53.499 -8.00098s-41.833 -4.66699 -64.5 -6
s-45.667 -2 -69 -2z" />
    <glyph glyph-name="d" unicode="d" horiz-adv-x="575" 
d="M249 -6c-44 0 -80.165 9.49902 -108.498 28.499s-49.333 48.333 -63 88s-20.5 90.5 -20.5 152.5c0 66 6.66699 119.5 20 160.5s34.666 70.833 63.999 89.5s68.666 28 117.999 28c30 0 59.333 -3.33301 88 -10s54 -14 76 -22v254h79v-763h-64l-15 54
c-10 -8.66699 -24.833 -17.667 -44.5 -27s-41 -17.166 -64 -23.499s-44.833 -9.5 -65.5 -9.5zM272.002 58.999c30.667 0 58.5 4.83301 83.5 14.5s47.5 19.834 67.5 30.501v349c-24 7.33301 -47 13.5 -69 18.5s-46.667 7.5 -74 7.5c-34 0 -61.667 -6.33301 -83 -19
s-36.833 -34.5 -46.5 -65.5s-14.5 -73.833 -14.5 -128.5c0 -49.333 4.5 -89.333 13.5 -120s23.5 -52.834 43.5 -66.501s46.333 -20.5 79 -20.5z" />
    <glyph glyph-name="e" unicode="e" horiz-adv-x="541" 
d="M280 -6c-56 0 -100.168 8.33203 -132.501 24.999s-55.5 45 -69.5 85s-21 94.667 -21 164c0 70.667 7.16699 125.834 21.5 165.501s37.833 67.5 70.5 83.5s76.667 24 132 24c47.333 0 85.833 -5.33301 115.5 -16s51.667 -28.834 66 -54.501s21.5 -61.167 21.5 -106.5
c0 -31.333 -6.16699 -56.5 -18.5 -75.5s-30 -32.667 -53 -41s-50.167 -12.5 -81.5 -12.5h-195c0.666992 -43.333 5.33398 -78.166 14.001 -104.499s24.5 -45.333 47.5 -57s56.833 -17.5 101.5 -17.5h172v-48c-30.667 -4 -60.667 -7.33301 -90 -10s-63 -4 -101 -4z
M134.999 286.999h189.999c30 0 52.167 5.5 66.5 16.5s21.5 30.833 21.5 59.5c0 30.667 -4.5 54.5 -13.5 71.5s-23 29 -42 36s-44.5 10.5 -76.5 10.5c-37.333 0 -66.666 -5.5 -87.999 -16.5s-36.333 -30.5 -45 -58.5s-13 -67.667 -13 -119z" />
    <glyph glyph-name="f" unicode="f" horiz-adv-x="368" 
d="M105 0l0.00195312 469.002h-82v51l82 14v61c0 38 4.66699 69.833 14 95.5s25 45.167 47 58.5s52.667 20 92 20c23.333 0 43.166 -1.16699 59.499 -3.5s30.833 -4.5 43.5 -6.5v-56h-89c-24 0 -42.333 -3.83301 -55 -11.5s-21.334 -19.334 -26.001 -35.001
s-7 -34.834 -7 -57.501v-65h166v-65h-166v-469h-79z" />
    <glyph glyph-name="g" unicode="g" horiz-adv-x="576" 
d="M207 -245c-34.667 0 -65.1699 4.83789 -91.5029 14.5049s-47 24.334 -62 44.001s-22.5 44.167 -22.5 73.5v24c0 30.667 8.5 56.334 25.5 77.001s38.5 36.167 64.5 46.5s52.667 15.5 80 15.5l20 -32c-20 0 -38.667 -3.16699 -56 -9.5s-31.5 -16.5 -42.5 -30.5
s-16.5 -32 -16.5 -54v-22c0 -32 10.667 -54.833 32 -68.5s50.333 -20.5 87 -20.5h124c40 0 71.5 7.66699 94.5 23s34.5 39.333 34.5 72v20c0 18.667 -3.66699 34.667 -11 48s-19.5 23.666 -36.5 30.999s-40.833 11 -71.5 11h-161c-41.333 0 -73.5 8.83301 -96.5 26.5
s-34.5 40.5 -34.5 68.5c0 26.667 7.83301 47.667 23.5 63s37.834 26 66.501 32c-24.667 10 -44 23.5 -58 40.5s-23.667 35.333 -29 55s-8 39.5 -8 59.5c0 41.333 8.33301 74.666 25 99.999s40.5 43.666 71.5 54.999s67.5 17 109.5 17h285v-45l-120 -10
c8.66699 -6 18.334 -13.833 29.001 -23.5s19.834 -23.334 27.501 -41.001s11.5 -41.834 11.5 -72.501c0 -27.333 -5.83301 -53.333 -17.5 -78s-31.167 -44.834 -58.5 -60.501s-65 -23.5 -113 -23.5h-85c-28 0 -50.167 -4.16699 -66.5 -12.5s-24.5 -23.166 -24.5 -44.499
c0 -16 6 -27.333 18 -34s24.667 -10 38 -10h177c41.333 0 75.5 -5.33301 102.5 -16s47.333 -26.834 61 -48.501s20.5 -49.167 20.5 -82.5v-22c0 -48.667 -16.5 -86.834 -49.5 -114.501s-82.167 -41.5 -147.5 -41.5h-149zM243.997 242.005l59.999 -0.00195312
c34 0 59.833 5.16699 77.5 15.5s29.834 23.833 36.501 40.5s10 34.667 10 54c0 30 -4.83301 53.833 -14.5 71.5s-23.167 30.334 -40.5 38.001s-37.333 11.5 -60 11.5h-57c-38 0 -67.833 -8.5 -89.5 -25.5s-32.5 -46.5 -32.5 -88.5c0 -41.333 9.83301 -71.166 29.5 -89.499
s46.5 -27.5 80.5 -27.5z" />
    <glyph glyph-name="h" unicode="h" horiz-adv-x="588" 
d="M76 0l0.00195312 763h79v-288c24.667 18 54.167 33.833 88.5 47.5s70.166 20.5 107.499 20.5s68.166 -8 92.499 -24s42.333 -37.667 54 -65s17.5 -57.666 17.5 -90.999v-363h-79v355c0 22.667 -4.5 42.667 -13.5 60s-21.833 31 -38.5 41s-36.667 15 -60 15
c-22 0 -42.333 -2.16699 -61 -6.5s-36.667 -10.333 -54 -18s-35.333 -16.834 -54 -27.501v-419h-79z" />
    <glyph glyph-name="i" unicode="i" horiz-adv-x="231" 
d="M88 629c-10.667 0 -15.999 5.33301 -15.999 16v78c0 10.667 5.33301 16 16 16h56c5.33301 0 9.16602 -1.5 11.499 -4.5s3.5 -6.83301 3.5 -11.5v-78c0 -10.667 -5 -16 -15 -16h-56zM76.001 0v534h79v-534h-79z" />
    <glyph glyph-name="j" unicode="j" horiz-adv-x="231" 
d="M87 629c-10.667 0 -15.999 5.33301 -15.999 16v78c0 10.667 5.33301 16 16 16h57c5.33301 0 9.16602 -1.5 11.499 -4.5s3.5 -6.83301 3.5 -11.5v-78c0 -10.667 -5 -16 -15 -16h-57zM76.001 -237v771h79v-517c0 -48 -2 -94.667 -6 -140s-8.66699 -83.333 -14 -114h-59z
" />
    <glyph glyph-name="k" unicode="k" horiz-adv-x="506" 
d="M76 0v763h79v-442h76l163 213h84l-188 -249l200 -285h-84l-178 250h-73v-250h-79z" />
    <glyph glyph-name="l" unicode="l" horiz-adv-x="294" 
d="M216 -1c-30.667 0 -56.3311 5.49902 -76.998 16.499s-36.334 29 -47.001 54s-16 58.833 -16 101.5v592h79v-582c0 -32 3 -56.167 9 -72.5s14.667 -27.666 26 -33.999s24.666 -10.5 39.999 -12.5l54 -6v-57h-68z" />
    <glyph glyph-name="m" unicode="m" horiz-adv-x="948" 
d="M76 0l-0.00292969 534h62l17 -59c26.667 18.667 56.5 34.667 89.5 48s69.833 20 110.5 20c33.333 0 61.833 -7.5 85.5 -22.5s41.5 -33.833 53.5 -56.5c16.667 12 36.834 24 60.501 36s49 22.167 76 30.5s53.167 12.5 78.5 12.5c38.667 0 70.334 -8.16699 95.001 -24.5
s42.834 -38.333 54.501 -66s17.5 -58.5 17.5 -92.5v-360h-79v354c0 22.667 -4.5 42.834 -13.5 60.501s-21.833 31.5 -38.5 41.5s-37 15 -61 15c-30 0 -60.667 -5.66699 -92 -17s-60.333 -25 -87 -41c3.33301 -10 5.83301 -19.833 7.5 -29.5s2.5 -19.834 2.5 -30.501v-353
h-79v354c0 22.667 -4.5 42.834 -13.5 60.501s-21.667 31.5 -38 41.5s-36.5 15 -60.5 15c-22 0 -42.5 -2.16699 -61.5 -6.5s-37 -10.333 -54 -18s-34.833 -16.834 -53.5 -27.501v-419h-79z" />
    <glyph glyph-name="n" unicode="n" horiz-adv-x="588" 
d="M76 0v534h62l17 -59c25.333 18 55 33.833 89 47.5s69.333 20.5 106 20.5c39.333 0 71 -8.33301 95 -25s41.667 -38.667 53 -66s17 -57 17 -89v-363h-79v354c0 22.667 -4.5 42.834 -13.5 60.501s-21.667 31.5 -38 41.5s-36.5 15 -60.5 15c-22 0 -42.5 -2.16699 -61.5 -6.5
s-37 -10.333 -54 -18s-34.833 -16.834 -53.5 -27.501v-419h-79z" />
    <glyph glyph-name="o" unicode="o" horiz-adv-x="577" 
d="M288 -6c-38.667 0 -72.5 4 -101.5 12s-53.167 22 -72.5 42s-33.666 47.833 -42.999 83.5s-14 81.167 -14 136.5c0 56 4.66699 101.833 14 137.5s23.666 63.334 42.999 83.001s43.5 33.334 72.5 41.001s62.833 11.5 101.5 11.5s72.5 -4 101.5 -12
s53.167 -21.833 72.5 -41.5s33.833 -47.334 43.5 -83.001s14.5 -81.167 14.5 -136.5c0 -56 -4.83301 -101.833 -14.5 -137.5s-24 -63.334 -43 -83.001s-43.167 -33.5 -72.5 -41.5s-63.333 -12 -102 -12zM288 59c24.667 0 46.5 2.33301 65.5 7s34.833 14 47.5 28
s22.334 35 29.001 63s10 65 10 111c0 46.667 -3.33301 83.667 -10 111s-16.334 48 -29.001 62s-28.5 23.333 -47.5 28s-40.833 7 -65.5 7c-25.333 0 -47.333 -2.33301 -66 -7s-34.334 -14 -47.001 -28s-22.334 -34.667 -29.001 -62s-10 -64.333 -10 -111
c0 -46 3.33301 -83 10 -111s16.334 -49 29.001 -63s28.334 -23.333 47.001 -28s40.667 -7 66 -7z" />
    <glyph glyph-name="p" unicode="p" horiz-adv-x="578" 
d="M76 -237l0.000976562 770.997h64l15 -55c12 8.66699 27.5 17.834 46.5 27.501s39.667 17.834 62 24.501s44.5 10 66.5 10c34.667 0 64.167 -7.5 88.5 -22.5s44.166 -35.167 59.499 -60.5s26.333 -54.333 33 -87s10 -67 10 -103c0 -60 -6.83301 -110.5 -20.5 -151.5
s-34.5 -71.833 -62.5 -92.5s-64 -31 -108 -31c-30 0 -60.167 4.83301 -90.5 14.5s-58.5 21.834 -84.5 36.501v-281h-79zM308.001 59.9971c25.333 0 48.002 6.33398 68.002 19.001s36 34.167 48 64.5s18 71.833 18 124.5c0 50 -6.33301 90.167 -19 120.5s-29 52.333 -49 66
s-42 20.5 -66 20.5c-30.667 0 -58.834 -4.83301 -84.501 -14.5s-48.5 -19.834 -68.5 -30.501v-327c23.333 -12.667 48.166 -23 74.499 -31s52.5 -12 78.5 -12z" />
    <glyph glyph-name="q" unicode="q" horiz-adv-x="575" 
d="M423 -237l-0.00195312 290.996c-25.333 -17.333 -53.666 -31.666 -84.999 -42.999s-61.666 -17 -90.999 -17c-46.667 0 -84 10.167 -112 30.5s-48 50.833 -60 91.5s-18 91.334 -18 152.001c0 61.333 7 112.333 21 153s35.833 70.834 65.5 90.501s67.5 29.5 113.5 29.5
c32 0 63 -0.666992 93 -2s58 -3.16602 84 -5.49902s48.667 -4.5 68 -6.5v-764h-79zM265.998 58.9961c27.333 0 54.167 3.99902 80.5 11.999s51.833 19 76.5 33v375h-148c-35.333 0 -63 -8.66699 -83 -26s-34.333 -41.666 -43 -72.999s-13 -68 -13 -110
c0 -50 4.5 -90.5 13.5 -121.5s22.833 -53.667 41.5 -68s43.667 -21.5 75 -21.5z" />
    <glyph glyph-name="r" unicode="r" horiz-adv-x="412" 
d="M76 0v533.999h60l19 -93c24 28.667 50.833 52.334 80.5 71.001s63.834 28 102.501 28c9.33301 0 18.166 -0.333008 26.499 -1s16.166 -2 23.499 -4v-81c-8.66699 1.33301 -18 2.5 -28 3.5s-20 1.5 -30 1.5c-24.667 0 -46.667 -3 -66 -9s-37.666 -15 -54.999 -27
s-35.333 -26.667 -54 -44v-379h-79z" />
    <glyph glyph-name="s" unicode="s" horiz-adv-x="500" 
d="M260 -6c-13.333 0 -29.6719 0.334961 -49.0049 1.00195s-39.5 1.66699 -60.5 3s-40 2.83301 -57 4.5s-30.167 3.5 -39.5 5.5v48h219c22 0 41 1.66699 57 5s28.5 10.666 37.5 21.999s13.5 28.333 13.5 51v24c0 23.333 -7.66699 41.5 -23 54.5s-40 19.5 -74 19.5h-75
c-31.333 0 -59.166 4 -83.499 12s-43.166 21.667 -56.499 41s-20 46 -20 80v28c0 33.333 6.5 60.666 19.5 81.999s33.333 37.333 61 48s63.5 16 107.5 16c18.667 0 40.167 -0.666992 64.5 -2s48.166 -3.16602 71.499 -5.49902s42.333 -4.83301 57 -7.5v-48h-206
c-34 0 -60.167 -5.66699 -78.5 -17s-27.5 -33.333 -27.5 -66v-22c0 -20.667 4.33301 -36.167 13 -46.5s20.834 -17.166 36.501 -20.499s33.834 -5 54.501 -5h76c48.667 0 86.334 -11.333 113.001 -34s40 -55.334 40 -98.001v-37c0 -36 -8.16699 -63.833 -24.5 -83.5
s-38.666 -33.334 -66.999 -41.001s-61.5 -11.5 -99.5 -11.5z" />
    <glyph glyph-name="t" unicode="t" horiz-adv-x="367" 
d="M253 0c-34.667 0 -63.3311 5.66797 -85.998 17.001s-39.334 29.666 -50.001 54.999s-15.667 59 -15 101l3 296h-85v51l86 14l13 149h61v-149h154v-65h-154v-296c0 -23.333 2.5 -42 7.5 -56s11.667 -24.667 20 -32s17.166 -12.5 26.499 -15.5s18.333 -4.83301 27 -5.5
l65 -6v-58h-73z" />
    <glyph glyph-name="u" unicode="u" horiz-adv-x="588" 
d="M235 -6c-51.333 0 -90.834 13.334 -118.501 40.001s-41.5 68 -41.5 124v376h79v-356c0 -44.667 10.167 -74.834 30.5 -90.501s48.833 -23.5 85.5 -23.5c31.333 0 60 4.5 86 13.5s52.667 21.5 80 37.5v419h79v-534h-62l-17 59
c-27.333 -17.333 -58.166 -32.5 -92.499 -45.5s-70.5 -19.5 -108.5 -19.5z" />
    <glyph glyph-name="v" unicode="v" horiz-adv-x="536" 
d="M220 0l-201 534h81l166 -460l171 460h80l-207 -534h-90z" />
    <glyph glyph-name="w" unicode="w" horiz-adv-x="797" 
d="M181 0l-162 534h81l131 -460l135 460h69l135 -460l127 460h81l-161 -534h-87l-131 428l-132 -428h-86z" />
    <glyph glyph-name="x" unicode="x" horiz-adv-x="507" 
d="M404 0l-382 534h81l383 -534h-82zM22 0l201 289l30 -71l-151 -218h-80zM284 243l-35 63l155 227l82 1z" />
    <glyph glyph-name="y" unicode="y" horiz-adv-x="541" 
d="M219 -237l68.002 237c-16.667 0.666992 -34 4.66699 -52 12s-34.667 20 -50 38s-28 43 -38 75l-128 409h83l119 -392c7.33301 -20.667 15.166 -36 23.499 -46s16.833 -17 25.5 -21s16.167 -6.16699 22.5 -6.5s10.166 -0.5 11.499 -0.5l137 466h81l-195 -672l-46 -99h-62z
" />
    <glyph glyph-name="z" unicode="z" horiz-adv-x="494" 
d="M51 0v60l308 409h-316v65h408v-60l-309 -409h309v-65h-400z" />
    <glyph glyph-name="braceleft" unicode="{" horiz-adv-x="310" 
d="M288 -210c-39.333 0 -71.3311 4.50098 -95.998 13.501s-43.5 21.5 -56.5 37.5s-22 34.333 -27 55s-7.5 42.667 -7.5 66v267c0 14.667 -3.83301 27.167 -11.5 37.5s-17.5 18.166 -29.5 23.499s-24.667 7.33301 -38 6v75c11.333 1.33301 23.166 4 35.499 8
s22.833 10.5 31.5 19.5s13 22.167 13 39.5v218c0 34.667 5.66699 66 17 94s30.5 50.333 57.5 67s64.167 25 111.5 25v-65c-24 0 -44 -4.5 -60 -13.5s-27.833 -24 -35.5 -45s-11.5 -50.5 -11.5 -88.5v-203c0 -28.667 -8.33301 -50.5 -25 -65.5s-37.667 -24.167 -63 -27.5
c25.333 -4 46.166 -14 62.499 -30s24.5 -36 24.5 -60v-259c0 -50 8.5 -84.667 25.5 -104s44.5 -29 82.5 -29v-62z" />
    <glyph glyph-name="bar" unicode="|" horiz-adv-x="253" 
d="M93 -72v842h66v-842h-66z" />
    <glyph glyph-name="braceright" unicode="}" horiz-adv-x="310" 
d="M22 -210l-0.000976562 61.999c38 0 65.5 9.66699 82.5 29s25.5 54 25.5 104v259c0 24 8.16699 44 24.5 60s37.166 26 62.499 30c-25.333 3.33301 -46.333 12.5 -63 27.5s-25 36.833 -25 65.5v203c0 38 -3.83301 67.5 -11.5 88.5s-19.5 36 -35.5 45s-36 13.5 -60 13.5v65
c48 0 85.333 -8.33301 112 -25s45.667 -39 57 -67s17 -59.333 17 -94v-218c0 -17.333 4.33301 -30.5 13 -39.5s19.334 -15.5 32.001 -19.5s24.334 -6.66699 35.001 -8v-75c-13.333 1.33301 -26 -0.666992 -38 -6s-21.833 -13.166 -29.5 -23.499s-11.5 -22.833 -11.5 -37.5
v-267c0 -23.333 -2.5 -45.333 -7.5 -66s-14 -39 -27 -55s-31.833 -28.5 -56.5 -37.5s-56.667 -13.5 -96 -13.5z" />
    <glyph glyph-name="asciitilde" unicode="~" horiz-adv-x="451" 
d="M288 538c-10.667 0 -21.833 2.99902 -33.5 8.99902s-23 13 -34 21s-21.5 15 -31.5 21s-19 9 -27 9c-17.333 0 -33.333 -4.16699 -48 -12.5s-30.667 -19.166 -48 -32.499l-11 27c16 16.667 33 31.5 51 44.5s38.333 19.5 61 19.5c10.667 0 21.5 -3.16699 32.5 -9.5
s22 -13.5 33 -21.5s21.333 -15 31 -21s18.167 -9 25.5 -9c18 0 35.5 5.66699 52.5 17s31.167 22 42.5 32l12 -29c-14.667 -16.667 -30.667 -31.667 -48 -45s-37.333 -20 -60 -20z" />
    <glyph glyph-name="uni00A0" unicode="&#xa0;" horiz-adv-x="270" 
 />
    <glyph glyph-name="exclamdown" unicode="&#xa1;" horiz-adv-x="266" 
d="M164 335l10 -536h-79l12 536h57zM158 535c10.667 0 16 -5.33301 16 -16v-80c0 -10.667 -5.33301 -16 -16 -16h-45c-10.667 0 -16 5.33301 -16 16v80c0 5.33301 1.66699 9.33301 5 12s7 4 11 4h45z" />
    <glyph glyph-name="cent" unicode="&#xa2;" horiz-adv-x="487" 
d="M239 -86l0.00390625 80.999c-27.333 0 -52.833 3.66699 -76.5 11s-44.334 20.666 -62.001 39.999s-31.5 46.833 -41.5 82.5s-15 81.5 -15 137.5c0 56.667 4.83301 102.667 14.5 138s23.167 62.666 40.5 81.999s38 32.5 62 39.5s50.333 10.5 79 10.5v87h48v-88
c22.667 -2 47.167 -5.5 73.5 -10.5s51.166 -10.833 74.499 -17.5v-47c-18.667 4 -42.334 7.33301 -71.001 10s-63.334 4 -104.001 4c-22 0 -41.667 -2.5 -59 -7.5s-31.833 -14.833 -43.5 -29.5s-20.5 -36 -26.5 -64s-9 -64.667 -9 -110c0 -43.333 3.16699 -78.5 9.5 -105.5
s15.5 -47.833 27.5 -62.5s26.833 -24.667 44.5 -30s38.167 -8 61.5 -8c27.333 0 51.333 0.833008 72 2.5s39.5 3.83398 56.5 6.50098s33.167 5.66699 48.5 9v-48c-29.333 -11.333 -55.833 -19.166 -79.5 -23.499s-49.5 -7.16602 -77.5 -8.49902v-81h-47z" />
    <glyph glyph-name="sterling" unicode="&#xa3;" horiz-adv-x="609" 
d="M63 0v58.999l109 12v263l-109 6v42l109 10v126c0 57.333 8.5 102 25.5 134s41.167 54.333 72.5 67s69.333 19 114 19c28 0 55.333 -1.16699 82 -3.5s48.667 -4.5 66 -6.5v-62h-144c-30 0 -55.167 -3.5 -75.5 -10.5s-35.5 -20.667 -45.5 -41s-15 -50.166 -15 -89.499v-133
l214 -7v-45l-214 -6v-263h292v-71h-481z" />
    <glyph glyph-name="currency" unicode="&#xa4;" horiz-adv-x="609" 
d="M304 191c-30 0 -57.333 7.5 -82 22.5s-44.5 35 -59.5 60s-22.5 52.5 -22.5 82.5c0 30.667 7.5 58.334 22.5 83.001s34.833 44.5 59.5 59.5s52 22.5 82 22.5c30.667 0 58.334 -7.5 83.001 -22.5s44.5 -34.833 59.5 -59.5s22.5 -52.334 22.5 -83.001
c0 -30 -7.5 -57.5 -22.5 -82.5s-34.833 -45 -59.5 -60s-52.334 -22.5 -83.001 -22.5zM114 129l-37 37l108 108l37 -37zM181 442l-104 104l37 37l104 -104zM494 129l-106 106l37 37l106 -106zM304 238c21.333 0 41 5.33301 59 16s32.333 25 43 43s16 37.667 16 59
s-5.33301 41 -16 59s-25 32.333 -43 43s-37.667 16 -59 16c-20.667 0 -40 -5.33301 -58 -16s-32.167 -25 -42.5 -43s-15.5 -37.667 -15.5 -59s5.16699 -41 15.5 -59s24.5 -32.333 42.5 -43s37.333 -16 58 -16zM425 440l-37 37l106 106l37 -37z" />
    <glyph glyph-name="yen" unicode="&#xa5;" horiz-adv-x="609" 
d="M79 260v47h451v-47h-451zM79 134v47h451v-47h-451zM254 0v244l-234 492h83l192 -412l192 412h81l-234 -492v-244h-80z" />
    <glyph glyph-name="brokenbar" unicode="&#xa6;" horiz-adv-x="253" 
d="M93 429v341h66v-341h-66zM93 -72v328h66v-328h-66z" />
    <glyph glyph-name="section" unicode="&#xa7;" horiz-adv-x="550" 
d="M316 -6c-14 0 -30.8311 0.162109 -50.498 0.495117s-40.334 1 -62.001 2s-42 2 -61 3s-34.167 2.5 -45.5 4.5v55h205c30.667 0 53.834 3 69.501 9s26.334 14.167 32.001 24.5s8.5 22.5 8.5 36.5v53c0 14.667 -1.83301 25.834 -5.5 33.501s-11.334 13.167 -23.001 16.5
s-29.5 5 -53.5 5h-127c-34 0 -62 3.33301 -84 10s-38.333 17.667 -49 33s-16 36.333 -16 63v52c0 32 5.66699 54.5 17 67.5s28.333 22.5 51 28.5c-22.667 6.66699 -38.167 19.5 -46.5 38.5s-12.5 39.167 -12.5 60.5v63c0 30.667 6.33301 55.667 19 75s31 33.5 55 42.5
s53.667 13.5 89 13.5c13.333 0 30.5 -0.166992 51.5 -0.5s43 -1 66 -2s44.5 -2 64.5 -3s35.333 -2.83301 46 -5.5v-54h-218c-20 0 -37.333 -1.83301 -52 -5.5s-25.834 -11.167 -33.501 -22.5s-11.5 -27.666 -11.5 -48.999v-49c0 -22.667 6.66699 -37.667 20 -45
s33.666 -11 60.999 -11h126c39.333 0 70 -3.66699 92 -11s37.5 -19 46.5 -35s13.5 -37.333 13.5 -64v-52c0 -27.333 -4.83301 -48.166 -14.5 -62.499s-26.5 -24.166 -50.5 -29.499c16 -4 28 -10.667 36 -20s13.333 -20.5 16 -33.5s4 -26.167 4 -39.5v-64
c0 -33.333 -6.83301 -59.666 -20.5 -78.999s-33.5 -33 -59.5 -41s-57 -12 -93 -12zM219.002 298.995h111c26.667 0 46.5 1.16699 59.5 3.5s21.667 7.83301 26 16.5s6.5 22.667 6.5 42v51c0 16.667 -2.5 29.5 -7.5 38.5s-14.167 15.333 -27.5 19s-32.333 5.5 -57 5.5h-111
c-34 0 -57.333 -4.5 -70 -13.5s-19 -26.167 -19 -51.5v-50c0 -13.333 2.5 -24.5 7.5 -33.5s14 -15.833 27 -20.5s31.167 -7 54.5 -7z" />
    <glyph glyph-name="dieresis" unicode="&#xa8;" horiz-adv-x="413" 
d="M286 653c-10.667 0 -16.001 5.33301 -16.001 16v78c0 10.667 5.33301 16 16 16h37c4.66699 0 8.33398 -1.5 11.001 -4.5s4 -6.83301 4 -11.5v-78c0 -10.667 -5 -16 -15 -16h-37zM90.999 653c-10.667 0 -16.001 5.33301 -16.001 16v78c0 10.667 5.33301 16 16 16h37
c4.66699 0 8.33398 -1.5 11.001 -4.5s4 -6.83301 4 -11.5v-78c0 -10.667 -5 -16 -15 -16h-37z" />
    <glyph glyph-name="copyright" unicode="&#xa9;" horiz-adv-x="841" 
d="M313 0c-37.333 0 -69.998 7.50293 -97.998 22.5029s-51.833 35.167 -71.5 60.5s-35.667 53.833 -48 85.5s-21.333 64.834 -27 99.501s-8.5 68 -8.5 100c0 43.333 3.66699 86.5 11 129.5s20.166 82.167 38.499 117.5s44 63.666 77 84.999s75.167 32 126.5 32h238
c39.333 0 72.666 -7.5 99.999 -22.5s49.5 -35.333 66.5 -61s30.167 -54.334 39.5 -86.001s15.666 -64.334 18.999 -98.001s5 -65.834 5 -96.501c0 -53.333 -5 -102.5 -15 -147.5s-24.667 -84 -44 -117s-43.166 -58.5 -71.499 -76.5s-61.5 -27 -99.5 -27h-238z
M387.002 147.003c-26 0 -50.499 5.83008 -73.499 17.4971s-41.5 33.334 -55.5 65.001s-21 76.834 -21 135.501c0 54 6.5 96.833 19.5 128.5s30.833 54.5 53.5 68.5s48.667 21 78 21c13.333 0 30.166 -0.666992 50.499 -2s41.5 -3.5 63.5 -6.5s42.333 -6.5 61 -10.5v-36
c-20 2.66699 -40.5 4.83398 -61.5 6.50098s-40.333 3 -58 4s-31.834 1.5 -42.501 1.5c-25.333 0 -46.666 -5.66699 -63.999 -17s-30.5 -30 -39.5 -56s-13.5 -61 -13.5 -105c0 -56.667 8.83301 -99.5 26.5 -128.5s47.5 -43.5 89.5 -43.5c33.333 0 64.333 1.5 93 4.5
s54 6.83301 76 11.5v-36c-30 -10 -59.5 -16.333 -88.5 -19s-60.167 -4 -93.5 -4zM313.003 43l234.005 -0.000976562c35.333 0 67.166 11.667 95.499 35s50.666 59 66.999 107s24.5 109 24.5 183c0 42 -2.83301 82.167 -8.5 120.5s-15.334 72.5 -29.001 102.5
s-32.334 53.833 -56.001 71.5s-53.5 26.5 -89.5 26.5h-238c-26 0 -51.333 -5 -76 -15s-46.5 -27 -65.5 -51s-34.5 -56.667 -46.5 -98s-18 -93.666 -18 -156.999c-0.666992 -39.333 3 -78.333 11 -117s20.5 -73.667 37.5 -105s38.667 -56.333 65 -75s57.166 -28 92.499 -28z
" />
    <glyph glyph-name="ordfeminine" unicode="&#xaa;" horiz-adv-x="408" 
d="M33 264v42h332v-42h-332zM96 465c0 -15.333 3.33301 -27.3301 10 -35.9971s14.667 -14.834 24 -18.501s19.333 -5.83398 30 -6.50098c10.667 0 23.167 1.5 37.5 4.5s28.333 6.66699 42 11s25 8.16602 34 11.499l13.5 5v117l-117 -6
c-26.667 -0.666992 -45.667 -7.16699 -57 -19.5s-17 -27.5 -17 -45.5v-17zM32 484.003c0 30.667 10.3311 54.665 30.998 71.998s51 26 91 26h133v49c0 22.667 -6.5 40.334 -19.5 53.001s-39.833 19 -80.5 19h-123v41c17.333 4 38 7.16699 62 9.5s52 3.83301 84 4.5
c32.667 0.666992 59.834 -3.16602 81.501 -11.499s38 -21.5 49 -39.5s16.5 -42 16.5 -72v-275h-54l-13 44c-2.66699 -2 -9 -5.5 -19 -10.5s-22.667 -10.5 -38 -16.5s-31.666 -11 -48.999 -15s-34.333 -6 -51 -6c-29.333 0 -53.5 8.33301 -72.5 25s-28.5 40 -28.5 70v33z" />
    <glyph glyph-name="guillemotleft" unicode="&#xab;" horiz-adv-x="611" 
d="M272 65l-217 215l212 209l43 -41l-171 -168l175 -171zM522 65l-217 215l212 209l43 -41l-171 -168l175 -171z" />
    <glyph glyph-name="logicalnot" unicode="&#xac;" horiz-adv-x="609" 
d="M462 203v264h66v-264h-66zM80 443v66h448v-66h-448z" />
    <glyph glyph-name="uni00AD" unicode="&#xad;" horiz-adv-x="343" 
d="M25 257v66h293v-66h-293z" />
    <glyph glyph-name="registered" unicode="&#xae;" horiz-adv-x="841" 
d="M313 0c-37.333 0 -69.998 7.50293 -97.998 22.5029s-51.833 35.167 -71.5 60.5s-35.667 53.833 -48 85.5s-21.333 64.834 -27 99.501s-8.5 68 -8.5 100c0 43.333 3.66699 86.5 11 129.5s20.166 82.167 38.499 117.5s44 63.666 77 84.999s75.167 32 126.5 32h238
c39.333 0 72.666 -7.5 99.999 -22.5s49.5 -35.333 66.5 -61s30.167 -54.334 39.5 -86.001s15.666 -64.334 18.999 -98.001s5 -65.834 5 -96.501c0 -53.333 -5 -102.5 -15 -147.5s-24.667 -84 -44 -117s-43.166 -58.5 -71.499 -76.5s-61.5 -27 -99.5 -27h-238z
M313.002 43.0029l234.005 -0.000976562c35.333 0 67.166 11.667 95.499 35s50.666 59 66.999 107s24.5 109 24.5 183c0 42 -2.83301 82.167 -8.5 120.5s-15.334 72.5 -29.001 102.5s-32.334 53.833 -56.001 71.5s-53.5 26.5 -89.5 26.5h-238c-26 0 -51.333 -5 -76 -15
s-46.5 -27 -65.5 -51s-34.5 -56.667 -46.5 -98s-18 -93.666 -18 -156.999c-0.666992 -39.333 3 -78.333 11 -117s20.5 -73.667 37.5 -105s38.667 -56.333 65 -75s57.166 -28 92.499 -28zM269.007 153.002v427.001h181c22 0 42.667 -3.33301 62 -10s35 -19.334 47 -38.001
s18 -46 18 -82c0 -25.333 -3.16699 -45.5 -9.5 -60.5s-14.5 -26 -24.5 -33s-20.5 -12 -31.5 -15s-21.167 -5.16699 -30.5 -6.5l102 -182h-48l-100 182l-119 4v-186h-47zM316.007 372.003h136.001c25.333 0 44.666 4.66699 57.999 14s20 30.333 20 63
c0 34 -7 57.167 -21 69.5s-33 18.5 -57 18.5h-136v-165z" />
    <glyph glyph-name="macron" unicode="&#xaf;" horiz-adv-x="374" 
d="M55 671v48h265v-48h-265z" />
    <glyph glyph-name="degree" unicode="&#xb0;" horiz-adv-x="329" 
d="M165 497c-37.333 0 -68.5 12.332 -93.5 36.999s-37.5 56.334 -37.5 95.001c0 26 5.66699 48.833 17 68.5s27 35.334 47 47.001s42.333 17.5 67 17.5c38.667 0 70.167 -12.5 94.5 -37.5s36.5 -56.833 36.5 -95.5s-12.167 -70.334 -36.5 -95.001s-55.833 -37 -94.5 -37z
M165 534.999c28 0 50.5 8.83301 67.5 26.5s25.5 40.167 25.5 67.5s-8.5 50 -25.5 68s-39.5 27 -67.5 27c-26.667 0 -49 -9 -67 -27s-27 -40.667 -27 -68s9 -49.833 27 -67.5s40.333 -26.5 67 -26.5z" />
    <glyph glyph-name="plusminus" unicode="&#xb1;" horiz-adv-x="609" 
d="M80 123v66h448v-66h-448zM271 282v448h66v-448h-66zM80 473v66h448v-66h-448z" />
    <glyph glyph-name="uni00B2" unicode="&#xb2;" horiz-adv-x="455" 
d="M48 280l-0.000976562 53l196 189c28.667 28 49.167 53.667 61.5 77s18.5 49 18.5 77c0 16 -3 30.333 -9 43s-17 22.667 -33 30s-38.667 11 -68 11h-147v52c22 2.66699 46.833 5.33398 74.5 8.00098s56.834 4 87.501 4c42 0 75.167 -5.83301 99.5 -17.5
s41.5 -27.834 51.5 -48.501s15 -45.334 15 -74.001c0 -25.333 -3.16699 -48.166 -9.5 -68.499s-16.833 -40.5 -31.5 -60.5s-34 -42 -58 -66l-153 -146h272v-63h-367z" />
    <glyph glyph-name="uni00B3" unicode="&#xb3;" horiz-adv-x="455" 
d="M237 276c-38.667 0 -74.498 0.835938 -107.498 2.50293s-62.5 4.5 -88.5 8.5v53h175c21.333 0 40 2.16699 56 6.5s28.667 12 38 23s14 26.5 14 46.5v33c0 18 -4.5 32.167 -13.5 42.5s-20.5 17.666 -34.5 21.999s-28.333 6.83301 -43 7.5l-137 6v51l134 5
c26 1.33301 46.833 6.83301 62.5 16.5s23.5 26.167 23.5 49.5v34c0 24.667 -8.5 43.667 -25.5 57s-43.5 20 -79.5 20h-152v53c23.333 4 49.666 7 78.999 9s62.666 2.66699 99.999 2c48.667 0 85.334 -11.5 110.001 -34.5s37 -54.167 37 -93.5v-45
c0 -21.333 -4.16699 -38.833 -12.5 -52.5s-18.5 -24.167 -30.5 -31.5s-23.333 -12.333 -34 -15c12 -2.66699 24.667 -8.33398 38 -17.001s24.666 -20.334 33.999 -35.001s14 -33.667 14 -57v-36c0 -42 -13.833 -74.333 -41.5 -97s-66.167 -34 -115.5 -34z" />
    <glyph glyph-name="acute" unicode="&#xb4;" horiz-adv-x="215" 
d="M22 631l104 136h67l-125 -136h-46z" />
    <glyph glyph-name="uni00B5" unicode="&#xb5;" horiz-adv-x="588" 
d="M259 -6c-27.333 0 -52.167 4.33203 -74.5 12.999s-41.666 21.334 -57.999 38.001s-29 36.667 -38 60s-13.5 49.333 -13.5 78v351h79v-356c0 -30 5 -53.167 15 -69.5s23.667 -27.833 41 -34.5s37.333 -10 60 -10c32.667 0 61.667 4.5 87 13.5s51.666 21.5 78.999 37.5v419
h79v-534h-62l-14 59c-23.333 -18.667 -50.333 -34.167 -81 -46.5s-63.667 -18.5 -99 -18.5zM74.999 -269.001v500h79v-500h-79z" />
    <glyph glyph-name="paragraph" unicode="&#xb6;" horiz-adv-x="573" 
d="M274 -270l0.000976562 592.999c-4.66699 -3.33301 -13.834 -6.33301 -27.501 -9s-30.834 -3.66699 -51.501 -3c-35.333 0 -64.833 6.83301 -88.5 20.5s-41.167 31.834 -52.5 54.501s-17 48 -17 76v134c0 32 7.66699 58.333 23 79s35.333 36 60 46s51.334 15 80.001 15
h358v-59h-77v-677h-56v679h-95v-949h-56zM203.001 366.999h71v312h-71c-37.333 0 -65 -8.66699 -83 -26s-27 -40.666 -27 -69.999v-114c0 -22.667 4.33301 -40.834 13 -54.501s19.167 -24 31.5 -31s24.5 -11.5 36.5 -13.5s21.667 -3 29 -3z" />
    <glyph glyph-name="periodcentered" unicode="&#xb7;" horiz-adv-x="262" 
d="M109 332c-10.667 0 -16 4.99902 -16 14.999v47c0 10.667 5.33301 16 16 16h44c11.333 0 17 -5.33301 17 -16v-47c0 -5.33301 -1.66699 -9.16602 -5 -11.499s-7.33301 -3.5 -12 -3.5h-44z" />
    <glyph glyph-name="cedilla" unicode="&#xb8;" horiz-adv-x="258" 
d="M55 -190l-0.000976562 33.0029l22 2c18.667 2 32.667 6.5 42 13.5s14 17.5 14 31.5c0 11.333 -4.16699 21.166 -12.5 29.499s-26.166 13.166 -53.499 14.499l33 12c28.667 0 49.834 -5.33301 63.501 -16s20.5 -26.667 20.5 -48c0 -22.667 -8.33301 -40.334 -25 -53.001
s-40.334 -19 -71.001 -19h-33zM66.999 -65.9971l52 79h37l-52 -79h-37z" />
    <glyph glyph-name="uni00B9" unicode="&#xb9;" horiz-adv-x="455" 
d="M201 280v478l-125 -30v50l131 47h64v-545h-70zM68 280v61h336v-61h-336z" />
    <glyph glyph-name="ordmasculine" unicode="&#xba;" horiz-adv-x="431" 
d="M49 264v42h333v-42h-333zM110 557c0 -44 4 -76.5 12 -97.5s19.833 -34.833 35.5 -41.5s34.834 -10 57.501 -10s41.834 3.33301 57.501 10s27.667 20.5 36 41.5s12.5 53.5 12.5 97.5s-4.16699 76.333 -12.5 97s-20.333 34.167 -36 40.5s-34.834 9.5 -57.501 9.5
s-41.834 -3.16699 -57.501 -9.5s-27.5 -19.833 -35.5 -40.5s-12 -53 -12 -97zM40 556c0 55.333 6.33496 97.333 19.002 126s32 48.334 58 59.001s58.667 16 98 16c40 0 72.833 -5.5 98.5 -16.5s45 -30.833 58 -59.5s19.5 -70.334 19.5 -125.001
c0 -53.333 -6.33301 -94.5 -19 -123.5s-31.834 -49 -57.501 -60s-58.834 -16.5 -99.501 -16.5c-39.333 0 -72 5.66699 -98 17s-45.333 31.5 -58 60.5s-19 69.833 -19 122.5z" />
    <glyph glyph-name="guillemotright" unicode="&#xbb;" horiz-adv-x="611" 
d="M93 65l-41 43l171 169l-174 170l43 42l215 -212zM343 65l-41 43l171 169l-174 170l43 42l215 -212z" />
    <glyph glyph-name="onequarter" unicode="&#xbc;" horiz-adv-x="1275" 
d="M420 0l376 770h58l-375 -770h-59zM1093 1v132h-254l-11 46l196 361h71l-190 -349h188v126l17 64h50v-190h71v-47l-71 -11v-132h-67zM208 280v478l-125 -30v50l131 47h64v-545h-70zM75 280v61h336v-61h-336z" />
    <glyph glyph-name="onehalf" unicode="&#xbd;" horiz-adv-x="1275" 
d="M420 0l376 770h58l-375 -770h-59zM843 0l-0.000976562 53l196 189c28.667 28 49.167 53.667 61.5 77s18.5 49 18.5 77c0 16 -3 30.333 -9 43s-17 22.667 -33 30s-38.667 11 -68 11h-147v52c22 2.66699 46.833 5.33398 74.5 8.00098s56.834 4 87.501 4
c42 0 75.167 -5.83301 99.5 -17.5s41.5 -27.834 51.5 -48.501s15 -45.334 15 -74.001c0 -25.333 -3.16699 -48.166 -9.5 -68.499s-16.833 -40.5 -31.5 -60.5s-34 -42 -58 -66l-153 -146h272v-63h-367zM207.999 280v478l-125 -30v50l131 47h64v-545h-70zM74.999 280v61h336
v-61h-336z" />
    <glyph glyph-name="threequarters" unicode="&#xbe;" horiz-adv-x="1275" 
d="M420 0l376 770h58l-375 -770h-59zM1093 1v132h-254l-11 46l196 361h71l-190 -349h188v126l17 64h50v-190h71v-47l-71 -11v-132h-67zM247 276c-38.667 0 -74.498 0.835938 -107.498 2.50293s-62.5 4.5 -88.5 8.5v53h175c21.333 0 40 2.16699 56 6.5s28.667 12 38 23
s14 26.5 14 46.5v33c0 18 -4.5 32.167 -13.5 42.5s-20.5 17.666 -34.5 21.999s-28.333 6.83301 -43 7.5l-137 6v51l134 5c26 1.33301 46.833 6.83301 62.5 16.5s23.5 26.167 23.5 49.5v34c0 24.667 -8.5 43.667 -25.5 57s-43.5 20 -79.5 20h-152v53
c23.333 4 49.666 7 78.999 9s62.666 2.66699 99.999 2c48.667 0 85.334 -11.5 110.001 -34.5s37 -54.167 37 -93.5v-45c0 -21.333 -4.16699 -38.833 -12.5 -52.5s-18.5 -24.167 -30.5 -31.5s-23.333 -12.333 -34 -15c12 -2.66699 24.667 -8.33398 38 -17.001
s24.666 -20.334 33.999 -35.001s14 -33.667 14 -57v-36c0 -42 -13.833 -74.333 -41.5 -97s-66.167 -34 -115.5 -34z" />
    <glyph glyph-name="questiondown" unicode="&#xbf;" horiz-adv-x="531" 
d="M361 335l-0.000976562 -156.997h-50c-54 0 -93 -8.16699 -117 -24.5s-36 -46.5 -36 -90.5v-59c0 -50.667 10.833 -86.334 32.5 -107.001s56.167 -31 103.5 -31c34 0 66 3.16699 96 9.5s62 16.166 96 29.499v-57c-30.667 -18 -63.667 -31.167 -99 -39.5
s-73 -12.833 -113 -13.5c-48 -0.666992 -86.167 7.16602 -114.5 23.499s-49 39.333 -62 69s-19.5 64.834 -19.5 105.501v71c0 59.333 17.333 103.666 52 132.999s91.334 44 170.001 44v94h61zM352.999 535.003c10.667 0 16 -5.33301 16 -16v-80
c0 -10.667 -5.33301 -16 -16 -16h-44c-10.667 0 -16 5.33301 -16 16v80c0 5.33301 1.5 9.33301 4.5 12s6.83301 4 11.5 4h44z" />
    <glyph glyph-name="Agrave" unicode="&#xc0;" horiz-adv-x="674" 
d="M34 0l252 736h102l252 -736h-82l-74 210h-296l-72 -210h-82zM208 282h256l-127 384zM320 791l-125 136h67l104 -136h-46z" />
    <glyph glyph-name="Aacute" unicode="&#xc1;" horiz-adv-x="674" 
d="M34 0l252 736h102l252 -736h-82l-74 210h-296l-72 -210h-82zM208 282h256l-127 384zM318 791l104 136h67l-125 -136h-46z" />
    <glyph glyph-name="Acircumflex" unicode="&#xc2;" horiz-adv-x="674" 
d="M34 0l252 736h102l252 -736h-82l-74 210h-296l-72 -210h-82zM208 282h256l-127 384zM190 791l122 135h56l110 -135h-48l-92 97l-99 -97h-49z" />
    <glyph glyph-name="Atilde" unicode="&#xc3;" horiz-adv-x="674" 
d="M34 0l252 736h102l252 -736h-82l-74 210h-296l-72 -210h-82zM208 282h256l-127 384zM165 807c0.666992 26.667 5.66797 47.666 15.001 62.999s21.333 26.5 36 33.5s29.667 10.5 45 10.5c16 0 30.667 -3.16699 44 -9.5s26.166 -13.5 38.499 -21.5s24.333 -15 36 -21
s23.834 -9 36.501 -9c17.333 0 31.666 5.33301 42.999 16s17.333 26.334 18 47.001h40c-0.666992 -34 -9.33398 -60.667 -26.001 -80s-40 -29 -70 -29c-15.333 0 -29.666 3.16699 -42.999 9.5s-26.333 13.5 -39 21.5s-25 15.167 -37 21.5s-24.333 9.5 -37 9.5
c-16 0 -29.833 -5 -41.5 -15s-17.5 -25.667 -17.5 -47h-41z" />
    <glyph glyph-name="Adieresis" unicode="&#xc4;" horiz-adv-x="674" 
d="M34 0l252 736h102l252 -736h-82l-74 210h-296l-72 -210h-82zM208 282h256l-127 384zM429 813c-10.667 0 -16.001 5.33301 -16.001 16v78c0 10.667 5.33301 16 16 16h37c4.66699 0 8.33398 -1.5 11.001 -4.5s4 -6.83301 4 -11.5v-78c0 -10.667 -5 -16 -15 -16h-37z
M192.999 813c-10.667 0 -16 5.33301 -16 16v78c0 10.667 5.33301 16 16 16h37c5.33301 0 9.33301 -1.5 12 -4.5s4 -6.83301 4 -11.5v-78c0 -10.667 -5.33301 -16 -16 -16h-37z" />
    <glyph glyph-name="Aring" unicode="&#xc5;" horiz-adv-x="674" 
d="M34 0l252 736h102l252 -736h-82l-74 210h-296l-72 -210h-82zM208 282h256l-127 384zM338 763c-36 0 -63.667 7.83301 -83 23.5s-29 43.5 -29 83.5c0 40.667 9.66699 68.834 29 84.501s47 23.5 83 23.5c36.667 0 64.167 -7.83301 82.5 -23.5s27.5 -43.834 27.5 -84.501
c0 -40 -9.16699 -67.833 -27.5 -83.5s-45.833 -23.5 -82.5 -23.5zM338 797c24.667 0 42.5 5 53.5 15s16.5 29.333 16.5 58c0 29.333 -5.5 49.166 -16.5 59.499s-28.833 15.5 -53.5 15.5c-24 0 -42.167 -5.16699 -54.5 -15.5s-18.5 -30.166 -18.5 -59.499
c0 -28.667 6.16699 -48 18.5 -58s30.5 -15 54.5 -15z" />
    <glyph glyph-name="AE" unicode="&#xc6;" horiz-adv-x="964" 
d="M635 -4c-47.333 -0.666992 -84.499 7.83203 -111.499 25.499s-41.5 49.834 -43.5 96.501v91h-238l-129 -209h-79l356 601c18 31.333 37.167 57 57.5 77s44.166 34.667 71.499 44s59.666 14 96.999 14c52 -0.666992 102.833 -2 152.5 -4s95.5 -4 137.5 -6v-63h-281
c-27.333 0 -46.166 -5.5 -56.499 -16.5s-15.5 -27.833 -15.5 -50.5v-195l310 -5v-61l-310 -5v-173c0 -22 3.83301 -39.333 11.5 -52s18.667 -21.667 33 -27s31.166 -8 50.499 -8h258v-63c-42.667 -2.66699 -86.167 -5 -130.5 -7s-91.166 -3.33301 -140.499 -4z
M279.001 276.999h201v338z" />
    <glyph glyph-name="Ccedilla" unicode="&#xc7;" horiz-adv-x="581" 
d="M318 -6c-44 0 -82.3359 5.00293 -115.003 15.0029s-59.667 28.167 -81 54.5s-37.166 64.166 -47.499 113.499s-15.5 113.666 -15.5 192.999c0 74.667 5.33301 136.167 16 184.5s26.834 86.166 48.501 113.499s49.167 46.5 82.5 57.5s72.666 16.5 117.999 16.5
c20.667 0 43.667 -1.33301 69 -4s50.333 -5.83398 75 -9.50098s47 -8.16699 67 -13.5v-59c-11.333 2 -27.333 4 -48 6s-44.167 3.83301 -70.5 5.5s-53.166 2.5 -80.499 2.5c-35.333 0 -65.666 -4 -90.999 -12s-45.833 -22.833 -61.5 -44.5s-27.167 -52.167 -34.5 -91.5
s-11 -90.333 -11 -153c0 -63.333 3.5 -115.166 10.5 -155.499s18.167 -71.166 33.5 -92.499s35.333 -36 60 -44s55.334 -12 92.001 -12c50 0 91 1.33301 123 4s58 5.66699 78 9v-60c-20 -4.66699 -42.167 -8.83398 -66.5 -12.501s-49.333 -6.5 -75 -8.5
s-50.834 -3 -75.501 -3zM262.997 -189.997l-0.000976562 33.0029l22 2c18.667 2 32.667 6.5 42 13.5s14 17.5 14 31.5c0 11.333 -4.16699 21.166 -12.5 29.499s-26.166 13.166 -53.499 14.499l33 12c28.667 0 49.834 -5.33301 63.501 -16s20.5 -26.667 20.5 -48
c0 -22.667 -8.33301 -40.334 -25 -53.001s-40.334 -19 -71.001 -19h-33zM274.996 -65.9941l52 79h37l-52 -79h-37z" />
    <glyph glyph-name="Egrave" unicode="&#xc8;" horiz-adv-x="587" 
d="M233 -4c-16 0 -32.9961 1.50098 -50.9961 4.50098s-35 9.16699 -51 18.5s-29 23.5 -39 42.5s-15 44.833 -15 77.5v449c0 28.667 4.16699 52.5 12.5 71.5s19.5 34 33.5 45s29.667 19 47 24s34.666 7.5 51.999 7.5c41.333 -0.666992 79.666 -1.5 114.999 -2.5
s68.833 -2 100.5 -3s62.5 -2.16699 92.5 -3.5v-64h-288c-26 0 -46.667 -7 -62 -21s-23 -36.333 -23 -67v-174l329 -5v-61l-329 -5v-173c0 -24.667 4.16699 -43.334 12.5 -56.001s19.5 -21 33.5 -25s28.333 -6 43 -6h284v-64c-30.667 -2 -62.834 -3.66699 -96.501 -5
s-67.334 -2.33301 -101.001 -3zM294.004 791.001l-125 136h67l104 -136h-46z" />
    <glyph glyph-name="Eacute" unicode="&#xc9;" horiz-adv-x="587" 
d="M233 -4c-16 0 -32.9961 1.50098 -50.9961 4.50098s-35 9.16699 -51 18.5s-29 23.5 -39 42.5s-15 44.833 -15 77.5v449c0 28.667 4.16699 52.5 12.5 71.5s19.5 34 33.5 45s29.667 19 47 24s34.666 7.5 51.999 7.5c41.333 -0.666992 79.666 -1.5 114.999 -2.5
s68.833 -2 100.5 -3s62.5 -2.16699 92.5 -3.5v-64h-288c-26 0 -46.667 -7 -62 -21s-23 -36.333 -23 -67v-174l329 -5v-61l-329 -5v-173c0 -24.667 4.16699 -43.334 12.5 -56.001s19.5 -21 33.5 -25s28.333 -6 43 -6h284v-64c-30.667 -2 -62.834 -3.66699 -96.501 -5
s-67.334 -2.33301 -101.001 -3zM292.004 791.001l104 136h67l-125 -136h-46z" />
    <glyph glyph-name="Ecircumflex" unicode="&#xca;" horiz-adv-x="587" 
d="M233 -4c-16 0 -32.9961 1.50098 -50.9961 4.50098s-35 9.16699 -51 18.5s-29 23.5 -39 42.5s-15 44.833 -15 77.5v449c0 28.667 4.16699 52.5 12.5 71.5s19.5 34 33.5 45s29.667 19 47 24s34.666 7.5 51.999 7.5c41.333 -0.666992 79.666 -1.5 114.999 -2.5
s68.833 -2 100.5 -3s62.5 -2.16699 92.5 -3.5v-64h-288c-26 0 -46.667 -7 -62 -21s-23 -36.333 -23 -67v-174l329 -5v-61l-329 -5v-173c0 -24.667 4.16699 -43.334 12.5 -56.001s19.5 -21 33.5 -25s28.333 -6 43 -6h284v-64c-30.667 -2 -62.834 -3.66699 -96.501 -5
s-67.334 -2.33301 -101.001 -3zM164.004 791.001l122 135h56l110 -135h-48l-92 97l-99 -97h-49z" />
    <glyph glyph-name="Edieresis" unicode="&#xcb;" horiz-adv-x="587" 
d="M233 -4c-16 0 -32.9961 1.50098 -50.9961 4.50098s-35 9.16699 -51 18.5s-29 23.5 -39 42.5s-15 44.833 -15 77.5v449c0 28.667 4.16699 52.5 12.5 71.5s19.5 34 33.5 45s29.667 19 47 24s34.666 7.5 51.999 7.5c41.333 -0.666992 79.666 -1.5 114.999 -2.5
s68.833 -2 100.5 -3s62.5 -2.16699 92.5 -3.5v-64h-288c-26 0 -46.667 -7 -62 -21s-23 -36.333 -23 -67v-174l329 -5v-61l-329 -5v-173c0 -24.667 4.16699 -43.334 12.5 -56.001s19.5 -21 33.5 -25s28.333 -6 43 -6h284v-64c-30.667 -2 -62.834 -3.66699 -96.501 -5
s-67.334 -2.33301 -101.001 -3zM403.004 813.001c-10.667 0 -16.001 5.33301 -16.001 16v78c0 10.667 5.33301 16 16 16h37c4.66699 0 8.33398 -1.5 11.001 -4.5s4 -6.83301 4 -11.5v-78c0 -10.667 -5 -16 -15 -16h-37zM167.003 813.001c-10.667 0 -16 5.33301 -16 16v78
c0 10.667 5.33301 16 16 16h37c5.33301 0 9.33301 -1.5 12 -4.5s4 -6.83301 4 -11.5v-78c0 -10.667 -5.33301 -16 -16 -16h-37z" />
    <glyph glyph-name="Igrave" unicode="&#xcc;" horiz-adv-x="234" 
d="M77 0v736h80v-736h-80zM100 791l-125 136h67l104 -136h-46z" />
    <glyph glyph-name="Iacute" unicode="&#xcd;" horiz-adv-x="234" 
d="M77 0v736h80v-736h-80zM98 791l104 136h67l-125 -136h-46z" />
    <glyph glyph-name="Icircumflex" unicode="&#xce;" horiz-adv-x="234" 
d="M77 0v736h80v-736h-80zM-30 791l122 135h56l110 -135h-48l-92 97l-99 -97h-49z" />
    <glyph glyph-name="Idieresis" unicode="&#xcf;" horiz-adv-x="234" 
d="M77 0v736h80v-736h-80zM209 813c-10.667 0 -16.001 5.33301 -16.001 16v78c0 10.667 5.33301 16 16 16h37c4.66699 0 8.33398 -1.5 11.001 -4.5s4 -6.83301 4 -11.5v-78c0 -10.667 -5 -16 -15 -16h-37zM-27.001 813c-10.667 0 -16 5.33301 -16 16v78
c0 10.667 5.33301 16 16 16h37c5.33301 0 9.33301 -1.5 12 -4.5s4 -6.83301 4 -11.5v-78c0 -10.667 -5.33301 -16 -16 -16h-37z" />
    <glyph glyph-name="Eth" unicode="&#xd0;" horiz-adv-x="669" 
d="M15 345v55h310v-55h-310zM77 0l-0.000976562 736h291c44.667 0 82.334 -8.16699 113.001 -24.5s55.5 -40.166 74.5 -71.499s32.833 -69.833 41.5 -115.5s13 -97.834 13 -156.501c0 -77.333 -9 -143.333 -27 -198s-45 -96.667 -81 -126s-80.667 -44 -134 -44h-291z
M156.999 71l205 0.000976562c39.333 0 71.333 12.167 96 36.5s43 58.666 55 102.999s18 96.833 18 157.5c0 54.667 -3.33301 100.834 -10 138.501s-16.834 68.167 -30.501 91.5s-31.167 40.166 -52.5 50.499s-46.666 15.5 -75.999 15.5h-205v-593z" />
    <glyph glyph-name="Ntilde" unicode="&#xd1;" horiz-adv-x="683" 
d="M91 0v736h65l384 -599v599h79v-736h-65l-384 599v-599h-79zM168 807c0.666992 26.667 5.66797 47.666 15.001 62.999s21.333 26.5 36 33.5s29.667 10.5 45 10.5c16 0 30.667 -3.16699 44 -9.5s26.166 -13.5 38.499 -21.5s24.333 -15 36 -21s23.834 -9 36.501 -9
c17.333 0 31.666 5.33301 42.999 16s17.333 26.334 18 47.001h40c-0.666992 -34 -9.33398 -60.667 -26.001 -80s-40 -29 -70 -29c-15.333 0 -29.666 3.16699 -42.999 9.5s-26.333 13.5 -39 21.5s-25 15.167 -37 21.5s-24.333 9.5 -37 9.5c-16 0 -29.833 -5 -41.5 -15
s-17.5 -25.667 -17.5 -47h-41z" />
    <glyph glyph-name="Ograve" unicode="&#xd2;" horiz-adv-x="686" 
d="M343 -6c-47.333 0 -88.8311 4.5 -124.498 13.5s-65.334 26.167 -89.001 51.5s-41.334 62.666 -53.001 111.999s-17.5 114 -17.5 194s6 144.833 18 194.5s30 87.667 54 114s53.667 44.333 89 54s76.333 14.5 123 14.5c48 0 89.833 -4.83301 125.5 -14.5
s65.334 -27.667 89.001 -54s41.167 -64.333 52.5 -114s17 -114.5 17 -194.5s-5.83301 -144.667 -17.5 -194s-29.334 -86.666 -53.001 -111.999s-53.167 -42.5 -88.5 -51.5s-77 -13.5 -125 -13.5zM343.002 65c37.333 0 69.002 3.66699 95.002 11s47.167 21.5 63.5 42.5
s28.166 51.167 35.499 90.5s11 91.333 11 156c0 67.333 -3.83301 121.333 -11.5 162s-19.667 71.334 -36 92.001s-37.333 34.334 -63 41.001s-57.167 10 -94.5 10c-34.667 0 -64.834 -3.33301 -90.501 -10s-47 -20.334 -64 -41.001s-29.667 -51.334 -38 -92.001
s-12.5 -94.667 -12.5 -162c0 -64.667 3.5 -116.667 10.5 -156s18.5 -69.5 34.5 -90.5s37.167 -35.167 63.5 -42.5s58.5 -11 96.5 -11zM326.004 791l-125 136h67l104 -136h-46z" />
    <glyph glyph-name="Oacute" unicode="&#xd3;" horiz-adv-x="686" 
d="M343 -6c-47.333 0 -88.8311 4.5 -124.498 13.5s-65.334 26.167 -89.001 51.5s-41.334 62.666 -53.001 111.999s-17.5 114 -17.5 194s6 144.833 18 194.5s30 87.667 54 114s53.667 44.333 89 54s76.333 14.5 123 14.5c48 0 89.833 -4.83301 125.5 -14.5
s65.334 -27.667 89.001 -54s41.167 -64.333 52.5 -114s17 -114.5 17 -194.5s-5.83301 -144.667 -17.5 -194s-29.334 -86.666 -53.001 -111.999s-53.167 -42.5 -88.5 -51.5s-77 -13.5 -125 -13.5zM343.002 65c37.333 0 69.002 3.66699 95.002 11s47.167 21.5 63.5 42.5
s28.166 51.167 35.499 90.5s11 91.333 11 156c0 67.333 -3.83301 121.333 -11.5 162s-19.667 71.334 -36 92.001s-37.333 34.334 -63 41.001s-57.167 10 -94.5 10c-34.667 0 -64.834 -3.33301 -90.501 -10s-47 -20.334 -64 -41.001s-29.667 -51.334 -38 -92.001
s-12.5 -94.667 -12.5 -162c0 -64.667 3.5 -116.667 10.5 -156s18.5 -69.5 34.5 -90.5s37.167 -35.167 63.5 -42.5s58.5 -11 96.5 -11zM324.004 791l104 136h67l-125 -136h-46z" />
    <glyph glyph-name="Ocircumflex" unicode="&#xd4;" horiz-adv-x="686" 
d="M343 -6c-47.333 0 -88.8311 4.5 -124.498 13.5s-65.334 26.167 -89.001 51.5s-41.334 62.666 -53.001 111.999s-17.5 114 -17.5 194s6 144.833 18 194.5s30 87.667 54 114s53.667 44.333 89 54s76.333 14.5 123 14.5c48 0 89.833 -4.83301 125.5 -14.5
s65.334 -27.667 89.001 -54s41.167 -64.333 52.5 -114s17 -114.5 17 -194.5s-5.83301 -144.667 -17.5 -194s-29.334 -86.666 -53.001 -111.999s-53.167 -42.5 -88.5 -51.5s-77 -13.5 -125 -13.5zM343.002 65c37.333 0 69.002 3.66699 95.002 11s47.167 21.5 63.5 42.5
s28.166 51.167 35.499 90.5s11 91.333 11 156c0 67.333 -3.83301 121.333 -11.5 162s-19.667 71.334 -36 92.001s-37.333 34.334 -63 41.001s-57.167 10 -94.5 10c-34.667 0 -64.834 -3.33301 -90.501 -10s-47 -20.334 -64 -41.001s-29.667 -51.334 -38 -92.001
s-12.5 -94.667 -12.5 -162c0 -64.667 3.5 -116.667 10.5 -156s18.5 -69.5 34.5 -90.5s37.167 -35.167 63.5 -42.5s58.5 -11 96.5 -11zM196.004 791l122 135h56l110 -135h-48l-92 97l-99 -97h-49z" />
    <glyph glyph-name="Otilde" unicode="&#xd5;" horiz-adv-x="686" 
d="M343 -6c-47.333 0 -88.8311 4.5 -124.498 13.5s-65.334 26.167 -89.001 51.5s-41.334 62.666 -53.001 111.999s-17.5 114 -17.5 194s6 144.833 18 194.5s30 87.667 54 114s53.667 44.333 89 54s76.333 14.5 123 14.5c48 0 89.833 -4.83301 125.5 -14.5
s65.334 -27.667 89.001 -54s41.167 -64.333 52.5 -114s17 -114.5 17 -194.5s-5.83301 -144.667 -17.5 -194s-29.334 -86.666 -53.001 -111.999s-53.167 -42.5 -88.5 -51.5s-77 -13.5 -125 -13.5zM343.002 65c37.333 0 69.002 3.66699 95.002 11s47.167 21.5 63.5 42.5
s28.166 51.167 35.499 90.5s11 91.333 11 156c0 67.333 -3.83301 121.333 -11.5 162s-19.667 71.334 -36 92.001s-37.333 34.334 -63 41.001s-57.167 10 -94.5 10c-34.667 0 -64.834 -3.33301 -90.501 -10s-47 -20.334 -64 -41.001s-29.667 -51.334 -38 -92.001
s-12.5 -94.667 -12.5 -162c0 -64.667 3.5 -116.667 10.5 -156s18.5 -69.5 34.5 -90.5s37.167 -35.167 63.5 -42.5s58.5 -11 96.5 -11zM171.004 807c0.666992 26.667 5.66797 47.666 15.001 62.999s21.333 26.5 36 33.5s29.667 10.5 45 10.5c16 0 30.667 -3.16699 44 -9.5
s26.166 -13.5 38.499 -21.5s24.333 -15 36 -21s23.834 -9 36.501 -9c17.333 0 31.666 5.33301 42.999 16s17.333 26.334 18 47.001h40c-0.666992 -34 -9.33398 -60.667 -26.001 -80s-40 -29 -70 -29c-15.333 0 -29.666 3.16699 -42.999 9.5s-26.333 13.5 -39 21.5
s-25 15.167 -37 21.5s-24.333 9.5 -37 9.5c-16 0 -29.833 -5 -41.5 -15s-17.5 -25.667 -17.5 -47h-41z" />
    <glyph glyph-name="Odieresis" unicode="&#xd6;" horiz-adv-x="686" 
d="M343 -6c-47.333 0 -88.8311 4.5 -124.498 13.5s-65.334 26.167 -89.001 51.5s-41.334 62.666 -53.001 111.999s-17.5 114 -17.5 194s6 144.833 18 194.5s30 87.667 54 114s53.667 44.333 89 54s76.333 14.5 123 14.5c48 0 89.833 -4.83301 125.5 -14.5
s65.334 -27.667 89.001 -54s41.167 -64.333 52.5 -114s17 -114.5 17 -194.5s-5.83301 -144.667 -17.5 -194s-29.334 -86.666 -53.001 -111.999s-53.167 -42.5 -88.5 -51.5s-77 -13.5 -125 -13.5zM343.002 65c37.333 0 69.002 3.66699 95.002 11s47.167 21.5 63.5 42.5
s28.166 51.167 35.499 90.5s11 91.333 11 156c0 67.333 -3.83301 121.333 -11.5 162s-19.667 71.334 -36 92.001s-37.333 34.334 -63 41.001s-57.167 10 -94.5 10c-34.667 0 -64.834 -3.33301 -90.501 -10s-47 -20.334 -64 -41.001s-29.667 -51.334 -38 -92.001
s-12.5 -94.667 -12.5 -162c0 -64.667 3.5 -116.667 10.5 -156s18.5 -69.5 34.5 -90.5s37.167 -35.167 63.5 -42.5s58.5 -11 96.5 -11zM435.004 813c-10.667 0 -16.001 5.33301 -16.001 16v78c0 10.667 5.33301 16 16 16h37c4.66699 0 8.33398 -1.5 11.001 -4.5
s4 -6.83301 4 -11.5v-78c0 -10.667 -5 -16 -15 -16h-37zM199.003 813c-10.667 0 -16 5.33301 -16 16v78c0 10.667 5.33301 16 16 16h37c5.33301 0 9.33301 -1.5 12 -4.5s4 -6.83301 4 -11.5v-78c0 -10.667 -5.33301 -16 -16 -16h-37z" />
    <glyph glyph-name="multiply" unicode="&#xd7;" horiz-adv-x="609" 
d="M439 174l47 47l-317 317l-47 -47zM169 174l-47 47l317 317l47 -47z" />
    <glyph glyph-name="Oslash" unicode="&#xd8;" horiz-adv-x="686" 
d="M72 0l485 736h58l-485 -736h-58zM343 -6c-47.333 0 -88.8311 4.5 -124.498 13.5s-65.334 26.167 -89.001 51.5s-41.334 62.666 -53.001 111.999s-17.5 114 -17.5 194s6 144.833 18 194.5s30 87.667 54 114s53.667 44.333 89 54s76.333 14.5 123 14.5
c48 0 89.833 -4.83301 125.5 -14.5s65.334 -27.667 89.001 -54s41.167 -64.333 52.5 -114s17 -114.5 17 -194.5s-5.83301 -144.667 -17.5 -194s-29.334 -86.666 -53.001 -111.999s-53.167 -42.5 -88.5 -51.5s-77 -13.5 -125 -13.5zM343.002 65
c37.333 0 69.002 3.66699 95.002 11s47.167 21.5 63.5 42.5s28.166 51.167 35.499 90.5s11 91.333 11 156c0 67.333 -3.83301 121.333 -11.5 162s-19.667 71.334 -36 92.001s-37.333 34.334 -63 41.001s-57.167 10 -94.5 10c-34.667 0 -64.834 -3.33301 -90.501 -10
s-47 -20.334 -64 -41.001s-29.667 -51.334 -38 -92.001s-12.5 -94.667 -12.5 -162c0 -64.667 3.5 -116.667 10.5 -156s18.5 -69.5 34.5 -90.5s37.167 -35.167 63.5 -42.5s58.5 -11 96.5 -11z" />
    <glyph glyph-name="Ugrave" unicode="&#xd9;" horiz-adv-x="676" 
d="M338 -6c-41.333 0 -78.666 3.66699 -111.999 11s-61.833 19.833 -85.5 37.5s-41.834 41.667 -54.501 72s-19 68.166 -19 113.499v508h80v-508c0 -42 7.5 -74.667 22.5 -98s36.833 -39.833 65.5 -49.5s63 -14.5 103 -14.5s74.333 4.83301 103 14.5s50.5 26.167 65.5 49.5
s22.5 56 22.5 98v508h80v-508c0 -45.333 -6.33301 -83.166 -19 -113.499s-30.834 -54.333 -54.501 -72s-52.167 -30.167 -85.5 -37.5s-70.666 -11 -111.999 -11zM317 791l-125 136h67l104 -136h-46z" />
    <glyph glyph-name="Uacute" unicode="&#xda;" horiz-adv-x="676" 
d="M338 -6c-41.333 0 -78.666 3.66699 -111.999 11s-61.833 19.833 -85.5 37.5s-41.834 41.667 -54.501 72s-19 68.166 -19 113.499v508h80v-508c0 -42 7.5 -74.667 22.5 -98s36.833 -39.833 65.5 -49.5s63 -14.5 103 -14.5s74.333 4.83301 103 14.5s50.5 26.167 65.5 49.5
s22.5 56 22.5 98v508h80v-508c0 -45.333 -6.33301 -83.166 -19 -113.499s-30.834 -54.333 -54.501 -72s-52.167 -30.167 -85.5 -37.5s-70.666 -11 -111.999 -11zM315 791l104 136h67l-125 -136h-46z" />
    <glyph glyph-name="Ucircumflex" unicode="&#xdb;" horiz-adv-x="676" 
d="M338 -6c-41.333 0 -78.666 3.66699 -111.999 11s-61.833 19.833 -85.5 37.5s-41.834 41.667 -54.501 72s-19 68.166 -19 113.499v508h80v-508c0 -42 7.5 -74.667 22.5 -98s36.833 -39.833 65.5 -49.5s63 -14.5 103 -14.5s74.333 4.83301 103 14.5s50.5 26.167 65.5 49.5
s22.5 56 22.5 98v508h80v-508c0 -45.333 -6.33301 -83.166 -19 -113.499s-30.834 -54.333 -54.501 -72s-52.167 -30.167 -85.5 -37.5s-70.666 -11 -111.999 -11zM187 791l122 135h56l110 -135h-48l-92 97l-99 -97h-49z" />
    <glyph glyph-name="Udieresis" unicode="&#xdc;" horiz-adv-x="676" 
d="M338 -6c-41.333 0 -78.666 3.66699 -111.999 11s-61.833 19.833 -85.5 37.5s-41.834 41.667 -54.501 72s-19 68.166 -19 113.499v508h80v-508c0 -42 7.5 -74.667 22.5 -98s36.833 -39.833 65.5 -49.5s63 -14.5 103 -14.5s74.333 4.83301 103 14.5s50.5 26.167 65.5 49.5
s22.5 56 22.5 98v508h80v-508c0 -45.333 -6.33301 -83.166 -19 -113.499s-30.834 -54.333 -54.501 -72s-52.167 -30.167 -85.5 -37.5s-70.666 -11 -111.999 -11zM426 813c-10.667 0 -16.001 5.33301 -16.001 16v78c0 10.667 5.33301 16 16 16h37
c4.66699 0 8.33398 -1.5 11.001 -4.5s4 -6.83301 4 -11.5v-78c0 -10.667 -5 -16 -15 -16h-37zM189.999 813c-10.667 0 -16 5.33301 -16 16v78c0 10.667 5.33301 16 16 16h37c5.33301 0 9.33301 -1.5 12 -4.5s4 -6.83301 4 -11.5v-78c0 -10.667 -5.33301 -16 -16 -16h-37z
" />
    <glyph glyph-name="Yacute" unicode="&#xdd;" horiz-adv-x="618" 
d="M269 0v244l-234 492h83l192 -412l192 412h80l-233 -492v-244h-80zM291 791l104 136h67l-125 -136h-46z" />
    <glyph glyph-name="Thorn" unicode="&#xde;" horiz-adv-x="560" 
d="M77 0v736h80v-135h169c22 0 44.167 -2.83301 66.5 -8.5s43 -16 62 -31s34.333 -36.833 46 -65.5s17.5 -66.667 17.5 -114s-6 -86 -18 -116s-28 -52.667 -48 -68s-41.333 -26 -64 -32s-44.334 -9 -65.001 -9c-8 0 -19.667 0.333008 -35 1s-31.666 1.66699 -48.999 3
s-33.5 2.5 -48.5 3.5s-26.167 2.16699 -33.5 3.5v-168h-80zM157 229l156 -0.000976562c23.333 0 44.5 4.33301 63.5 13s34 24.334 45 47.001s16.5 53.667 16.5 93s-5.5 69.5 -16.5 90.5s-25.5 35.667 -43.5 44s-37.333 12.5 -58 12.5h-163v-300z" />
    <glyph glyph-name="germandbls" unicode="&#xdf;" horiz-adv-x="584" 
d="M392 -7c-32 0 -62.8359 1.50293 -92.5029 4.50293s-52.834 6.5 -69.501 10.5v52l64.5 -2.5c25.667 -1 52.5 -1.5 80.5 -1.5c30.667 0 53.834 4.66699 69.501 14s26.334 20.666 32.001 33.999s8.5 25.333 8.5 36v23c0 15.333 -4.83301 27.5 -14.5 36.5s-22 16.5 -37 22.5
s-31 11.833 -48 17.5s-33 12.334 -48 20.001s-27.5 18.167 -37.5 31.5s-15 30.666 -15 51.999c0 22.667 5.16699 42.5 15.5 59.5s23 32.833 38 47.5l45 44c15 14.667 27.5 30.167 37.5 46.5s15 34.833 15 55.5c0 36 -12.167 62.5 -36.5 79.5s-59.166 25.5 -104.499 25.5
c-48.667 0 -85.834 -13.5 -111.501 -40.5s-38.5 -66.833 -38.5 -119.5v-541h-79v548c0 40.667 8.16699 77.667 24.5 111s41.333 59.666 75 78.999s76.834 29 129.501 29s94.834 -7.5 126.501 -22.5s54.5 -35 68.5 -60s21 -52.833 21 -83.5c0 -26 -5 -48.5 -15 -67.5
s-22.333 -35.833 -37 -50.5s-29.5 -28.667 -44.5 -42s-27.667 -26.833 -38 -40.5s-15.5 -28.834 -15.5 -45.501c0 -14.667 5 -26.5 15 -35.5s22.5 -16.333 37.5 -22l48 -17.5c17 -6 33 -13.333 48 -22s27.333 -20 37 -34s14.5 -32.667 14.5 -56v-29
c0 -26 -4.5 -48.167 -13.5 -66.5s-21.667 -33.5 -38 -45.5s-34.5 -20.667 -54.5 -26s-41 -8 -63 -8z" />
    <glyph glyph-name="agrave" unicode="&#xe0;" horiz-adv-x="545" 
d="M180 -6c-39.333 0 -71.667 11.6641 -97 34.9971s-38 56.333 -38 99v38c0 42 13.833 76 41.5 102s69.5 39 125.5 39h181v66c0 22 -3.83301 40.833 -11.5 56.5s-21.334 27.834 -41.001 36.501s-48.167 13 -85.5 13h-166v47c23.333 4 50.5 7.66699 81.5 11s67.5 5 109.5 5
c43.333 0.666992 79.333 -4.66602 108 -15.999s49.834 -29.166 63.501 -53.499s20.5 -56.166 20.5 -95.499v-377h-61l-15 61c-2.66699 -2.66699 -10.834 -7.33398 -24.501 -14.001s-31 -14.167 -52 -22.5s-43.667 -15.5 -68 -21.5s-48.166 -9 -71.499 -9zM212.999 52.9971
c12 -0.666992 25.665 0.666016 40.998 3.99902s31 7.16602 47 11.499s30.833 8.83301 44.5 13.5s24.834 8.66699 33.501 12s13.334 5 14.001 5v168l-163 -7c-38 -1.33301 -65.167 -10.666 -81.5 -27.999s-24.5 -39.666 -24.5 -66.999v-24c0 -21.333 4.5 -38.5 13.5 -51.5
s20.333 -22.167 34 -27.5s27.5 -8.33301 41.5 -9zM265.997 630.997l-125 136h67l104 -136h-46z" />
    <glyph glyph-name="aacute" unicode="&#xe1;" horiz-adv-x="545" 
d="M180 -6c-39.333 0 -71.667 11.6641 -97 34.9971s-38 56.333 -38 99v38c0 42 13.833 76 41.5 102s69.5 39 125.5 39h181v66c0 22 -3.83301 40.833 -11.5 56.5s-21.334 27.834 -41.001 36.501s-48.167 13 -85.5 13h-166v47c23.333 4 50.5 7.66699 81.5 11s67.5 5 109.5 5
c43.333 0.666992 79.333 -4.66602 108 -15.999s49.834 -29.166 63.501 -53.499s20.5 -56.166 20.5 -95.499v-377h-61l-15 61c-2.66699 -2.66699 -10.834 -7.33398 -24.501 -14.001s-31 -14.167 -52 -22.5s-43.667 -15.5 -68 -21.5s-48.166 -9 -71.499 -9zM212.999 52.9971
c12 -0.666992 25.665 0.666016 40.998 3.99902s31 7.16602 47 11.499s30.833 8.83301 44.5 13.5s24.834 8.66699 33.501 12s13.334 5 14.001 5v168l-163 -7c-38 -1.33301 -65.167 -10.666 -81.5 -27.999s-24.5 -39.666 -24.5 -66.999v-24c0 -21.333 4.5 -38.5 13.5 -51.5
s20.333 -22.167 34 -27.5s27.5 -8.33301 41.5 -9zM237.997 630.997l104 136h67l-125 -136h-46z" />
    <glyph glyph-name="acircumflex" unicode="&#xe2;" horiz-adv-x="545" 
d="M180 -6c-39.333 0 -71.667 11.6641 -97 34.9971s-38 56.333 -38 99v38c0 42 13.833 76 41.5 102s69.5 39 125.5 39h181v66c0 22 -3.83301 40.833 -11.5 56.5s-21.334 27.834 -41.001 36.501s-48.167 13 -85.5 13h-166v47c23.333 4 50.5 7.66699 81.5 11s67.5 5 109.5 5
c43.333 0.666992 79.333 -4.66602 108 -15.999s49.834 -29.166 63.501 -53.499s20.5 -56.166 20.5 -95.499v-377h-61l-15 61c-2.66699 -2.66699 -10.834 -7.33398 -24.501 -14.001s-31 -14.167 -52 -22.5s-43.667 -15.5 -68 -21.5s-48.166 -9 -71.499 -9zM212.999 52.9971
c12 -0.666992 25.665 0.666016 40.998 3.99902s31 7.16602 47 11.499s30.833 8.83301 44.5 13.5s24.834 8.66699 33.501 12s13.334 5 14.001 5v168l-163 -7c-38 -1.33301 -65.167 -10.666 -81.5 -27.999s-24.5 -39.666 -24.5 -66.999v-24c0 -21.333 4.5 -38.5 13.5 -51.5
s20.333 -22.167 34 -27.5s27.5 -8.33301 41.5 -9zM122.997 630.997l122 135h56l110 -135h-48l-92 97l-99 -97h-49z" />
    <glyph glyph-name="atilde" unicode="&#xe3;" horiz-adv-x="545" 
d="M180 -6c-39.333 0 -71.667 11.6641 -97 34.9971s-38 56.333 -38 99v38c0 42 13.833 76 41.5 102s69.5 39 125.5 39h181v66c0 22 -3.83301 40.833 -11.5 56.5s-21.334 27.834 -41.001 36.501s-48.167 13 -85.5 13h-166v47c23.333 4 50.5 7.66699 81.5 11s67.5 5 109.5 5
c43.333 0.666992 79.333 -4.66602 108 -15.999s49.834 -29.166 63.501 -53.499s20.5 -56.166 20.5 -95.499v-377h-61l-15 61c-2.66699 -2.66699 -10.834 -7.33398 -24.501 -14.001s-31 -14.167 -52 -22.5s-43.667 -15.5 -68 -21.5s-48.166 -9 -71.499 -9zM212.999 52.9971
c12 -0.666992 25.665 0.666016 40.998 3.99902s31 7.16602 47 11.499s30.833 8.83301 44.5 13.5s24.834 8.66699 33.501 12s13.334 5 14.001 5v168l-163 -7c-38 -1.33301 -65.167 -10.666 -81.5 -27.999s-24.5 -39.666 -24.5 -66.999v-24c0 -21.333 4.5 -38.5 13.5 -51.5
s20.333 -22.167 34 -27.5s27.5 -8.33301 41.5 -9zM105.997 646.997c0.666992 26.667 5.66797 47.666 15.001 62.999s21.333 26.5 36 33.5s29.667 10.5 45 10.5c16 0 30.667 -3.16699 44 -9.5s26.166 -13.5 38.499 -21.5s24.333 -15 36 -21s23.834 -9 36.501 -9
c17.333 0 31.666 5.33301 42.999 16s17.333 26.334 18 47.001h40c-0.666992 -34 -9.33398 -60.667 -26.001 -80s-40 -29 -70 -29c-15.333 0 -29.666 3.16699 -42.999 9.5s-26.333 13.5 -39 21.5s-25 15.167 -37 21.5s-24.333 9.5 -37 9.5c-16 0 -29.833 -5 -41.5 -15
s-17.5 -25.667 -17.5 -47h-41z" />
    <glyph glyph-name="adieresis" unicode="&#xe4;" horiz-adv-x="545" 
d="M180 -6c-39.333 0 -71.667 11.6641 -97 34.9971s-38 56.333 -38 99v38c0 42 13.833 76 41.5 102s69.5 39 125.5 39h181v66c0 22 -3.83301 40.833 -11.5 56.5s-21.334 27.834 -41.001 36.501s-48.167 13 -85.5 13h-166v47c23.333 4 50.5 7.66699 81.5 11s67.5 5 109.5 5
c43.333 0.666992 79.333 -4.66602 108 -15.999s49.834 -29.166 63.501 -53.499s20.5 -56.166 20.5 -95.499v-377h-61l-15 61c-2.66699 -2.66699 -10.834 -7.33398 -24.501 -14.001s-31 -14.167 -52 -22.5s-43.667 -15.5 -68 -21.5s-48.166 -9 -71.499 -9zM212.999 52.9971
c12 -0.666992 25.665 0.666016 40.998 3.99902s31 7.16602 47 11.499s30.833 8.83301 44.5 13.5s24.834 8.66699 33.501 12s13.334 5 14.001 5v168l-163 -7c-38 -1.33301 -65.167 -10.666 -81.5 -27.999s-24.5 -39.666 -24.5 -66.999v-24c0 -21.333 4.5 -38.5 13.5 -51.5
s20.333 -22.167 34 -27.5s27.5 -8.33301 41.5 -9zM347.997 652.997c-10.667 0 -16 5.33301 -16 16v78c0 10.667 5.33301 16 16 16h36c5.33301 0 9.33301 -1.5 12 -4.5s4 -6.83301 4 -11.5v-78c0 -10.667 -5.33301 -16 -16 -16h-36zM152.997 652.997
c-10.667 0 -16 5.33301 -16 16v78c0 10.667 5.33301 16 16 16h36c5.33301 0 9.33301 -1.5 12 -4.5s4 -6.83301 4 -11.5v-78c0 -10.667 -5.33301 -16 -16 -16h-36z" />
    <glyph glyph-name="aring" unicode="&#xe5;" horiz-adv-x="545" 
d="M180 -6c-39.333 0 -71.667 11.6641 -97 34.9971s-38 56.333 -38 99v38c0 42 13.833 76 41.5 102s69.5 39 125.5 39h181v66c0 22 -3.83301 40.833 -11.5 56.5s-21.334 27.834 -41.001 36.501s-48.167 13 -85.5 13h-166v47c23.333 4 50.5 7.66699 81.5 11s67.5 5 109.5 5
c43.333 0.666992 79.333 -4.66602 108 -15.999s49.834 -29.166 63.501 -53.499s20.5 -56.166 20.5 -95.499v-377h-61l-15 61c-2.66699 -2.66699 -10.834 -7.33398 -24.501 -14.001s-31 -14.167 -52 -22.5s-43.667 -15.5 -68 -21.5s-48.166 -9 -71.499 -9zM212.999 52.9971
c12 -0.666992 25.665 0.666016 40.998 3.99902s31 7.16602 47 11.499s30.833 8.83301 44.5 13.5s24.834 8.66699 33.501 12s13.334 5 14.001 5v168l-163 -7c-38 -1.33301 -65.167 -10.666 -81.5 -27.999s-24.5 -39.666 -24.5 -66.999v-24c0 -21.333 4.5 -38.5 13.5 -51.5
s20.333 -22.167 34 -27.5s27.5 -8.33301 41.5 -9zM270.997 592.997c-36 0 -63.667 7.83301 -83 23.5s-29 43.5 -29 83.5c0 40.667 9.66699 68.834 29 84.501s47 23.5 83 23.5c36.667 0 64.167 -7.83301 82.5 -23.5s27.5 -43.834 27.5 -84.501
c0 -40 -9.16699 -67.833 -27.5 -83.5s-45.833 -23.5 -82.5 -23.5zM270.997 626.997c24.667 0 42.5 5 53.5 15s16.5 29.333 16.5 58c0 29.333 -5.5 49.166 -16.5 59.499s-28.833 15.5 -53.5 15.5c-24 0 -42.167 -5.16699 -54.5 -15.5s-18.5 -30.166 -18.5 -59.499
c0 -28.667 6.16699 -48 18.5 -58s30.5 -15 54.5 -15z" />
    <glyph glyph-name="ae" unicode="&#xe6;" horiz-adv-x="881" 
d="M183 -6c-30 0 -55.3281 5.83008 -75.9951 17.4971s-36 27.834 -46 48.501s-15 44.334 -15 71.001v33c0 28 6.16699 52.167 18.5 72.5s30.666 36.333 54.999 48s54.5 17.5 90.5 17.5h184v72c0 20 -3.83301 37.833 -11.5 53.5s-21 28.167 -40 37.5s-45.167 14 -78.5 14
h-174v47c25.333 4.66699 51.333 8.5 78 11.5s61 4.5 103 4.5c38.667 0.666992 73.5 -6.5 104.5 -21.5s52.5 -38.167 64.5 -69.5c13.333 33.333 35.166 56.666 65.499 69.999s66.833 20 109.5 20c46.667 0 85.167 -5.33301 115.5 -16s53 -29 68 -55s22.5 -62 22.5 -108
c0 -44.667 -13.667 -75 -41 -91s-66 -24 -116 -24h-192c0 -39.333 4.16699 -71.666 12.5 -96.999s20.333 -44.833 36 -58.5s34 -23 55 -28s44.167 -7.5 69.5 -7.5h162v-48c-30.667 -5.33301 -63.334 -9 -98.001 -11s-67 -3 -97 -3c-36 0 -66.333 5.16699 -91 15.5
s-44.834 23.833 -60.501 40.5s-28.167 34 -37.5 52c-16.667 -18.667 -37.334 -36.167 -62.001 -52.5s-52 -29.666 -82 -39.999s-62 -15.5 -96 -15.5zM214.005 52.9971c34.667 0 68.8301 7.83203 102.497 23.499s63.834 37.5 90.501 65.5
c-2.66699 10.667 -5.5 25.834 -8.5 45.501s-4.83301 43.167 -5.5 70.5l-170 -4c-36 -0.666992 -61.333 -9.83398 -76 -27.501s-22 -38.167 -22 -61.5v-23c0 -22 4.33301 -39.667 13 -53s19.834 -22.666 33.501 -27.999s27.834 -8 42.501 -8zM472.001 299.996
l190 0.000976562c17.333 0 32.5 1.66699 45.5 5s23.167 9.5 30.5 18.5s11 22.5 11 40.5c0 28 -4.5 50.333 -13.5 67s-23.5 28.834 -43.5 36.501s-47 11.5 -81 11.5c-36 0 -64 -4.83301 -84 -14.5s-34 -27.334 -42 -53.001s-12.333 -62.834 -13 -111.501z" />
    <glyph glyph-name="ccedilla" unicode="&#xe7;" horiz-adv-x="490" 
d="M270 -6c-30 0 -58.002 4.00098 -84.002 12.001s-48.667 22 -68 42s-34.333 47.667 -45 83s-16 80.333 -16 135c0 55.333 5 100.833 15 136.5s24.333 63.5 43 83.5s41.334 34 68.001 42s56.334 12 89.001 12c26.667 0 55.667 -1.16699 87 -3.5s61.333 -5.83301 90 -10.5
v-47h-156c-34 0 -62.667 -5.66699 -86 -17s-41 -32.5 -53 -63.5s-18 -75.833 -18 -134.5c0 -56.667 6.33301 -100 19 -130s30.667 -50.5 54 -61.5s51.666 -16.5 84.999 -16.5h163v-46c-15.333 -2.66699 -33.166 -5.33398 -53.499 -8.00098s-41.833 -4.66699 -64.5 -6
s-45.667 -2 -69 -2zM199.998 -189.999l-0.000976562 33.0029l22 2c18.667 2 32.667 6.5 42 13.5s14 17.5 14 31.5c0 11.333 -4.16699 21.166 -12.5 29.499s-26.166 13.166 -53.499 14.499l33 12c28.667 0 49.834 -5.33301 63.501 -16s20.5 -26.667 20.5 -48
c0 -22.667 -8.33301 -40.334 -25 -53.001s-40.334 -19 -71.001 -19h-33zM211.997 -65.9961l52 79h37l-52 -79h-37z" />
    <glyph glyph-name="egrave" unicode="&#xe8;" horiz-adv-x="541" 
d="M280 -6c-56 0 -100.168 8.33203 -132.501 24.999s-55.5 45 -69.5 85s-21 94.667 -21 164c0 70.667 7.16699 125.834 21.5 165.501s37.833 67.5 70.5 83.5s76.667 24 132 24c47.333 0 85.833 -5.33301 115.5 -16s51.667 -28.834 66 -54.501s21.5 -61.167 21.5 -106.5
c0 -31.333 -6.16699 -56.5 -18.5 -75.5s-30 -32.667 -53 -41s-50.167 -12.5 -81.5 -12.5h-195c0.666992 -43.333 5.33398 -78.166 14.001 -104.499s24.5 -45.333 47.5 -57s56.833 -17.5 101.5 -17.5h172v-48c-30.667 -4 -60.667 -7.33301 -90 -10s-63 -4 -101 -4z
M134.999 286.999h189.999c30 0 52.167 5.5 66.5 16.5s21.5 30.833 21.5 59.5c0 30.667 -4.5 54.5 -13.5 71.5s-23 29 -42 36s-44.5 10.5 -76.5 10.5c-37.333 0 -66.666 -5.5 -87.999 -16.5s-36.333 -30.5 -45 -58.5s-13 -67.667 -13 -119zM265.998 630.999l-125 136h67
l104 -136h-46z" />
    <glyph glyph-name="eacute" unicode="&#xe9;" horiz-adv-x="541" 
d="M280 -6c-56 0 -100.168 8.33203 -132.501 24.999s-55.5 45 -69.5 85s-21 94.667 -21 164c0 70.667 7.16699 125.834 21.5 165.501s37.833 67.5 70.5 83.5s76.667 24 132 24c47.333 0 85.833 -5.33301 115.5 -16s51.667 -28.834 66 -54.501s21.5 -61.167 21.5 -106.5
c0 -31.333 -6.16699 -56.5 -18.5 -75.5s-30 -32.667 -53 -41s-50.167 -12.5 -81.5 -12.5h-195c0.666992 -43.333 5.33398 -78.166 14.001 -104.499s24.5 -45.333 47.5 -57s56.833 -17.5 101.5 -17.5h172v-48c-30.667 -4 -60.667 -7.33301 -90 -10s-63 -4 -101 -4z
M134.999 286.999h189.999c30 0 52.167 5.5 66.5 16.5s21.5 30.833 21.5 59.5c0 30.667 -4.5 54.5 -13.5 71.5s-23 29 -42 36s-44.5 10.5 -76.5 10.5c-37.333 0 -66.666 -5.5 -87.999 -16.5s-36.333 -30.5 -45 -58.5s-13 -67.667 -13 -119zM237.998 630.999l104 136h67
l-125 -136h-46z" />
    <glyph glyph-name="ecircumflex" unicode="&#xea;" horiz-adv-x="541" 
d="M280 -6c-56 0 -100.168 8.33203 -132.501 24.999s-55.5 45 -69.5 85s-21 94.667 -21 164c0 70.667 7.16699 125.834 21.5 165.501s37.833 67.5 70.5 83.5s76.667 24 132 24c47.333 0 85.833 -5.33301 115.5 -16s51.667 -28.834 66 -54.501s21.5 -61.167 21.5 -106.5
c0 -31.333 -6.16699 -56.5 -18.5 -75.5s-30 -32.667 -53 -41s-50.167 -12.5 -81.5 -12.5h-195c0.666992 -43.333 5.33398 -78.166 14.001 -104.499s24.5 -45.333 47.5 -57s56.833 -17.5 101.5 -17.5h172v-48c-30.667 -4 -60.667 -7.33301 -90 -10s-63 -4 -101 -4z
M134.999 286.999h189.999c30 0 52.167 5.5 66.5 16.5s21.5 30.833 21.5 59.5c0 30.667 -4.5 54.5 -13.5 71.5s-23 29 -42 36s-44.5 10.5 -76.5 10.5c-37.333 0 -66.666 -5.5 -87.999 -16.5s-36.333 -30.5 -45 -58.5s-13 -67.667 -13 -119zM122.998 630.999l122 135h56
l110 -135h-48l-92 97l-99 -97h-49z" />
    <glyph glyph-name="edieresis" unicode="&#xeb;" horiz-adv-x="541" 
d="M280 -6c-56 0 -100.168 8.33203 -132.501 24.999s-55.5 45 -69.5 85s-21 94.667 -21 164c0 70.667 7.16699 125.834 21.5 165.501s37.833 67.5 70.5 83.5s76.667 24 132 24c47.333 0 85.833 -5.33301 115.5 -16s51.667 -28.834 66 -54.501s21.5 -61.167 21.5 -106.5
c0 -31.333 -6.16699 -56.5 -18.5 -75.5s-30 -32.667 -53 -41s-50.167 -12.5 -81.5 -12.5h-195c0.666992 -43.333 5.33398 -78.166 14.001 -104.499s24.5 -45.333 47.5 -57s56.833 -17.5 101.5 -17.5h172v-48c-30.667 -4 -60.667 -7.33301 -90 -10s-63 -4 -101 -4z
M134.999 286.999h189.999c30 0 52.167 5.5 66.5 16.5s21.5 30.833 21.5 59.5c0 30.667 -4.5 54.5 -13.5 71.5s-23 29 -42 36s-44.5 10.5 -76.5 10.5c-37.333 0 -66.666 -5.5 -87.999 -16.5s-36.333 -30.5 -45 -58.5s-13 -67.667 -13 -119zM347.998 652.999
c-10.667 0 -16 5.33301 -16 16v78c0 10.667 5.33301 16 16 16h36c5.33301 0 9.33301 -1.5 12 -4.5s4 -6.83301 4 -11.5v-78c0 -10.667 -5.33301 -16 -16 -16h-36zM152.998 652.999c-10.667 0 -16 5.33301 -16 16v78c0 10.667 5.33301 16 16 16h36
c5.33301 0 9.33301 -1.5 12 -4.5s4 -6.83301 4 -11.5v-78c0 -10.667 -5.33301 -16 -16 -16h-36z" />
    <glyph glyph-name="igrave" unicode="&#xec;" horiz-adv-x="228" 
d="M76 0v534h79v-534h-79zM111 631l-125 136h67l104 -136h-46z" />
    <glyph glyph-name="iacute" unicode="&#xed;" horiz-adv-x="228" 
d="M76 0v534h79v-534h-79zM83 631l104 136h67l-125 -136h-46z" />
    <glyph glyph-name="icircumflex" unicode="&#xee;" horiz-adv-x="228" 
d="M76 0v534h79v-534h-79zM-32 631l122 135h56l110 -135h-48l-92 97l-99 -97h-49z" />
    <glyph glyph-name="idieresis" unicode="&#xef;" horiz-adv-x="228" 
d="M76 0v534h79v-534h-79zM193 653c-10.667 0 -16 5.33301 -16 16v78c0 10.667 5.33301 16 16 16h36c5.33301 0 9.33301 -1.5 12 -4.5s4 -6.83301 4 -11.5v-78c0 -10.667 -5.33301 -16 -16 -16h-36zM-2 653c-10.667 0 -16 5.33301 -16 16v78c0 10.667 5.33301 16 16 16h36
c5.33301 0 9.33301 -1.5 12 -4.5s4 -6.83301 4 -11.5v-78c0 -10.667 -5.33301 -16 -16 -16h-36z" />
    <glyph glyph-name="eth" unicode="&#xf0;" horiz-adv-x="577" 
d="M288 -6c-38.667 0 -72.502 4.00195 -101.502 12.002s-53.167 21.833 -72.5 41.5s-33.666 47.167 -42.999 82.5s-14 80 -14 134c0 56 5 101.5 15 136.5s24.5 62.167 43.5 81.5s42.333 32.666 70 39.999s58.834 11 93.501 11c30.667 0 57.667 -3 81 -9
s43.333 -16.5 60 -31.5s29.667 -35.5 39 -61.5l27 -45.5c9.33301 -15 17.333 -32 24 -51s10 -41.167 10 -66.5c0 -56 -4.83301 -101.833 -14.5 -137.5s-24 -63.334 -43 -83.001s-43.167 -33.5 -72.5 -41.5s-63.333 -12 -102 -12zM287.998 59.002
c24.667 0 46.5 2.33301 65.5 7s34.833 14 47.5 28s22.334 34.667 29.001 62s10 63.666 10 108.999s-3.33301 81.666 -10 108.999s-16.334 47.666 -29.001 60.999s-28.5 22.333 -47.5 27s-40.833 7 -65.5 7c-25.333 0 -47.333 -2.33301 -66 -7s-34.334 -13.667 -47.001 -27
s-22.334 -33.666 -29.001 -60.999s-10 -63.666 -10 -108.999s3.33301 -81.666 10 -108.999s16.334 -48 29.001 -62s28.334 -23.333 47.001 -28s40.667 -7 66 -7zM519.998 267.002l-72.001 23c0 80 -6.66699 146.5 -20 199.5s-32.833 95.333 -58.5 127
s-57.167 55.167 -94.5 70.5s-79.666 25 -126.999 29v51c60 -4 113 -15 159 -33s84.833 -46 116.5 -84s55.667 -88.167 72 -150.5s24.5 -139.833 24.5 -232.5zM182.997 583.002l-11 29l335 131l12 -30z" />
    <glyph glyph-name="ntilde" unicode="&#xf1;" horiz-adv-x="588" 
d="M76 0v534h62l17 -59c25.333 18 55 33.833 89 47.5s69.333 20.5 106 20.5c39.333 0 71 -8.33301 95 -25s41.667 -38.667 53 -66s17 -57 17 -89v-363h-79v354c0 22.667 -4.5 42.834 -13.5 60.501s-21.667 31.5 -38 41.5s-36.5 15 -60.5 15c-22 0 -42.5 -2.16699 -61.5 -6.5
s-37 -10.333 -54 -18s-34.833 -16.834 -53.5 -27.501v-419h-79zM129 647c0.666992 26.667 5.66797 47.666 15.001 62.999s21.333 26.5 36 33.5s29.667 10.5 45 10.5c16 0 30.667 -3.16699 44 -9.5s26.166 -13.5 38.499 -21.5s24.333 -15 36 -21s23.834 -9 36.501 -9
c17.333 0 31.666 5.33301 42.999 16s17.333 26.334 18 47.001h40c-0.666992 -34 -9.33398 -60.667 -26.001 -80s-40 -29 -70 -29c-15.333 0 -29.666 3.16699 -42.999 9.5s-26.333 13.5 -39 21.5s-25 15.167 -37 21.5s-24.333 9.5 -37 9.5c-16 0 -29.833 -5 -41.5 -15
s-17.5 -25.667 -17.5 -47h-41z" />
    <glyph glyph-name="ograve" unicode="&#xf2;" horiz-adv-x="577" 
d="M288 -6c-38.667 0 -72.5 4 -101.5 12s-53.167 22 -72.5 42s-33.666 47.833 -42.999 83.5s-14 81.167 -14 136.5c0 56 4.66699 101.833 14 137.5s23.666 63.334 42.999 83.001s43.5 33.334 72.5 41.001s62.833 11.5 101.5 11.5s72.5 -4 101.5 -12
s53.167 -21.833 72.5 -41.5s33.833 -47.334 43.5 -83.001s14.5 -81.167 14.5 -136.5c0 -56 -4.83301 -101.833 -14.5 -137.5s-24 -63.334 -43 -83.001s-43.167 -33.5 -72.5 -41.5s-63.333 -12 -102 -12zM288 59c24.667 0 46.5 2.33301 65.5 7s34.833 14 47.5 28
s22.334 35 29.001 63s10 65 10 111c0 46.667 -3.33301 83.667 -10 111s-16.334 48 -29.001 62s-28.5 23.333 -47.5 28s-40.833 7 -65.5 7c-25.333 0 -47.333 -2.33301 -66 -7s-34.334 -14 -47.001 -28s-22.334 -34.667 -29.001 -62s-10 -64.333 -10 -111
c0 -46 3.33301 -83 10 -111s16.334 -49 29.001 -63s28.334 -23.333 47.001 -28s40.667 -7 66 -7zM284 631l-125 136h67l104 -136h-46z" />
    <glyph glyph-name="oacute" unicode="&#xf3;" horiz-adv-x="577" 
d="M288 -6c-38.667 0 -72.5 4 -101.5 12s-53.167 22 -72.5 42s-33.666 47.833 -42.999 83.5s-14 81.167 -14 136.5c0 56 4.66699 101.833 14 137.5s23.666 63.334 42.999 83.001s43.5 33.334 72.5 41.001s62.833 11.5 101.5 11.5s72.5 -4 101.5 -12
s53.167 -21.833 72.5 -41.5s33.833 -47.334 43.5 -83.001s14.5 -81.167 14.5 -136.5c0 -56 -4.83301 -101.833 -14.5 -137.5s-24 -63.334 -43 -83.001s-43.167 -33.5 -72.5 -41.5s-63.333 -12 -102 -12zM288 59c24.667 0 46.5 2.33301 65.5 7s34.833 14 47.5 28
s22.334 35 29.001 63s10 65 10 111c0 46.667 -3.33301 83.667 -10 111s-16.334 48 -29.001 62s-28.5 23.333 -47.5 28s-40.833 7 -65.5 7c-25.333 0 -47.333 -2.33301 -66 -7s-34.334 -14 -47.001 -28s-22.334 -34.667 -29.001 -62s-10 -64.333 -10 -111
c0 -46 3.33301 -83 10 -111s16.334 -49 29.001 -63s28.334 -23.333 47.001 -28s40.667 -7 66 -7zM256 631l104 136h67l-125 -136h-46z" />
    <glyph glyph-name="ocircumflex" unicode="&#xf4;" horiz-adv-x="577" 
d="M288 -6c-38.667 0 -72.5 4 -101.5 12s-53.167 22 -72.5 42s-33.666 47.833 -42.999 83.5s-14 81.167 -14 136.5c0 56 4.66699 101.833 14 137.5s23.666 63.334 42.999 83.001s43.5 33.334 72.5 41.001s62.833 11.5 101.5 11.5s72.5 -4 101.5 -12
s53.167 -21.833 72.5 -41.5s33.833 -47.334 43.5 -83.001s14.5 -81.167 14.5 -136.5c0 -56 -4.83301 -101.833 -14.5 -137.5s-24 -63.334 -43 -83.001s-43.167 -33.5 -72.5 -41.5s-63.333 -12 -102 -12zM288 59c24.667 0 46.5 2.33301 65.5 7s34.833 14 47.5 28
s22.334 35 29.001 63s10 65 10 111c0 46.667 -3.33301 83.667 -10 111s-16.334 48 -29.001 62s-28.5 23.333 -47.5 28s-40.833 7 -65.5 7c-25.333 0 -47.333 -2.33301 -66 -7s-34.334 -14 -47.001 -28s-22.334 -34.667 -29.001 -62s-10 -64.333 -10 -111
c0 -46 3.33301 -83 10 -111s16.334 -49 29.001 -63s28.334 -23.333 47.001 -28s40.667 -7 66 -7zM141 631l122 135h56l110 -135h-48l-92 97l-99 -97h-49z" />
    <glyph glyph-name="otilde" unicode="&#xf5;" horiz-adv-x="577" 
d="M288 -6c-38.667 0 -72.5 4 -101.5 12s-53.167 22 -72.5 42s-33.666 47.833 -42.999 83.5s-14 81.167 -14 136.5c0 56 4.66699 101.833 14 137.5s23.666 63.334 42.999 83.001s43.5 33.334 72.5 41.001s62.833 11.5 101.5 11.5s72.5 -4 101.5 -12
s53.167 -21.833 72.5 -41.5s33.833 -47.334 43.5 -83.001s14.5 -81.167 14.5 -136.5c0 -56 -4.83301 -101.833 -14.5 -137.5s-24 -63.334 -43 -83.001s-43.167 -33.5 -72.5 -41.5s-63.333 -12 -102 -12zM288 59c24.667 0 46.5 2.33301 65.5 7s34.833 14 47.5 28
s22.334 35 29.001 63s10 65 10 111c0 46.667 -3.33301 83.667 -10 111s-16.334 48 -29.001 62s-28.5 23.333 -47.5 28s-40.833 7 -65.5 7c-25.333 0 -47.333 -2.33301 -66 -7s-34.334 -14 -47.001 -28s-22.334 -34.667 -29.001 -62s-10 -64.333 -10 -111
c0 -46 3.33301 -83 10 -111s16.334 -49 29.001 -63s28.334 -23.333 47.001 -28s40.667 -7 66 -7zM123 647c0.666992 26.667 5.66797 47.666 15.001 62.999s21.333 26.5 36 33.5s29.667 10.5 45 10.5c16 0 30.667 -3.16699 44 -9.5s26.166 -13.5 38.499 -21.5
s24.333 -15 36 -21s23.834 -9 36.501 -9c17.333 0 31.666 5.33301 42.999 16s17.333 26.334 18 47.001h40c-0.666992 -34 -9.33398 -60.667 -26.001 -80s-40 -29 -70 -29c-15.333 0 -29.666 3.16699 -42.999 9.5s-26.333 13.5 -39 21.5s-25 15.167 -37 21.5
s-24.333 9.5 -37 9.5c-16 0 -29.833 -5 -41.5 -15s-17.5 -25.667 -17.5 -47h-41z" />
    <glyph glyph-name="odieresis" unicode="&#xf6;" horiz-adv-x="577" 
d="M288 -6c-38.667 0 -72.5 4 -101.5 12s-53.167 22 -72.5 42s-33.666 47.833 -42.999 83.5s-14 81.167 -14 136.5c0 56 4.66699 101.833 14 137.5s23.666 63.334 42.999 83.001s43.5 33.334 72.5 41.001s62.833 11.5 101.5 11.5s72.5 -4 101.5 -12
s53.167 -21.833 72.5 -41.5s33.833 -47.334 43.5 -83.001s14.5 -81.167 14.5 -136.5c0 -56 -4.83301 -101.833 -14.5 -137.5s-24 -63.334 -43 -83.001s-43.167 -33.5 -72.5 -41.5s-63.333 -12 -102 -12zM288 59c24.667 0 46.5 2.33301 65.5 7s34.833 14 47.5 28
s22.334 35 29.001 63s10 65 10 111c0 46.667 -3.33301 83.667 -10 111s-16.334 48 -29.001 62s-28.5 23.333 -47.5 28s-40.833 7 -65.5 7c-25.333 0 -47.333 -2.33301 -66 -7s-34.334 -14 -47.001 -28s-22.334 -34.667 -29.001 -62s-10 -64.333 -10 -111
c0 -46 3.33301 -83 10 -111s16.334 -49 29.001 -63s28.334 -23.333 47.001 -28s40.667 -7 66 -7zM366 653c-10.667 0 -16 5.33301 -16 16v78c0 10.667 5.33301 16 16 16h36c5.33301 0 9.33301 -1.5 12 -4.5s4 -6.83301 4 -11.5v-78c0 -10.667 -5.33301 -16 -16 -16h-36z
M171 653c-10.667 0 -16 5.33301 -16 16v78c0 10.667 5.33301 16 16 16h36c5.33301 0 9.33301 -1.5 12 -4.5s4 -6.83301 4 -11.5v-78c0 -10.667 -5.33301 -16 -16 -16h-36z" />
    <glyph glyph-name="divide" unicode="&#xf7;" horiz-adv-x="609" 
d="M282 506c-16 0 -24 7.66699 -24 23v50c0 16.667 8 25 24 25h44c16.667 0 25 -8.33301 25 -25v-50c0 -8.66699 -2.33301 -14.667 -7 -18s-10.667 -5 -18 -5h-44zM282 108c-16 0 -24 7.66699 -24 23v50c0 16.667 8 25 24 25h44c16.667 0 25 -8.33301 25 -25v-50
c0 -8.66699 -2.33301 -14.667 -7 -18s-10.667 -5 -18 -5h-44zM80 323v66h448v-66h-448z" />
    <glyph glyph-name="oslash" unicode="&#xf8;" horiz-adv-x="577" 
d="M51 0l431 534h43l-431 -534h-43zM288 -6c-38.667 0 -72.5 4 -101.5 12s-53.167 22 -72.5 42s-33.666 47.833 -42.999 83.5s-14 81.167 -14 136.5c0 56 4.66699 101.833 14 137.5s23.666 63.334 42.999 83.001s43.5 33.334 72.5 41.001s62.833 11.5 101.5 11.5
s72.5 -4 101.5 -12s53.167 -21.833 72.5 -41.5s33.833 -47.334 43.5 -83.001s14.5 -81.167 14.5 -136.5c0 -56 -4.83301 -101.833 -14.5 -137.5s-24 -63.334 -43 -83.001s-43.167 -33.5 -72.5 -41.5s-63.333 -12 -102 -12zM288 59c24.667 0 46.5 2.33301 65.5 7
s34.833 14 47.5 28s22.334 35 29.001 63s10 65 10 111c0 46.667 -3.33301 83.667 -10 111s-16.334 48 -29.001 62s-28.5 23.333 -47.5 28s-40.833 7 -65.5 7c-25.333 0 -47.333 -2.33301 -66 -7s-34.334 -14 -47.001 -28s-22.334 -34.667 -29.001 -62s-10 -64.333 -10 -111
c0 -46 3.33301 -83 10 -111s16.334 -49 29.001 -63s28.334 -23.333 47.001 -28s40.667 -7 66 -7z" />
    <glyph glyph-name="ugrave" unicode="&#xf9;" horiz-adv-x="588" 
d="M235 -6c-51.333 0 -90.834 13.334 -118.501 40.001s-41.5 68 -41.5 124v376h79v-356c0 -44.667 10.167 -74.834 30.5 -90.501s48.833 -23.5 85.5 -23.5c31.333 0 60 4.5 86 13.5s52.667 21.5 80 37.5v419h79v-534h-62l-17 59
c-27.333 -17.333 -58.166 -32.5 -92.499 -45.5s-70.5 -19.5 -108.5 -19.5zM281.999 631.001l-125 136h67l104 -136h-46z" />
    <glyph glyph-name="uacute" unicode="&#xfa;" horiz-adv-x="588" 
d="M235 -6c-51.333 0 -90.834 13.334 -118.501 40.001s-41.5 68 -41.5 124v376h79v-356c0 -44.667 10.167 -74.834 30.5 -90.501s48.833 -23.5 85.5 -23.5c31.333 0 60 4.5 86 13.5s52.667 21.5 80 37.5v419h79v-534h-62l-17 59
c-27.333 -17.333 -58.166 -32.5 -92.499 -45.5s-70.5 -19.5 -108.5 -19.5zM253.999 631.001l104 136h67l-125 -136h-46z" />
    <glyph glyph-name="ucircumflex" unicode="&#xfb;" horiz-adv-x="588" 
d="M235 -6c-51.333 0 -90.834 13.334 -118.501 40.001s-41.5 68 -41.5 124v376h79v-356c0 -44.667 10.167 -74.834 30.5 -90.501s48.833 -23.5 85.5 -23.5c31.333 0 60 4.5 86 13.5s52.667 21.5 80 37.5v419h79v-534h-62l-17 59
c-27.333 -17.333 -58.166 -32.5 -92.499 -45.5s-70.5 -19.5 -108.5 -19.5zM138.999 631.001l122 135h56l110 -135h-48l-92 97l-99 -97h-49z" />
    <glyph glyph-name="udieresis" unicode="&#xfc;" horiz-adv-x="588" 
d="M235 -6c-51.333 0 -90.834 13.334 -118.501 40.001s-41.5 68 -41.5 124v376h79v-356c0 -44.667 10.167 -74.834 30.5 -90.501s48.833 -23.5 85.5 -23.5c31.333 0 60 4.5 86 13.5s52.667 21.5 80 37.5v419h79v-534h-62l-17 59
c-27.333 -17.333 -58.166 -32.5 -92.499 -45.5s-70.5 -19.5 -108.5 -19.5zM363.999 653.001c-10.667 0 -16 5.33301 -16 16v78c0 10.667 5.33301 16 16 16h36c5.33301 0 9.33301 -1.5 12 -4.5s4 -6.83301 4 -11.5v-78c0 -10.667 -5.33301 -16 -16 -16h-36zM168.999 653.001
c-10.667 0 -16 5.33301 -16 16v78c0 10.667 5.33301 16 16 16h36c5.33301 0 9.33301 -1.5 12 -4.5s4 -6.83301 4 -11.5v-78c0 -10.667 -5.33301 -16 -16 -16h-36z" />
    <glyph glyph-name="yacute" unicode="&#xfd;" horiz-adv-x="541" 
d="M219 -237l68.002 237c-16.667 0.666992 -34 4.66699 -52 12s-34.667 20 -50 38s-28 43 -38 75l-128 409h83l119 -392c7.33301 -20.667 15.166 -36 23.499 -46s16.833 -17 25.5 -21s16.167 -6.16699 22.5 -6.5s10.166 -0.5 11.499 -0.5l137 466h81l-195 -672l-46 -99h-62z
M235.002 631l104 136h67l-125 -136h-46z" />
    <glyph glyph-name="thorn" unicode="&#xfe;" horiz-adv-x="578" 
d="M76 -237v999.997h79v-284c12 8.66699 27.5 17.834 46.5 27.501s39.667 17.834 62 24.501s44.5 10 66.5 10c34 0 63 -7.5 87 -22.5s43.833 -35.167 59.5 -60.5s27 -54.333 34 -87s10.5 -67 10.5 -103c0 -60 -7 -110.5 -21 -151.5s-35 -71.833 -63 -92.5
s-63.667 -31 -107 -31c-30 0 -60.167 4.83301 -90.5 14.5s-58.5 21.834 -84.5 36.501v-281h-79zM308 59.9971c25.333 0 48.002 6.33301 68.002 19s36 33.834 48 63.501s18 70.5 18 122.5c0 50.667 -6.33301 91.5 -19 122.5s-29 53.333 -49 67s-42 20.5 -66 20.5
c-30.667 0 -58.834 -4.83301 -84.501 -14.5s-48.5 -19.834 -68.5 -30.501v-327c23.333 -12.667 48.166 -23 74.499 -31s52.5 -12 78.5 -12z" />
    <glyph glyph-name="ydieresis" unicode="&#xff;" horiz-adv-x="541" 
d="M219 -237l68.002 237c-16.667 0.666992 -34 4.66699 -52 12s-34.667 20 -50 38s-28 43 -38 75l-128 409h83l119 -392c7.33301 -20.667 15.166 -36 23.499 -46s16.833 -17 25.5 -21s16.167 -6.16699 22.5 -6.5s10.166 -0.5 11.499 -0.5l137 466h81l-195 -672l-46 -99h-62z
M345.002 653c-10.667 0 -16 5.33301 -16 16v78c0 10.667 5.33301 16 16 16h36c5.33301 0 9.33301 -1.5 12 -4.5s4 -6.83301 4 -11.5v-78c0 -10.667 -5.33301 -16 -16 -16h-36zM150.002 653c-10.667 0 -16 5.33301 -16 16v78c0 10.667 5.33301 16 16 16h36
c5.33301 0 9.33301 -1.5 12 -4.5s4 -6.83301 4 -11.5v-78c0 -10.667 -5.33301 -16 -16 -16h-36z" />
    <glyph glyph-name="Amacron" unicode="&#x100;" horiz-adv-x="674" 
d="M34 0l252 736h102l252 -736h-82l-74 210h-296l-72 -210h-82zM208 282h256l-127 384zM198 831v48h265v-48h-265z" />
    <glyph glyph-name="amacron" unicode="&#x101;" horiz-adv-x="545" 
d="M180 -6c-39.333 0 -71.667 11.6641 -97 34.9971s-38 56.333 -38 99v38c0 42 13.833 76 41.5 102s69.5 39 125.5 39h181v66c0 22 -3.83301 40.833 -11.5 56.5s-21.334 27.834 -41.001 36.501s-48.167 13 -85.5 13h-166v47c23.333 4 50.5 7.66699 81.5 11s67.5 5 109.5 5
c43.333 0.666992 79.333 -4.66602 108 -15.999s49.834 -29.166 63.501 -53.499s20.5 -56.166 20.5 -95.499v-377h-61l-15 61c-2.66699 -2.66699 -10.834 -7.33398 -24.501 -14.001s-31 -14.167 -52 -22.5s-43.667 -15.5 -68 -21.5s-48.166 -9 -71.499 -9zM212.999 52.9971
c12 -0.666992 25.665 0.666016 40.998 3.99902s31 7.16602 47 11.499s30.833 8.83301 44.5 13.5s24.834 8.66699 33.501 12s13.334 5 14.001 5v168l-163 -7c-38 -1.33301 -65.167 -10.666 -81.5 -27.999s-24.5 -39.666 -24.5 -66.999v-24c0 -21.333 4.5 -38.5 13.5 -51.5
s20.333 -22.167 34 -27.5s27.5 -8.33301 41.5 -9zM134.997 670.997v48h265v-48h-265z" />
    <glyph glyph-name="Abreve" unicode="&#x102;" horiz-adv-x="674" 
d="M34 0l252 736h102l252 -736h-82l-74 210h-296l-72 -210h-82zM208 282h256l-127 384zM330 789c-24 0 -45.832 4.5 -65.499 13.5s-35.5 23.833 -47.5 44.5s-18 48.334 -18 83.001h39c0 -38 9.16699 -64.833 27.5 -80.5s39.833 -23.167 64.5 -22.5
c27.333 0 49.666 7.5 66.999 22.5s26 41.833 26 80.5h39c0 -35.333 -6 -63.333 -18 -84s-28 -35.334 -48 -44.001s-42 -13 -66 -13z" />
    <glyph glyph-name="abreve" unicode="&#x103;" horiz-adv-x="545" 
d="M180 -6c-39.333 0 -71.667 11.6641 -97 34.9971s-38 56.333 -38 99v38c0 42 13.833 76 41.5 102s69.5 39 125.5 39h181v66c0 22 -3.83301 40.833 -11.5 56.5s-21.334 27.834 -41.001 36.501s-48.167 13 -85.5 13h-166v47c23.333 4 50.5 7.66699 81.5 11s67.5 5 109.5 5
c43.333 0.666992 79.333 -4.66602 108 -15.999s49.834 -29.166 63.501 -53.499s20.5 -56.166 20.5 -95.499v-377h-61l-15 61c-2.66699 -2.66699 -10.834 -7.33398 -24.501 -14.001s-31 -14.167 -52 -22.5s-43.667 -15.5 -68 -21.5s-48.166 -9 -71.499 -9zM212.999 52.9971
c12 -0.666992 25.665 0.666016 40.998 3.99902s31 7.16602 47 11.499s30.833 8.83301 44.5 13.5s24.834 8.66699 33.501 12s13.334 5 14.001 5v168l-163 -7c-38 -1.33301 -65.167 -10.666 -81.5 -27.999s-24.5 -39.666 -24.5 -66.999v-24c0 -21.333 4.5 -38.5 13.5 -51.5
s20.333 -22.167 34 -27.5s27.5 -8.33301 41.5 -9zM262.997 628.997c-24 0 -45.832 4.5 -65.499 13.5s-35.5 23.833 -47.5 44.5s-18 48.334 -18 83.001h39c0 -38 9.16699 -64.833 27.5 -80.5s39.833 -23.167 64.5 -22.5c27.333 0 49.666 7.5 66.999 22.5s26 41.833 26 80.5
h39c0 -35.333 -6 -63.333 -18 -84s-28 -35.334 -48 -44.001s-42 -13 -66 -13z" />
    <glyph glyph-name="Aogonek" unicode="&#x104;" horiz-adv-x="674" 
d="M34 0l252 736h102l252 -736h-82l-74 210h-296l-72 -210h-82zM208 282h256l-127 384zM588 -187c-22 0 -41 3.99902 -57 11.999s-28 18.667 -36 32s-12 28.333 -12 45c0 19.333 6.16699 37.5 18.5 54.5s31.166 31.5 56.499 43.5h30
c-20.667 -11.333 -36.334 -23.833 -47.001 -37.5s-16 -28.167 -16 -43.5c0 -20 7.16699 -35.833 21.5 -47.5s34.833 -17.5 61.5 -17.5h6v-38c-3.33301 -1.33301 -7.16602 -2.16602 -11.499 -2.49902s-9.16602 -0.5 -14.499 -0.5z" />
    <glyph glyph-name="aogonek" unicode="&#x105;" horiz-adv-x="545" 
d="M180 -6c-39.333 0 -71.667 11.6641 -97 34.9971s-38 56.333 -38 99v38c0 42 13.833 76 41.5 102s69.5 39 125.5 39h181v66c0 22 -3.83301 40.833 -11.5 56.5s-21.334 27.834 -41.001 36.501s-48.167 13 -85.5 13h-166v47c23.333 4 50.5 7.66699 81.5 11s67.5 5 109.5 5
c43.333 0.666992 79.333 -4.66602 108 -15.999s49.834 -29.166 63.501 -53.499s20.5 -56.166 20.5 -95.499v-377h-61l-15 61c-2.66699 -2.66699 -10.834 -7.33398 -24.501 -14.001s-31 -14.167 -52 -22.5s-43.667 -15.5 -68 -21.5s-48.166 -9 -71.499 -9zM212.999 52.9971
c12 -0.666992 25.665 0.666016 40.998 3.99902s31 7.16602 47 11.499s30.833 8.83301 44.5 13.5s24.834 8.66699 33.501 12s13.334 5 14.001 5v168l-163 -7c-38 -1.33301 -65.167 -10.666 -81.5 -27.999s-24.5 -39.666 -24.5 -66.999v-24c0 -21.333 4.5 -38.5 13.5 -51.5
s20.333 -22.167 34 -27.5s27.5 -8.33301 41.5 -9zM471.997 -187.003c-22 0 -41 3.99902 -57 11.999s-28 18.667 -36 32s-12 28.333 -12 45c0 19.333 6.16699 37.5 18.5 54.5s31.166 31.5 56.499 43.5h30c-20.667 -11.333 -36.334 -23.833 -47.001 -37.5
s-16 -28.167 -16 -43.5c0 -20 7.16699 -35.833 21.5 -47.5s34.833 -17.5 61.5 -17.5h6v-38c-3.33301 -1.33301 -7.16602 -2.16602 -11.499 -2.49902s-9.16602 -0.5 -14.499 -0.5z" />
    <glyph glyph-name="Cacute" unicode="&#x106;" horiz-adv-x="581" 
d="M318 -6c-44 0 -82.3359 5.00293 -115.003 15.0029s-59.667 28.167 -81 54.5s-37.166 64.166 -47.499 113.499s-15.5 113.666 -15.5 192.999c0 74.667 5.33301 136.167 16 184.5s26.834 86.166 48.501 113.499s49.167 46.5 82.5 57.5s72.666 16.5 117.999 16.5
c20.667 0 43.667 -1.33301 69 -4s50.333 -5.83398 75 -9.50098s47 -8.16699 67 -13.5v-59c-11.333 2 -27.333 4 -48 6s-44.167 3.83301 -70.5 5.5s-53.166 2.5 -80.499 2.5c-35.333 0 -65.666 -4 -90.999 -12s-45.833 -22.833 -61.5 -44.5s-27.167 -52.167 -34.5 -91.5
s-11 -90.333 -11 -153c0 -63.333 3.5 -115.166 10.5 -155.499s18.167 -71.166 33.5 -92.499s35.333 -36 60 -44s55.334 -12 92.001 -12c50 0 91 1.33301 123 4s58 5.66699 78 9v-60c-20 -4.66699 -42.167 -8.83398 -66.5 -12.501s-49.333 -6.5 -75 -8.5
s-50.834 -3 -75.501 -3zM303.997 791.003l104 136h67l-125 -136h-46z" />
    <glyph glyph-name="cacute" unicode="&#x107;" horiz-adv-x="490" 
d="M270 -6c-30 0 -58.002 4.00098 -84.002 12.001s-48.667 22 -68 42s-34.333 47.667 -45 83s-16 80.333 -16 135c0 55.333 5 100.833 15 136.5s24.333 63.5 43 83.5s41.334 34 68.001 42s56.334 12 89.001 12c26.667 0 55.667 -1.16699 87 -3.5s61.333 -5.83301 90 -10.5
v-47h-156c-34 0 -62.667 -5.66699 -86 -17s-41 -32.5 -53 -63.5s-18 -75.833 -18 -134.5c0 -56.667 6.33301 -100 19 -130s30.667 -50.5 54 -61.5s51.666 -16.5 84.999 -16.5h163v-46c-15.333 -2.66699 -33.166 -5.33398 -53.499 -8.00098s-41.833 -4.66699 -64.5 -6
s-45.667 -2 -69 -2zM237.998 631.001l104 136h67l-125 -136h-46z" />
    <glyph glyph-name="Ccircumflex" unicode="&#x108;" horiz-adv-x="581" 
d="M318 -6c-44 0 -82.3359 5.00293 -115.003 15.0029s-59.667 28.167 -81 54.5s-37.166 64.166 -47.499 113.499s-15.5 113.666 -15.5 192.999c0 74.667 5.33301 136.167 16 184.5s26.834 86.166 48.501 113.499s49.167 46.5 82.5 57.5s72.666 16.5 117.999 16.5
c20.667 0 43.667 -1.33301 69 -4s50.333 -5.83398 75 -9.50098s47 -8.16699 67 -13.5v-59c-11.333 2 -27.333 4 -48 6s-44.167 3.83301 -70.5 5.5s-53.166 2.5 -80.499 2.5c-35.333 0 -65.666 -4 -90.999 -12s-45.833 -22.833 -61.5 -44.5s-27.167 -52.167 -34.5 -91.5
s-11 -90.333 -11 -153c0 -63.333 3.5 -115.166 10.5 -155.499s18.167 -71.166 33.5 -92.499s35.333 -36 60 -44s55.334 -12 92.001 -12c50 0 91 1.33301 123 4s58 5.66699 78 9v-60c-20 -4.66699 -42.167 -8.83398 -66.5 -12.501s-49.333 -6.5 -75 -8.5
s-50.834 -3 -75.501 -3zM175.997 791.003l122 135h56l110 -135h-48l-92 97l-99 -97h-49z" />
    <glyph glyph-name="ccircumflex" unicode="&#x109;" horiz-adv-x="490" 
d="M270 -6c-30 0 -58.002 4.00098 -84.002 12.001s-48.667 22 -68 42s-34.333 47.667 -45 83s-16 80.333 -16 135c0 55.333 5 100.833 15 136.5s24.333 63.5 43 83.5s41.334 34 68.001 42s56.334 12 89.001 12c26.667 0 55.667 -1.16699 87 -3.5s61.333 -5.83301 90 -10.5
v-47h-156c-34 0 -62.667 -5.66699 -86 -17s-41 -32.5 -53 -63.5s-18 -75.833 -18 -134.5c0 -56.667 6.33301 -100 19 -130s30.667 -50.5 54 -61.5s51.666 -16.5 84.999 -16.5h163v-46c-15.333 -2.66699 -33.166 -5.33398 -53.499 -8.00098s-41.833 -4.66699 -64.5 -6
s-45.667 -2 -69 -2zM122.998 631.001l122 135h56l110 -135h-48l-92 97l-99 -97h-49z" />
    <glyph glyph-name="Cdotaccent" unicode="&#x10a;" horiz-adv-x="581" 
d="M318 -6c-44 0 -82.3359 5.00293 -115.003 15.0029s-59.667 28.167 -81 54.5s-37.166 64.166 -47.499 113.499s-15.5 113.666 -15.5 192.999c0 74.667 5.33301 136.167 16 184.5s26.834 86.166 48.501 113.499s49.167 46.5 82.5 57.5s72.666 16.5 117.999 16.5
c20.667 0 43.667 -1.33301 69 -4s50.333 -5.83398 75 -9.50098s47 -8.16699 67 -13.5v-59c-11.333 2 -27.333 4 -48 6s-44.167 3.83301 -70.5 5.5s-53.166 2.5 -80.499 2.5c-35.333 0 -65.666 -4 -90.999 -12s-45.833 -22.833 -61.5 -44.5s-27.167 -52.167 -34.5 -91.5
s-11 -90.333 -11 -153c0 -63.333 3.5 -115.166 10.5 -155.499s18.167 -71.166 33.5 -92.499s35.333 -36 60 -44s55.334 -12 92.001 -12c50 0 91 1.33301 123 4s58 5.66699 78 9v-60c-20 -4.66699 -42.167 -8.83398 -66.5 -12.501s-49.333 -6.5 -75 -8.5
s-50.834 -3 -75.501 -3zM302.997 820.003c-10.667 0 -16.001 5.33301 -16.001 16v78c0 10.667 5.33301 16 16 16h37c4.66699 0 8.33398 -1.5 11.001 -4.5s4 -6.83301 4 -11.5v-78c0 -10.667 -5 -16 -15 -16h-37z" />
    <glyph glyph-name="cdotaccent" unicode="&#x10b;" horiz-adv-x="490" 
d="M270 -6c-30 0 -58.002 4.00098 -84.002 12.001s-48.667 22 -68 42s-34.333 47.667 -45 83s-16 80.333 -16 135c0 55.333 5 100.833 15 136.5s24.333 63.5 43 83.5s41.334 34 68.001 42s56.334 12 89.001 12c26.667 0 55.667 -1.16699 87 -3.5s61.333 -5.83301 90 -10.5
v-47h-156c-34 0 -62.667 -5.66699 -86 -17s-41 -32.5 -53 -63.5s-18 -75.833 -18 -134.5c0 -56.667 6.33301 -100 19 -130s30.667 -50.5 54 -61.5s51.666 -16.5 84.999 -16.5h163v-46c-15.333 -2.66699 -33.166 -5.33398 -53.499 -8.00098s-41.833 -4.66699 -64.5 -6
s-45.667 -2 -69 -2zM250.998 660.001c-10.667 0 -16.001 5.33301 -16.001 16v78c0 10.667 5.33301 16 16 16h37c4.66699 0 8.33398 -1.5 11.001 -4.5s4 -6.83301 4 -11.5v-78c0 -10.667 -5 -16 -15 -16h-37z" />
    <glyph glyph-name="Ccaron" unicode="&#x10c;" horiz-adv-x="581" 
d="M318 -6c-44 0 -82.3359 5.00293 -115.003 15.0029s-59.667 28.167 -81 54.5s-37.166 64.166 -47.499 113.499s-15.5 113.666 -15.5 192.999c0 74.667 5.33301 136.167 16 184.5s26.834 86.166 48.501 113.499s49.167 46.5 82.5 57.5s72.666 16.5 117.999 16.5
c20.667 0 43.667 -1.33301 69 -4s50.333 -5.83398 75 -9.50098s47 -8.16699 67 -13.5v-59c-11.333 2 -27.333 4 -48 6s-44.167 3.83301 -70.5 5.5s-53.166 2.5 -80.499 2.5c-35.333 0 -65.666 -4 -90.999 -12s-45.833 -22.833 -61.5 -44.5s-27.167 -52.167 -34.5 -91.5
s-11 -90.333 -11 -153c0 -63.333 3.5 -115.166 10.5 -155.499s18.167 -71.166 33.5 -92.499s35.333 -36 60 -44s55.334 -12 92.001 -12c50 0 91 1.33301 123 4s58 5.66699 78 9v-60c-20 -4.66699 -42.167 -8.83398 -66.5 -12.501s-49.333 -6.5 -75 -8.5
s-50.834 -3 -75.501 -3zM293.997 791.003l-111 135h48l92 -97l100 97h48l-121 -135h-56z" />
    <glyph glyph-name="ccaron" unicode="&#x10d;" horiz-adv-x="490" 
d="M270 -6c-30 0 -58.002 4.00098 -84.002 12.001s-48.667 22 -68 42s-34.333 47.667 -45 83s-16 80.333 -16 135c0 55.333 5 100.833 15 136.5s24.333 63.5 43 83.5s41.334 34 68.001 42s56.334 12 89.001 12c26.667 0 55.667 -1.16699 87 -3.5s61.333 -5.83301 90 -10.5
v-47h-156c-34 0 -62.667 -5.66699 -86 -17s-41 -32.5 -53 -63.5s-18 -75.833 -18 -134.5c0 -56.667 6.33301 -100 19 -130s30.667 -50.5 54 -61.5s51.666 -16.5 84.999 -16.5h163v-46c-15.333 -2.66699 -33.166 -5.33398 -53.499 -8.00098s-41.833 -4.66699 -64.5 -6
s-45.667 -2 -69 -2zM240.998 631.001l-111 135h48l92 -97l100 97h48l-121 -135h-56z" />
    <glyph glyph-name="Dcaron" unicode="&#x10e;" horiz-adv-x="669" 
d="M77 0l-0.000976562 736h291c44.667 0 82.334 -8.16699 113.001 -24.5s55.5 -40.166 74.5 -71.499s32.833 -69.833 41.5 -115.5s13 -97.834 13 -156.501c0 -77.333 -9 -143.333 -27 -198s-45 -96.667 -81 -126s-80.667 -44 -134 -44h-291zM156.999 71l205 0.000976562
c39.333 0 71.333 12.167 96 36.5s43 58.666 55 102.999s18 96.833 18 157.5c0 54.667 -3.33301 100.834 -10 138.501s-16.834 68.167 -30.501 91.5s-31.167 40.166 -52.5 50.499s-46.666 15.5 -75.999 15.5h-205v-593zM288.999 791.001l-111 135h48l92 -97l100 97h48
l-121 -135h-56z" />
    <glyph glyph-name="dcaron" unicode="&#x10f;" horiz-adv-x="575" 
d="M249 -6c-44 0 -80.165 9.49902 -108.498 28.499s-49.333 48.333 -63 88s-20.5 90.5 -20.5 152.5c0 66 6.66699 119.5 20 160.5s34.666 70.833 63.999 89.5s68.666 28 117.999 28c30 0 59.333 -3.33301 88 -10s54 -14 76 -22v254h79v-763h-64l-15 54
c-10 -8.66699 -24.833 -17.667 -44.5 -27s-41 -17.166 -64 -23.499s-44.833 -9.5 -65.5 -9.5zM272.002 58.999c30.667 0 58.5 4.83301 83.5 14.5s47.5 19.834 67.5 30.501v349c-24 7.33301 -47 13.5 -69 18.5s-46.667 7.5 -74 7.5c-34 0 -61.667 -6.33301 -83 -19
s-36.833 -34.5 -46.5 -65.5s-14.5 -73.833 -14.5 -128.5c0 -49.333 4.5 -89.333 13.5 -120s23.5 -52.834 43.5 -66.501s46.333 -20.5 79 -20.5zM575.002 581.999l-6 141v60h73v-60l-6 -141h-61z" />
    <glyph glyph-name="Dcroat" unicode="&#x110;" horiz-adv-x="669" 
d="M15 345v55h310v-55h-310zM77 0l-0.000976562 736h291c44.667 0 82.334 -8.16699 113.001 -24.5s55.5 -40.166 74.5 -71.499s32.833 -69.833 41.5 -115.5s13 -97.834 13 -156.501c0 -77.333 -9 -143.333 -27 -198s-45 -96.667 -81 -126s-80.667 -44 -134 -44h-291z
M156.999 71l205 0.000976562c39.333 0 71.333 12.167 96 36.5s43 58.666 55 102.999s18 96.833 18 157.5c0 54.667 -3.33301 100.834 -10 138.501s-16.834 68.167 -30.501 91.5s-31.167 40.166 -52.5 50.499s-46.666 15.5 -75.999 15.5h-205v-593z" />
    <glyph glyph-name="dcroat" unicode="&#x111;" horiz-adv-x="575" 
d="M284 629v35h287v-35h-287zM249 -6c-44 0 -80.165 9.49902 -108.498 28.499s-49.333 48.333 -63 88s-20.5 90.5 -20.5 152.5c0 66 6.66699 119.5 20 160.5s34.666 70.833 63.999 89.5s68.666 28 117.999 28c30 0 59.333 -3.33301 88 -10s54 -14 76 -22v254h79v-763h-64
l-15 54c-10 -8.66699 -24.833 -17.667 -44.5 -27s-41 -17.166 -64 -23.499s-44.833 -9.5 -65.5 -9.5zM272.002 58.999c30.667 0 58.5 4.83301 83.5 14.5s47.5 19.834 67.5 30.501v349c-24 7.33301 -47 13.5 -69 18.5s-46.667 7.5 -74 7.5c-34 0 -61.667 -6.33301 -83 -19
s-36.833 -34.5 -46.5 -65.5s-14.5 -73.833 -14.5 -128.5c0 -49.333 4.5 -89.333 13.5 -120s23.5 -52.834 43.5 -66.501s46.333 -20.5 79 -20.5z" />
    <glyph glyph-name="Emacron" unicode="&#x112;" horiz-adv-x="587" 
d="M233 -4c-16 0 -32.9961 1.50098 -50.9961 4.50098s-35 9.16699 -51 18.5s-29 23.5 -39 42.5s-15 44.833 -15 77.5v449c0 28.667 4.16699 52.5 12.5 71.5s19.5 34 33.5 45s29.667 19 47 24s34.666 7.5 51.999 7.5c41.333 -0.666992 79.666 -1.5 114.999 -2.5
s68.833 -2 100.5 -3s62.5 -2.16699 92.5 -3.5v-64h-288c-26 0 -46.667 -7 -62 -21s-23 -36.333 -23 -67v-174l329 -5v-61l-329 -5v-173c0 -24.667 4.16699 -43.334 12.5 -56.001s19.5 -21 33.5 -25s28.333 -6 43 -6h284v-64c-30.667 -2 -62.834 -3.66699 -96.501 -5
s-67.334 -2.33301 -101.001 -3zM172.004 831.001v48h265v-48h-265z" />
    <glyph glyph-name="emacron" unicode="&#x113;" horiz-adv-x="541" 
d="M280 -6c-56 0 -100.168 8.33203 -132.501 24.999s-55.5 45 -69.5 85s-21 94.667 -21 164c0 70.667 7.16699 125.834 21.5 165.501s37.833 67.5 70.5 83.5s76.667 24 132 24c47.333 0 85.833 -5.33301 115.5 -16s51.667 -28.834 66 -54.501s21.5 -61.167 21.5 -106.5
c0 -31.333 -6.16699 -56.5 -18.5 -75.5s-30 -32.667 -53 -41s-50.167 -12.5 -81.5 -12.5h-195c0.666992 -43.333 5.33398 -78.166 14.001 -104.499s24.5 -45.333 47.5 -57s56.833 -17.5 101.5 -17.5h172v-48c-30.667 -4 -60.667 -7.33301 -90 -10s-63 -4 -101 -4z
M134.999 286.999h189.999c30 0 52.167 5.5 66.5 16.5s21.5 30.833 21.5 59.5c0 30.667 -4.5 54.5 -13.5 71.5s-23 29 -42 36s-44.5 10.5 -76.5 10.5c-37.333 0 -66.666 -5.5 -87.999 -16.5s-36.333 -30.5 -45 -58.5s-13 -67.667 -13 -119zM134.998 670.999v48h265v-48h-265z
" />
    <glyph glyph-name="Ebreve" unicode="&#x114;" horiz-adv-x="587" 
d="M233 -4c-16 0 -32.9961 1.50098 -50.9961 4.50098s-35 9.16699 -51 18.5s-29 23.5 -39 42.5s-15 44.833 -15 77.5v449c0 28.667 4.16699 52.5 12.5 71.5s19.5 34 33.5 45s29.667 19 47 24s34.666 7.5 51.999 7.5c41.333 -0.666992 79.666 -1.5 114.999 -2.5
s68.833 -2 100.5 -3s62.5 -2.16699 92.5 -3.5v-64h-288c-26 0 -46.667 -7 -62 -21s-23 -36.333 -23 -67v-174l329 -5v-61l-329 -5v-173c0 -24.667 4.16699 -43.334 12.5 -56.001s19.5 -21 33.5 -25s28.333 -6 43 -6h284v-64c-30.667 -2 -62.834 -3.66699 -96.501 -5
s-67.334 -2.33301 -101.001 -3zM304.004 789.001c-24 0 -45.832 4.5 -65.499 13.5s-35.5 23.833 -47.5 44.5s-18 48.334 -18 83.001h39c0 -38 9.16699 -64.833 27.5 -80.5s39.833 -23.167 64.5 -22.5c27.333 0 49.666 7.5 66.999 22.5s26 41.833 26 80.5h39
c0 -35.333 -6 -63.333 -18 -84s-28 -35.334 -48 -44.001s-42 -13 -66 -13z" />
    <glyph glyph-name="ebreve" unicode="&#x115;" horiz-adv-x="541" 
d="M280 -6c-56 0 -100.168 8.33203 -132.501 24.999s-55.5 45 -69.5 85s-21 94.667 -21 164c0 70.667 7.16699 125.834 21.5 165.501s37.833 67.5 70.5 83.5s76.667 24 132 24c47.333 0 85.833 -5.33301 115.5 -16s51.667 -28.834 66 -54.501s21.5 -61.167 21.5 -106.5
c0 -31.333 -6.16699 -56.5 -18.5 -75.5s-30 -32.667 -53 -41s-50.167 -12.5 -81.5 -12.5h-195c0.666992 -43.333 5.33398 -78.166 14.001 -104.499s24.5 -45.333 47.5 -57s56.833 -17.5 101.5 -17.5h172v-48c-30.667 -4 -60.667 -7.33301 -90 -10s-63 -4 -101 -4z
M134.999 286.999h189.999c30 0 52.167 5.5 66.5 16.5s21.5 30.833 21.5 59.5c0 30.667 -4.5 54.5 -13.5 71.5s-23 29 -42 36s-44.5 10.5 -76.5 10.5c-37.333 0 -66.666 -5.5 -87.999 -16.5s-36.333 -30.5 -45 -58.5s-13 -67.667 -13 -119zM262.998 628.999
c-24 0 -45.832 4.5 -65.499 13.5s-35.5 23.833 -47.5 44.5s-18 48.334 -18 83.001h39c0 -38 9.16699 -64.833 27.5 -80.5s39.833 -23.167 64.5 -22.5c27.333 0 49.666 7.5 66.999 22.5s26 41.833 26 80.5h39c0 -35.333 -6 -63.333 -18 -84s-28 -35.334 -48 -44.001
s-42 -13 -66 -13z" />
    <glyph glyph-name="Edotaccent" unicode="&#x116;" horiz-adv-x="587" 
d="M233 -4c-16 0 -32.9961 1.50098 -50.9961 4.50098s-35 9.16699 -51 18.5s-29 23.5 -39 42.5s-15 44.833 -15 77.5v449c0 28.667 4.16699 52.5 12.5 71.5s19.5 34 33.5 45s29.667 19 47 24s34.666 7.5 51.999 7.5c41.333 -0.666992 79.666 -1.5 114.999 -2.5
s68.833 -2 100.5 -3s62.5 -2.16699 92.5 -3.5v-64h-288c-26 0 -46.667 -7 -62 -21s-23 -36.333 -23 -67v-174l329 -5v-61l-329 -5v-173c0 -24.667 4.16699 -43.334 12.5 -56.001s19.5 -21 33.5 -25s28.333 -6 43 -6h284v-64c-30.667 -2 -62.834 -3.66699 -96.501 -5
s-67.334 -2.33301 -101.001 -3zM291.004 820.001c-10.667 0 -16.001 5.33301 -16.001 16v78c0 10.667 5.33301 16 16 16h37c4.66699 0 8.33398 -1.5 11.001 -4.5s4 -6.83301 4 -11.5v-78c0 -10.667 -5 -16 -15 -16h-37z" />
    <glyph glyph-name="edotaccent" unicode="&#x117;" horiz-adv-x="541" 
d="M280 -6c-56 0 -100.168 8.33203 -132.501 24.999s-55.5 45 -69.5 85s-21 94.667 -21 164c0 70.667 7.16699 125.834 21.5 165.501s37.833 67.5 70.5 83.5s76.667 24 132 24c47.333 0 85.833 -5.33301 115.5 -16s51.667 -28.834 66 -54.501s21.5 -61.167 21.5 -106.5
c0 -31.333 -6.16699 -56.5 -18.5 -75.5s-30 -32.667 -53 -41s-50.167 -12.5 -81.5 -12.5h-195c0.666992 -43.333 5.33398 -78.166 14.001 -104.499s24.5 -45.333 47.5 -57s56.833 -17.5 101.5 -17.5h172v-48c-30.667 -4 -60.667 -7.33301 -90 -10s-63 -4 -101 -4z
M134.999 286.999h189.999c30 0 52.167 5.5 66.5 16.5s21.5 30.833 21.5 59.5c0 30.667 -4.5 54.5 -13.5 71.5s-23 29 -42 36s-44.5 10.5 -76.5 10.5c-37.333 0 -66.666 -5.5 -87.999 -16.5s-36.333 -30.5 -45 -58.5s-13 -67.667 -13 -119zM250.998 659.999
c-10.667 0 -16.001 5.33301 -16.001 16v78c0 10.667 5.33301 16 16 16h37c4.66699 0 8.33398 -1.5 11.001 -4.5s4 -6.83301 4 -11.5v-78c0 -10.667 -5 -16 -15 -16h-37z" />
    <glyph glyph-name="Eogonek" unicode="&#x118;" horiz-adv-x="587" 
d="M233 -4c-16 0 -32.9961 1.50098 -50.9961 4.50098s-35 9.16699 -51 18.5s-29 23.5 -39 42.5s-15 44.833 -15 77.5v449c0 28.667 4.16699 52.5 12.5 71.5s19.5 34 33.5 45s29.667 19 47 24s34.666 7.5 51.999 7.5c41.333 -0.666992 79.666 -1.5 114.999 -2.5
s68.833 -2 100.5 -3s62.5 -2.16699 92.5 -3.5v-64h-288c-26 0 -46.667 -7 -62 -21s-23 -36.333 -23 -67v-174l329 -5v-61l-329 -5v-173c0 -24.667 4.16699 -43.334 12.5 -56.001s19.5 -21 33.5 -25s28.333 -6 43 -6h284v-64c-30.667 -2 -62.834 -3.66699 -96.501 -5
s-67.334 -2.33301 -101.001 -3zM529.004 -180.999c-22 0 -41 3.99902 -57 11.999s-28 18.667 -36 32s-12 28.333 -12 45c0 19.333 6.16699 37.5 18.5 54.5s31.166 31.5 56.499 43.5h30c-20.667 -11.333 -36.334 -23.833 -47.001 -37.5s-16 -28.167 -16 -43.5
c0 -20 7.16699 -35.833 21.5 -47.5s34.833 -17.5 61.5 -17.5h6v-38c-3.33301 -1.33301 -7.16602 -2.16602 -11.499 -2.49902s-9.16602 -0.5 -14.499 -0.5z" />
    <glyph glyph-name="eogonek" unicode="&#x119;" horiz-adv-x="541" 
d="M280 -6c-56 0 -100.168 8.33203 -132.501 24.999s-55.5 45 -69.5 85s-21 94.667 -21 164c0 70.667 7.16699 125.834 21.5 165.501s37.833 67.5 70.5 83.5s76.667 24 132 24c47.333 0 85.833 -5.33301 115.5 -16s51.667 -28.834 66 -54.501s21.5 -61.167 21.5 -106.5
c0 -31.333 -6.16699 -56.5 -18.5 -75.5s-30 -32.667 -53 -41s-50.167 -12.5 -81.5 -12.5h-195c0.666992 -43.333 5.33398 -78.166 14.001 -104.499s24.5 -45.333 47.5 -57s56.833 -17.5 101.5 -17.5h172v-48c-30.667 -4 -60.667 -7.33301 -90 -10s-63 -4 -101 -4z
M134.999 286.999h189.999c30 0 52.167 5.5 66.5 16.5s21.5 30.833 21.5 59.5c0 30.667 -4.5 54.5 -13.5 71.5s-23 29 -42 36s-44.5 10.5 -76.5 10.5c-37.333 0 -66.666 -5.5 -87.999 -16.5s-36.333 -30.5 -45 -58.5s-13 -67.667 -13 -119zM469.998 -163.001
c-22 0 -41 3.99902 -57 11.999s-28 18.667 -36 32s-12 28.333 -12 45c0 19.333 6.16699 37.5 18.5 54.5s31.166 31.5 56.499 43.5h30c-20.667 -11.333 -36.334 -23.833 -47.001 -37.5s-16 -28.167 -16 -43.5c0 -20 7.16699 -35.833 21.5 -47.5s34.833 -17.5 61.5 -17.5h6
v-38c-3.33301 -1.33301 -7.16602 -2.16602 -11.499 -2.49902s-9.16602 -0.5 -14.499 -0.5z" />
    <glyph glyph-name="Ecaron" unicode="&#x11a;" horiz-adv-x="587" 
d="M233 -4c-16 0 -32.9961 1.50098 -50.9961 4.50098s-35 9.16699 -51 18.5s-29 23.5 -39 42.5s-15 44.833 -15 77.5v449c0 28.667 4.16699 52.5 12.5 71.5s19.5 34 33.5 45s29.667 19 47 24s34.666 7.5 51.999 7.5c41.333 -0.666992 79.666 -1.5 114.999 -2.5
s68.833 -2 100.5 -3s62.5 -2.16699 92.5 -3.5v-64h-288c-26 0 -46.667 -7 -62 -21s-23 -36.333 -23 -67v-174l329 -5v-61l-329 -5v-173c0 -24.667 4.16699 -43.334 12.5 -56.001s19.5 -21 33.5 -25s28.333 -6 43 -6h284v-64c-30.667 -2 -62.834 -3.66699 -96.501 -5
s-67.334 -2.33301 -101.001 -3zM282.004 791.001l-111 135h48l92 -97l100 97h48l-121 -135h-56z" />
    <glyph glyph-name="ecaron" unicode="&#x11b;" horiz-adv-x="541" 
d="M280 -6c-56 0 -100.168 8.33203 -132.501 24.999s-55.5 45 -69.5 85s-21 94.667 -21 164c0 70.667 7.16699 125.834 21.5 165.501s37.833 67.5 70.5 83.5s76.667 24 132 24c47.333 0 85.833 -5.33301 115.5 -16s51.667 -28.834 66 -54.501s21.5 -61.167 21.5 -106.5
c0 -31.333 -6.16699 -56.5 -18.5 -75.5s-30 -32.667 -53 -41s-50.167 -12.5 -81.5 -12.5h-195c0.666992 -43.333 5.33398 -78.166 14.001 -104.499s24.5 -45.333 47.5 -57s56.833 -17.5 101.5 -17.5h172v-48c-30.667 -4 -60.667 -7.33301 -90 -10s-63 -4 -101 -4z
M134.999 286.999h189.999c30 0 52.167 5.5 66.5 16.5s21.5 30.833 21.5 59.5c0 30.667 -4.5 54.5 -13.5 71.5s-23 29 -42 36s-44.5 10.5 -76.5 10.5c-37.333 0 -66.666 -5.5 -87.999 -16.5s-36.333 -30.5 -45 -58.5s-13 -67.667 -13 -119zM240.998 630.999l-111 135h48
l92 -97l100 97h48l-121 -135h-56z" />
    <glyph glyph-name="Gcircumflex" unicode="&#x11c;" horiz-adv-x="653" 
d="M295 -5c-46.667 -0.666992 -85.333 6.50488 -116 21.5049s-54.667 37.833 -72 68.5s-29.666 69.667 -36.999 117s-11 103.333 -11 168c0 62 3.83301 116.333 11.5 163s20.834 85.5 39.501 116.5s44.167 54.167 76.5 69.5s72.833 23 121.5 23c26 0 53 -1 81 -3
s55.333 -5 82 -9s51.334 -8.66699 74.001 -14v-60c-13.333 2 -32 4.16699 -56 6.5s-50.833 4.16602 -80.5 5.49902s-59.167 2 -88.5 2c-48 0 -85.167 -9.83301 -111.5 -29.5s-44.666 -51.667 -54.999 -96s-15.5 -102.833 -15.5 -175.5
c0 -58.667 2.83301 -107.334 8.5 -146.001s15.167 -69.334 28.5 -92.001s31.5 -38.834 54.5 -48.501s52.167 -14.5 87.5 -14.5c31.333 0 63.666 4 96.999 12s61.666 16.667 84.999 26v217h-178v59c12.667 2 28 3.66699 46 5s37.167 2.5 57.5 3.5s40.833 1.5 61.5 1.5
c17.333 0 33.666 -0.166992 48.999 -0.5s28.666 -1.5 39.999 -3.5v-388h-58l-12 52c-24 -12 -54.5 -24.333 -91.5 -37s-76.5 -19.334 -118.5 -20.001zM181.001 791.005l122 135h56l110 -135h-48l-92 97l-99 -97h-49z" />
    <glyph glyph-name="gcircumflex" unicode="&#x11d;" horiz-adv-x="576" 
d="M207 -245c-34.667 0 -65.1699 4.83789 -91.5029 14.5049s-47 24.334 -62 44.001s-22.5 44.167 -22.5 73.5v24c0 30.667 8.5 56.334 25.5 77.001s38.5 36.167 64.5 46.5s52.667 15.5 80 15.5l20 -32c-20 0 -38.667 -3.16699 -56 -9.5s-31.5 -16.5 -42.5 -30.5
s-16.5 -32 -16.5 -54v-22c0 -32 10.667 -54.833 32 -68.5s50.333 -20.5 87 -20.5h124c40 0 71.5 7.66699 94.5 23s34.5 39.333 34.5 72v20c0 18.667 -3.66699 34.667 -11 48s-19.5 23.666 -36.5 30.999s-40.833 11 -71.5 11h-161c-41.333 0 -73.5 8.83301 -96.5 26.5
s-34.5 40.5 -34.5 68.5c0 26.667 7.83301 47.667 23.5 63s37.834 26 66.501 32c-24.667 10 -44 23.5 -58 40.5s-23.667 35.333 -29 55s-8 39.5 -8 59.5c0 41.333 8.33301 74.666 25 99.999s40.5 43.666 71.5 54.999s67.5 17 109.5 17h285v-45l-120 -10
c8.66699 -6 18.334 -13.833 29.001 -23.5s19.834 -23.334 27.501 -41.001s11.5 -41.834 11.5 -72.501c0 -27.333 -5.83301 -53.333 -17.5 -78s-31.167 -44.834 -58.5 -60.501s-65 -23.5 -113 -23.5h-85c-28 0 -50.167 -4.16699 -66.5 -12.5s-24.5 -23.166 -24.5 -44.499
c0 -16 6 -27.333 18 -34s24.667 -10 38 -10h177c41.333 0 75.5 -5.33301 102.5 -16s47.333 -26.834 61 -48.501s20.5 -49.167 20.5 -82.5v-22c0 -48.667 -16.5 -86.834 -49.5 -114.501s-82.167 -41.5 -147.5 -41.5h-149zM243.997 242.005l59.999 -0.00195312
c34 0 59.833 5.16699 77.5 15.5s29.834 23.833 36.501 40.5s10 34.667 10 54c0 30 -4.83301 53.833 -14.5 71.5s-23.167 30.334 -40.5 38.001s-37.333 11.5 -60 11.5h-57c-38 0 -67.833 -8.5 -89.5 -25.5s-32.5 -46.5 -32.5 -88.5c0 -41.333 9.83301 -71.166 29.5 -89.499
s46.5 -27.5 80.5 -27.5zM141.996 631.003l122 135h56l110 -135h-48l-92 97l-99 -97h-49z" />
    <glyph glyph-name="Gbreve" unicode="&#x11e;" horiz-adv-x="653" 
d="M295 -5c-46.667 -0.666992 -85.333 6.50488 -116 21.5049s-54.667 37.833 -72 68.5s-29.666 69.667 -36.999 117s-11 103.333 -11 168c0 62 3.83301 116.333 11.5 163s20.834 85.5 39.501 116.5s44.167 54.167 76.5 69.5s72.833 23 121.5 23c26 0 53 -1 81 -3
s55.333 -5 82 -9s51.334 -8.66699 74.001 -14v-60c-13.333 2 -32 4.16699 -56 6.5s-50.833 4.16602 -80.5 5.49902s-59.167 2 -88.5 2c-48 0 -85.167 -9.83301 -111.5 -29.5s-44.666 -51.667 -54.999 -96s-15.5 -102.833 -15.5 -175.5
c0 -58.667 2.83301 -107.334 8.5 -146.001s15.167 -69.334 28.5 -92.001s31.5 -38.834 54.5 -48.501s52.167 -14.5 87.5 -14.5c31.333 0 63.666 4 96.999 12s61.666 16.667 84.999 26v217h-178v59c12.667 2 28 3.66699 46 5s37.167 2.5 57.5 3.5s40.833 1.5 61.5 1.5
c17.333 0 33.666 -0.166992 48.999 -0.5s28.666 -1.5 39.999 -3.5v-388h-58l-12 52c-24 -12 -54.5 -24.333 -91.5 -37s-76.5 -19.334 -118.5 -20.001zM321.001 789.005c-24 0 -45.832 4.5 -65.499 13.5s-35.5 23.833 -47.5 44.5s-18 48.334 -18 83.001h39
c0 -38 9.16699 -64.833 27.5 -80.5s39.833 -23.167 64.5 -22.5c27.333 0 49.666 7.5 66.999 22.5s26 41.833 26 80.5h39c0 -35.333 -6 -63.333 -18 -84s-28 -35.334 -48 -44.001s-42 -13 -66 -13z" />
    <glyph glyph-name="gbreve" unicode="&#x11f;" horiz-adv-x="576" 
d="M207 -245c-34.667 0 -65.1699 4.83789 -91.5029 14.5049s-47 24.334 -62 44.001s-22.5 44.167 -22.5 73.5v24c0 30.667 8.5 56.334 25.5 77.001s38.5 36.167 64.5 46.5s52.667 15.5 80 15.5l20 -32c-20 0 -38.667 -3.16699 -56 -9.5s-31.5 -16.5 -42.5 -30.5
s-16.5 -32 -16.5 -54v-22c0 -32 10.667 -54.833 32 -68.5s50.333 -20.5 87 -20.5h124c40 0 71.5 7.66699 94.5 23s34.5 39.333 34.5 72v20c0 18.667 -3.66699 34.667 -11 48s-19.5 23.666 -36.5 30.999s-40.833 11 -71.5 11h-161c-41.333 0 -73.5 8.83301 -96.5 26.5
s-34.5 40.5 -34.5 68.5c0 26.667 7.83301 47.667 23.5 63s37.834 26 66.501 32c-24.667 10 -44 23.5 -58 40.5s-23.667 35.333 -29 55s-8 39.5 -8 59.5c0 41.333 8.33301 74.666 25 99.999s40.5 43.666 71.5 54.999s67.5 17 109.5 17h285v-45l-120 -10
c8.66699 -6 18.334 -13.833 29.001 -23.5s19.834 -23.334 27.501 -41.001s11.5 -41.834 11.5 -72.501c0 -27.333 -5.83301 -53.333 -17.5 -78s-31.167 -44.834 -58.5 -60.501s-65 -23.5 -113 -23.5h-85c-28 0 -50.167 -4.16699 -66.5 -12.5s-24.5 -23.166 -24.5 -44.499
c0 -16 6 -27.333 18 -34s24.667 -10 38 -10h177c41.333 0 75.5 -5.33301 102.5 -16s47.333 -26.834 61 -48.501s20.5 -49.167 20.5 -82.5v-22c0 -48.667 -16.5 -86.834 -49.5 -114.501s-82.167 -41.5 -147.5 -41.5h-149zM243.997 242.005l59.999 -0.00195312
c34 0 59.833 5.16699 77.5 15.5s29.834 23.833 36.501 40.5s10 34.667 10 54c0 30 -4.83301 53.833 -14.5 71.5s-23.167 30.334 -40.5 38.001s-37.333 11.5 -60 11.5h-57c-38 0 -67.833 -8.5 -89.5 -25.5s-32.5 -46.5 -32.5 -88.5c0 -41.333 9.83301 -71.166 29.5 -89.499
s46.5 -27.5 80.5 -27.5zM281.996 629.003c-24 0 -45.832 4.5 -65.499 13.5s-35.5 23.833 -47.5 44.5s-18 48.334 -18 83.001h39c0 -38 9.16699 -64.833 27.5 -80.5s39.833 -23.167 64.5 -22.5c27.333 0 49.666 7.5 66.999 22.5s26 41.833 26 80.5h39
c0 -35.333 -6 -63.333 -18 -84s-28 -35.334 -48 -44.001s-42 -13 -66 -13z" />
    <glyph glyph-name="Gdotaccent" unicode="&#x120;" horiz-adv-x="653" 
d="M295 -5c-46.667 -0.666992 -85.333 6.50488 -116 21.5049s-54.667 37.833 -72 68.5s-29.666 69.667 -36.999 117s-11 103.333 -11 168c0 62 3.83301 116.333 11.5 163s20.834 85.5 39.501 116.5s44.167 54.167 76.5 69.5s72.833 23 121.5 23c26 0 53 -1 81 -3
s55.333 -5 82 -9s51.334 -8.66699 74.001 -14v-60c-13.333 2 -32 4.16699 -56 6.5s-50.833 4.16602 -80.5 5.49902s-59.167 2 -88.5 2c-48 0 -85.167 -9.83301 -111.5 -29.5s-44.666 -51.667 -54.999 -96s-15.5 -102.833 -15.5 -175.5
c0 -58.667 2.83301 -107.334 8.5 -146.001s15.167 -69.334 28.5 -92.001s31.5 -38.834 54.5 -48.501s52.167 -14.5 87.5 -14.5c31.333 0 63.666 4 96.999 12s61.666 16.667 84.999 26v217h-178v59c12.667 2 28 3.66699 46 5s37.167 2.5 57.5 3.5s40.833 1.5 61.5 1.5
c17.333 0 33.666 -0.166992 48.999 -0.5s28.666 -1.5 39.999 -3.5v-388h-58l-12 52c-24 -12 -54.5 -24.333 -91.5 -37s-76.5 -19.334 -118.5 -20.001zM308.001 820.005c-10.667 0 -16.001 5.33301 -16.001 16v78c0 10.667 5.33301 16 16 16h37
c4.66699 0 8.33398 -1.5 11.001 -4.5s4 -6.83301 4 -11.5v-78c0 -10.667 -5 -16 -15 -16h-37z" />
    <glyph glyph-name="gdotaccent" unicode="&#x121;" horiz-adv-x="576" 
d="M207 -245c-34.667 0 -65.1699 4.83789 -91.5029 14.5049s-47 24.334 -62 44.001s-22.5 44.167 -22.5 73.5v24c0 30.667 8.5 56.334 25.5 77.001s38.5 36.167 64.5 46.5s52.667 15.5 80 15.5l20 -32c-20 0 -38.667 -3.16699 -56 -9.5s-31.5 -16.5 -42.5 -30.5
s-16.5 -32 -16.5 -54v-22c0 -32 10.667 -54.833 32 -68.5s50.333 -20.5 87 -20.5h124c40 0 71.5 7.66699 94.5 23s34.5 39.333 34.5 72v20c0 18.667 -3.66699 34.667 -11 48s-19.5 23.666 -36.5 30.999s-40.833 11 -71.5 11h-161c-41.333 0 -73.5 8.83301 -96.5 26.5
s-34.5 40.5 -34.5 68.5c0 26.667 7.83301 47.667 23.5 63s37.834 26 66.501 32c-24.667 10 -44 23.5 -58 40.5s-23.667 35.333 -29 55s-8 39.5 -8 59.5c0 41.333 8.33301 74.666 25 99.999s40.5 43.666 71.5 54.999s67.5 17 109.5 17h285v-45l-120 -10
c8.66699 -6 18.334 -13.833 29.001 -23.5s19.834 -23.334 27.501 -41.001s11.5 -41.834 11.5 -72.501c0 -27.333 -5.83301 -53.333 -17.5 -78s-31.167 -44.834 -58.5 -60.501s-65 -23.5 -113 -23.5h-85c-28 0 -50.167 -4.16699 -66.5 -12.5s-24.5 -23.166 -24.5 -44.499
c0 -16 6 -27.333 18 -34s24.667 -10 38 -10h177c41.333 0 75.5 -5.33301 102.5 -16s47.333 -26.834 61 -48.501s20.5 -49.167 20.5 -82.5v-22c0 -48.667 -16.5 -86.834 -49.5 -114.501s-82.167 -41.5 -147.5 -41.5h-149zM243.997 242.005l59.999 -0.00195312
c34 0 59.833 5.16699 77.5 15.5s29.834 23.833 36.501 40.5s10 34.667 10 54c0 30 -4.83301 53.833 -14.5 71.5s-23.167 30.334 -40.5 38.001s-37.333 11.5 -60 11.5h-57c-38 0 -67.833 -8.5 -89.5 -25.5s-32.5 -46.5 -32.5 -88.5c0 -41.333 9.83301 -71.166 29.5 -89.499
s46.5 -27.5 80.5 -27.5zM269.996 660.003c-10.667 0 -16.001 5.33301 -16.001 16v78c0 10.667 5.33301 16 16 16h37c4.66699 0 8.33398 -1.5 11.001 -4.5s4 -6.83301 4 -11.5v-78c0 -10.667 -5 -16 -15 -16h-37z" />
    <glyph glyph-name="uni0122" unicode="&#x122;" horiz-adv-x="653" 
d="M295 -5c-46.667 -0.666992 -85.333 6.50488 -116 21.5049s-54.667 37.833 -72 68.5s-29.666 69.667 -36.999 117s-11 103.333 -11 168c0 62 3.83301 116.333 11.5 163s20.834 85.5 39.501 116.5s44.167 54.167 76.5 69.5s72.833 23 121.5 23c26 0 53 -1 81 -3
s55.333 -5 82 -9s51.334 -8.66699 74.001 -14v-60c-13.333 2 -32 4.16699 -56 6.5s-50.833 4.16602 -80.5 5.49902s-59.167 2 -88.5 2c-48 0 -85.167 -9.83301 -111.5 -29.5s-44.666 -51.667 -54.999 -96s-15.5 -102.833 -15.5 -175.5
c0 -58.667 2.83301 -107.334 8.5 -146.001s15.167 -69.334 28.5 -92.001s31.5 -38.834 54.5 -48.501s52.167 -14.5 87.5 -14.5c31.333 0 63.666 4 96.999 12s61.666 16.667 84.999 26v217h-178v59c12.667 2 28 3.66699 46 5s37.167 2.5 57.5 3.5s40.833 1.5 61.5 1.5
c17.333 0 33.666 -0.166992 48.999 -0.5s28.666 -1.5 39.999 -3.5v-388h-58l-12 52c-24 -12 -54.5 -24.333 -91.5 -37s-76.5 -19.334 -118.5 -20.001zM257.001 -201.995l0.000976562 31.998l30 5c15.333 2.66699 28.166 6.5 38.499 11.5s17.833 14.333 22.5 28
s7 34.5 7 62.5h49c0 -33.333 -3 -60.166 -9 -80.499s-16.833 -35.166 -32.5 -44.499s-38.167 -14 -67.5 -14h-38z" />
    <glyph glyph-name="uni0123" unicode="&#x123;" horiz-adv-x="576" 
d="M207 -245c-34.667 0 -65.1699 4.83789 -91.5029 14.5049s-47 24.334 -62 44.001s-22.5 44.167 -22.5 73.5v24c0 30.667 8.5 56.334 25.5 77.001s38.5 36.167 64.5 46.5s52.667 15.5 80 15.5l20 -32c-20 0 -38.667 -3.16699 -56 -9.5s-31.5 -16.5 -42.5 -30.5
s-16.5 -32 -16.5 -54v-22c0 -32 10.667 -54.833 32 -68.5s50.333 -20.5 87 -20.5h124c40 0 71.5 7.66699 94.5 23s34.5 39.333 34.5 72v20c0 18.667 -3.66699 34.667 -11 48s-19.5 23.666 -36.5 30.999s-40.833 11 -71.5 11h-161c-41.333 0 -73.5 8.83301 -96.5 26.5
s-34.5 40.5 -34.5 68.5c0 26.667 7.83301 47.667 23.5 63s37.834 26 66.501 32c-24.667 10 -44 23.5 -58 40.5s-23.667 35.333 -29 55s-8 39.5 -8 59.5c0 41.333 8.33301 74.666 25 99.999s40.5 43.666 71.5 54.999s67.5 17 109.5 17h285v-45l-120 -10
c8.66699 -6 18.334 -13.833 29.001 -23.5s19.834 -23.334 27.501 -41.001s11.5 -41.834 11.5 -72.501c0 -27.333 -5.83301 -53.333 -17.5 -78s-31.167 -44.834 -58.5 -60.501s-65 -23.5 -113 -23.5h-85c-28 0 -50.167 -4.16699 -66.5 -12.5s-24.5 -23.166 -24.5 -44.499
c0 -16 6 -27.333 18 -34s24.667 -10 38 -10h177c41.333 0 75.5 -5.33301 102.5 -16s47.333 -26.834 61 -48.501s20.5 -49.167 20.5 -82.5v-22c0 -48.667 -16.5 -86.834 -49.5 -114.501s-82.167 -41.5 -147.5 -41.5h-149zM243.997 242.005l59.999 -0.00195312
c34 0 59.833 5.16699 77.5 15.5s29.834 23.833 36.501 40.5s10 34.667 10 54c0 30 -4.83301 53.833 -14.5 71.5s-23.167 30.334 -40.5 38.001s-37.333 11.5 -60 11.5h-57c-38 0 -67.833 -8.5 -89.5 -25.5s-32.5 -46.5 -32.5 -88.5c0 -41.333 9.83301 -71.166 29.5 -89.499
s46.5 -27.5 80.5 -27.5zM235.996 614.003c0 34 3 61.166 9 81.499s16.833 35 32.5 44s38.167 13.5 67.5 13.5h38v-32l-30 -5c-14.667 -2 -27.167 -5.66699 -37.5 -11s-18 -14.666 -23 -27.999s-7.5 -34.333 -7.5 -63h-49z" />
    <glyph glyph-name="Hcircumflex" unicode="&#x124;" horiz-adv-x="682" 
d="M77 0v736h80v-341h368v341h79v-736h-79v323h-368v-323h-80zM194 791l122 135h56l110 -135h-48l-92 97l-99 -97h-49z" />
    <glyph glyph-name="hcircumflex" unicode="&#x125;" horiz-adv-x="588" 
d="M76 0l0.00195312 763h79v-288c24.667 18 54.167 33.833 88.5 47.5s70.166 20.5 107.499 20.5s68.166 -8 92.499 -24s42.333 -37.667 54 -65s17.5 -57.666 17.5 -90.999v-363h-79v355c0 22.667 -4.5 42.667 -13.5 60s-21.833 31 -38.5 41s-36.667 15 -60 15
c-22 0 -42.333 -2.16699 -61 -6.5s-36.667 -10.333 -54 -18s-35.333 -16.834 -54 -27.501v-419h-79zM16.002 811l122 135h56l110 -135h-48l-92 97l-99 -97h-49z" />
    <glyph glyph-name="Hbar" unicode="&#x126;" horiz-adv-x="682" 
d="M15 525v46h652v-46h-652zM77 0v736h80v-341h368v341h79v-736h-79v323h-368v-323h-80z" />
    <glyph glyph-name="hbar" unicode="&#x127;" horiz-adv-x="588" 
d="M3 629v35h288v-35h-288zM76 0l0.00195312 763h79v-288c24.667 18 54.167 33.833 88.5 47.5s70.166 20.5 107.499 20.5s68.166 -8 92.499 -24s42.333 -37.667 54 -65s17.5 -57.666 17.5 -90.999v-363h-79v355c0 22.667 -4.5 42.667 -13.5 60s-21.833 31 -38.5 41
s-36.667 15 -60 15c-22 0 -42.333 -2.16699 -61 -6.5s-36.667 -10.333 -54 -18s-35.333 -16.834 -54 -27.501v-419h-79z" />
    <glyph glyph-name="Itilde" unicode="&#x128;" horiz-adv-x="234" 
d="M77 0v736h80v-736h-80zM-55 807c0.666992 26.667 5.66797 47.666 15.001 62.999s21.333 26.5 36 33.5s29.667 10.5 45 10.5c16 0 30.667 -3.16699 44 -9.5s26.166 -13.5 38.499 -21.5s24.333 -15 36 -21s23.834 -9 36.501 -9c17.333 0 31.666 5.33301 42.999 16
s17.333 26.334 18 47.001h40c-0.666992 -34 -9.33398 -60.667 -26.001 -80s-40 -29 -70 -29c-15.333 0 -29.666 3.16699 -42.999 9.5s-26.333 13.5 -39 21.5s-25 15.167 -37 21.5s-24.333 9.5 -37 9.5c-16 0 -29.833 -5 -41.5 -15s-17.5 -25.667 -17.5 -47h-41z" />
    <glyph glyph-name="itilde" unicode="&#x129;" horiz-adv-x="228" 
d="M76 0v534h79v-534h-79zM-49 647c0.666992 26.667 5.66797 47.666 15.001 62.999s21.333 26.5 36 33.5s29.667 10.5 45 10.5c16 0 30.667 -3.16699 44 -9.5s26.166 -13.5 38.499 -21.5s24.333 -15 36 -21s23.834 -9 36.501 -9c17.333 0 31.666 5.33301 42.999 16
s17.333 26.334 18 47.001h40c-0.666992 -34 -9.33398 -60.667 -26.001 -80s-40 -29 -70 -29c-15.333 0 -29.666 3.16699 -42.999 9.5s-26.333 13.5 -39 21.5s-25 15.167 -37 21.5s-24.333 9.5 -37 9.5c-16 0 -29.833 -5 -41.5 -15s-17.5 -25.667 -17.5 -47h-41z" />
    <glyph glyph-name="Imacron" unicode="&#x12a;" horiz-adv-x="234" 
d="M77 0v736h80v-736h-80zM-22 831v48h265v-48h-265z" />
    <glyph glyph-name="imacron" unicode="&#x12b;" horiz-adv-x="228" 
d="M76 0v534h79v-534h-79zM-20 671v48h265v-48h-265z" />
    <glyph glyph-name="Ibreve" unicode="&#x12c;" horiz-adv-x="234" 
d="M77 0v736h80v-736h-80zM110 789c-24 0 -45.832 4.5 -65.499 13.5s-35.5 23.833 -47.5 44.5s-18 48.334 -18 83.001h39c0 -38 9.16699 -64.833 27.5 -80.5s39.833 -23.167 64.5 -22.5c27.333 0 49.666 7.5 66.999 22.5s26 41.833 26 80.5h39c0 -35.333 -6 -63.333 -18 -84
s-28 -35.334 -48 -44.001s-42 -13 -66 -13z" />
    <glyph glyph-name="ibreve" unicode="&#x12d;" horiz-adv-x="228" 
d="M76 0v534h79v-534h-79zM108 629c-24 0 -45.832 4.5 -65.499 13.5s-35.5 23.833 -47.5 44.5s-18 48.334 -18 83.001h39c0 -38 9.16699 -64.833 27.5 -80.5s39.833 -23.167 64.5 -22.5c27.333 0 49.666 7.5 66.999 22.5s26 41.833 26 80.5h39c0 -35.333 -6 -63.333 -18 -84
s-28 -35.334 -48 -44.001s-42 -13 -66 -13z" />
    <glyph glyph-name="Iogonek" unicode="&#x12e;" horiz-adv-x="234" 
d="M77 0v736h80v-736h-80zM156 -187c-22 0 -41 3.99902 -57 11.999s-28 18.667 -36 32s-12 28.333 -12 45c0 19.333 6.16699 37.5 18.5 54.5s31.166 31.5 56.499 43.5h30c-20.667 -11.333 -36.334 -23.833 -47.001 -37.5s-16 -28.167 -16 -43.5
c0 -20 7.16699 -35.833 21.5 -47.5s34.833 -17.5 61.5 -17.5h6v-38c-3.33301 -1.33301 -7.16602 -2.16602 -11.499 -2.49902s-9.16602 -0.5 -14.499 -0.5z" />
    <glyph glyph-name="iogonek" unicode="&#x12f;" horiz-adv-x="231" 
d="M88 629c-10.667 0 -15.999 5.33301 -15.999 16v78c0 10.667 5.33301 16 16 16h56c5.33301 0 9.16602 -1.5 11.499 -4.5s3.5 -6.83301 3.5 -11.5v-78c0 -10.667 -5 -16 -15 -16h-56zM76.001 0v534h79v-534h-79zM155.001 -187c-22 0 -41 3.99902 -57 11.999
s-28 18.667 -36 32s-12 28.333 -12 45c0 19.333 6.16699 37.5 18.5 54.5s31.166 31.5 56.499 43.5h30c-20.667 -11.333 -36.334 -23.833 -47.001 -37.5s-16 -28.167 -16 -43.5c0 -20 7.16699 -35.833 21.5 -47.5s34.833 -17.5 61.5 -17.5h6v-38
c-3.33301 -1.33301 -7.16602 -2.16602 -11.499 -2.49902s-9.16602 -0.5 -14.499 -0.5z" />
    <glyph glyph-name="Idotaccent" unicode="&#x130;" horiz-adv-x="234" 
d="M77 0v736h80v-736h-80zM97 820c-10.667 0 -16.001 5.33301 -16.001 16v78c0 10.667 5.33301 16 16 16h37c4.66699 0 8.33398 -1.5 11.001 -4.5s4 -6.83301 4 -11.5v-78c0 -10.667 -5 -16 -15 -16h-37z" />
    <glyph glyph-name="dotlessi" unicode="&#x131;" horiz-adv-x="228" 
d="M76 0v534h79v-534h-79z" />
    <glyph glyph-name="Jcircumflex" unicode="&#x134;" horiz-adv-x="385" 
d="M140 -6c-18.667 0 -38.666 2.33301 -59.999 7s-39 10 -53 16v61c14 -2.66699 30.167 -5.5 48.5 -8.5s34.833 -4.5 49.5 -4.5c21.333 0 39.666 3 54.999 9s27.166 16.667 35.499 32s12.5 37 12.5 65v565h79v-575c0 -40 -6.16699 -72.333 -18.5 -97
s-30.666 -42.5 -54.999 -53.5s-55.5 -16.5 -93.5 -16.5zM121.001 791l122 135h56l110 -135h-48l-92 97l-99 -97h-49z" />
    <glyph glyph-name="jcircumflex" unicode="&#x135;" horiz-adv-x="231" 
d="M76 -237v771h79v-517c0 -48 -2 -94.667 -6 -140s-8.66699 -83.333 -14 -114h-59zM-32 631l122 135h56l110 -135h-48l-92 97l-99 -97h-49z" />
    <glyph glyph-name="uni0136" unicode="&#x136;" horiz-adv-x="605" 
d="M77 0v736h80v-333h129l202 333h84l-223 -368l226 -368h-85l-204 331h-129v-331h-80zM210 -202l0.000976562 31.998l30 5c15.333 2.66699 28.166 6.5 38.499 11.5s17.833 14.333 22.5 28s7 34.5 7 62.5h49c0 -33.333 -3 -60.166 -9 -80.499s-16.833 -35.166 -32.5 -44.499
s-38.167 -14 -67.5 -14h-38z" />
    <glyph glyph-name="uni0137" unicode="&#x137;" horiz-adv-x="506" 
d="M76 0v763h79v-442h76l163 213h84l-188 -249l200 -285h-84l-178 250h-73v-250h-79zM174 -202l0.000976562 31.998l30 5c15.333 2.66699 28.166 6.5 38.499 11.5s17.833 14.333 22.5 28s7 34.5 7 62.5h49c0 -33.333 -3 -60.166 -9 -80.499s-16.833 -35.166 -32.5 -44.499
s-38.167 -14 -67.5 -14h-38z" />
    <glyph glyph-name="kgreenlandic" unicode="&#x138;" horiz-adv-x="506" 
d="M76 0v540h79v-223h74l163 217h86l-188 -254l200 -280h-85l-176 245h-74v-245h-79z" />
    <glyph glyph-name="Lacute" unicode="&#x139;" horiz-adv-x="532" 
d="M225 0c-28.667 0 -54.167 4.49902 -76.5 13.499s-39.833 24.333 -52.5 46s-19 51.167 -19 88.5v588h80v-577c0 -24 4 -42.167 12 -54.5s18.667 -20.666 32 -24.999s27 -6.5 41 -6.5h264v-73h-281zM98 790.999l104 136h67l-125 -136h-46z" />
    <glyph glyph-name="lacute" unicode="&#x13a;" horiz-adv-x="294" 
d="M216 -1c-30.667 0 -56.3311 5.49902 -76.998 16.499s-36.334 29 -47.001 54s-16 58.833 -16 101.5v592h79v-582c0 -32 3 -56.167 9 -72.5s14.667 -27.666 26 -33.999s24.666 -10.5 39.999 -12.5l54 -6v-57h-68zM83.0029 864.999l104 136h67l-125 -136h-46z" />
    <glyph glyph-name="uni013B" unicode="&#x13b;" horiz-adv-x="532" 
d="M225 0c-28.667 0 -54.167 4.49902 -76.5 13.499s-39.833 24.333 -52.5 46s-19 51.167 -19 88.5v588h80v-577c0 -24 4 -42.167 12 -54.5s18.667 -20.666 32 -24.999s27 -6.5 41 -6.5h264v-73h-281zM191 -202.001l0.000976562 31.998l30 5
c15.333 2.66699 28.166 6.5 38.499 11.5s17.833 14.333 22.5 28s7 34.5 7 62.5h49c0 -33.333 -3 -60.166 -9 -80.499s-16.833 -35.166 -32.5 -44.499s-38.167 -14 -67.5 -14h-38z" />
    <glyph glyph-name="uni013C" unicode="&#x13c;" horiz-adv-x="294" 
d="M216 -1c-30.667 0 -56.3311 5.49902 -76.998 16.499s-36.334 29 -47.001 54s-16 58.833 -16 101.5v592h79v-582c0 -32 3 -56.167 9 -72.5s14.667 -27.666 26 -33.999s24.666 -10.5 39.999 -12.5l54 -6v-57h-68zM83.0029 -202.001l0.000976562 31.998l30 5
c15.333 2.66699 28.166 6.5 38.499 11.5s17.833 14.333 22.5 28s7 34.5 7 62.5h49c0 -33.333 -3 -60.166 -9 -80.499s-16.833 -35.166 -32.5 -44.499s-38.167 -14 -67.5 -14h-38z" />
    <glyph glyph-name="Lcaron" unicode="&#x13d;" horiz-adv-x="532" 
d="M225 0c-28.667 0 -54.167 4.49902 -76.5 13.499s-39.833 24.333 -52.5 46s-19 51.167 -19 88.5v588h80v-577c0 -24 4 -42.167 12 -54.5s18.667 -20.666 32 -24.999s27 -6.5 41 -6.5h264v-73h-281zM250 581.999l-6 141v60h73v-60l-6 -141h-61z" />
    <glyph glyph-name="lcaron" unicode="&#x13e;" horiz-adv-x="294" 
d="M216 -1c-30.667 0 -56.3311 5.49902 -76.998 16.499s-36.334 29 -47.001 54s-16 58.833 -16 101.5v592h79v-582c0 -32 3 -56.167 9 -72.5s14.667 -27.666 26 -33.999s24.666 -10.5 39.999 -12.5l54 -6v-57h-68zM228.003 581.999l-6 141v60h73v-60l-6 -141h-61z" />
    <glyph glyph-name="Ldot" unicode="&#x13f;" horiz-adv-x="532" 
d="M225 0c-28.667 0 -54.167 4.49902 -76.5 13.499s-39.833 24.333 -52.5 46s-19 51.167 -19 88.5v588h80v-577c0 -24 4 -42.167 12 -54.5s18.667 -20.666 32 -24.999s27 -6.5 41 -6.5h264v-73h-281zM370 351.999c-10.667 0 -16 4.99902 -16 14.999v47
c0 10.667 5.33301 16 16 16h44c11.333 0 17 -5.33301 17 -16v-47c0 -5.33301 -1.66699 -9.16602 -5 -11.499s-7.33301 -3.5 -12 -3.5h-44z" />
    <glyph glyph-name="ldot" unicode="&#x140;" horiz-adv-x="322" 
d="M216 -1c-30.667 0 -56.3311 5.49902 -76.998 16.499s-36.334 29 -47.001 54s-16 58.833 -16 101.5v592h79v-582c0 -32 3 -56.167 9 -72.5s14.667 -27.666 26 -33.999s24.666 -10.5 39.999 -12.5l54 -6v-57h-68zM255.003 338.999c-10.667 0 -16 4.99902 -16 14.999v47
c0 10.667 5.33301 16 16 16h44c11.333 0 17 -5.33301 17 -16v-47c0 -5.33301 -1.66699 -9.16602 -5 -11.499s-7.33301 -3.5 -12 -3.5h-44z" />
    <glyph glyph-name="Lslash" unicode="&#x141;" horiz-adv-x="532" 
d="M2 314v47l85 37l61 16l144 63v-46l-144 -63l-61 -17zM225 0c-28.667 0 -54.167 4.49902 -76.5 13.499s-39.833 24.333 -52.5 46s-19 51.167 -19 88.5v588h80v-577c0 -24 4 -42.167 12 -54.5s18.667 -20.666 32 -24.999s27 -6.5 41 -6.5h264v-73h-281z" />
    <glyph glyph-name="lslash" unicode="&#x142;" horiz-adv-x="294" 
d="M3 356v47l73 27l79 26l102 36v-47l-102 -36l-79 -26zM216 -1c-30.667 0 -56.3311 5.49902 -76.998 16.499s-36.334 29 -47.001 54s-16 58.833 -16 101.5v592h79v-582c0 -32 3 -56.167 9 -72.5s14.667 -27.666 26 -33.999s24.666 -10.5 39.999 -12.5l54 -6v-57h-68z" />
    <glyph glyph-name="Nacute" unicode="&#x143;" horiz-adv-x="683" 
d="M91 0v736h65l384 -599v599h79v-736h-65l-384 599v-599h-79zM320 791l104 136h67l-125 -136h-46z" />
    <glyph glyph-name="nacute" unicode="&#x144;" horiz-adv-x="588" 
d="M76 0v534h62l17 -59c25.333 18 55 33.833 89 47.5s69.333 20.5 106 20.5c39.333 0 71 -8.33301 95 -25s41.667 -38.667 53 -66s17 -57 17 -89v-363h-79v354c0 22.667 -4.5 42.834 -13.5 60.501s-21.667 31.5 -38 41.5s-36.5 15 -60.5 15c-22 0 -42.5 -2.16699 -61.5 -6.5
s-37 -10.333 -54 -18s-34.833 -16.834 -53.5 -27.501v-419h-79zM261 631l104 136h67l-125 -136h-46z" />
    <glyph glyph-name="uni0145" unicode="&#x145;" horiz-adv-x="683" 
d="M91 0v736h65l384 -599v599h79v-736h-65l-384 599v-599h-79zM257 -202l0.000976562 31.998l30 5c15.333 2.66699 28.166 6.5 38.499 11.5s17.833 14.333 22.5 28s7 34.5 7 62.5h49c0 -33.333 -3 -60.166 -9 -80.499s-16.833 -35.166 -32.5 -44.499s-38.167 -14 -67.5 -14
h-38z" />
    <glyph glyph-name="uni0146" unicode="&#x146;" horiz-adv-x="588" 
d="M76 0v534h62l17 -59c25.333 18 55 33.833 89 47.5s69.333 20.5 106 20.5c39.333 0 71 -8.33301 95 -25s41.667 -38.667 53 -66s17 -57 17 -89v-363h-79v354c0 22.667 -4.5 42.834 -13.5 60.501s-21.667 31.5 -38 41.5s-36.5 15 -60.5 15c-22 0 -42.5 -2.16699 -61.5 -6.5
s-37 -10.333 -54 -18s-34.833 -16.834 -53.5 -27.501v-419h-79zM211 -202l0.000976562 31.998l30 5c15.333 2.66699 28.166 6.5 38.499 11.5s17.833 14.333 22.5 28s7 34.5 7 62.5h49c0 -33.333 -3 -60.166 -9 -80.499s-16.833 -35.166 -32.5 -44.499s-38.167 -14 -67.5 -14
h-38z" />
    <glyph glyph-name="Ncaron" unicode="&#x147;" horiz-adv-x="683" 
d="M91 0v736h65l384 -599v599h79v-736h-65l-384 599v-599h-79zM310 791l-111 135h48l92 -97l100 97h48l-121 -135h-56z" />
    <glyph glyph-name="ncaron" unicode="&#x148;" horiz-adv-x="588" 
d="M76 0v534h62l17 -59c25.333 18 55 33.833 89 47.5s69.333 20.5 106 20.5c39.333 0 71 -8.33301 95 -25s41.667 -38.667 53 -66s17 -57 17 -89v-363h-79v354c0 22.667 -4.5 42.834 -13.5 60.501s-21.667 31.5 -38 41.5s-36.5 15 -60.5 15c-22 0 -42.5 -2.16699 -61.5 -6.5
s-37 -10.333 -54 -18s-34.833 -16.834 -53.5 -27.501v-419h-79zM264 631l-111 135h48l92 -97l100 97h48l-121 -135h-56z" />
    <glyph glyph-name="Eng" unicode="&#x14a;" horiz-adv-x="679" 
d="M439 -243c-18.667 0 -38.6699 2.33301 -60.0029 7s-39 10 -53 16v61c14.667 -2.66699 31.334 -5.5 50.001 -8.5s35.667 -4.5 51 -4.5c22.667 0 42.334 3 59.001 9s29.834 16.667 39.501 32s14.5 37 14.5 65v107h79v-117c0 -40 -6.66699 -72.333 -20 -97
s-33.333 -42.5 -60 -53.5s-60 -16.5 -100 -16.5zM90.9971 0v736h65l384 -599v599h79v-736h-65l-384 599v-599h-79z" />
    <glyph glyph-name="eng" unicode="&#x14b;" horiz-adv-x="588" 
d="M322 -237c21.333 16.667 40.666 35.5 57.999 56.5s31 46 41 75s15 63.167 15 102.5v191h79v-189c0 -42.667 -5.66699 -79 -17 -109s-26.666 -55.333 -45.999 -76s-41.333 -37.667 -66 -51h-64zM76 0v534h62l17 -59c25.333 18 55 33.833 89 47.5s69.333 20.5 106 20.5
c39.333 0 71 -8.33301 95 -25s41.667 -38.667 53 -66s17 -57 17 -89v-363h-79v354c0 22.667 -4.5 42.834 -13.5 60.501s-21.667 31.5 -38 41.5s-36.5 15 -60.5 15c-22 0 -42.5 -2.16699 -61.5 -6.5s-37 -10.333 -54 -18s-34.833 -16.834 -53.5 -27.501v-419h-79z" />
    <glyph glyph-name="Omacron" unicode="&#x14c;" horiz-adv-x="686" 
d="M343 -6c-47.333 0 -88.8311 4.5 -124.498 13.5s-65.334 26.167 -89.001 51.5s-41.334 62.666 -53.001 111.999s-17.5 114 -17.5 194s6 144.833 18 194.5s30 87.667 54 114s53.667 44.333 89 54s76.333 14.5 123 14.5c48 0 89.833 -4.83301 125.5 -14.5
s65.334 -27.667 89.001 -54s41.167 -64.333 52.5 -114s17 -114.5 17 -194.5s-5.83301 -144.667 -17.5 -194s-29.334 -86.666 -53.001 -111.999s-53.167 -42.5 -88.5 -51.5s-77 -13.5 -125 -13.5zM343.002 65c37.333 0 69.002 3.66699 95.002 11s47.167 21.5 63.5 42.5
s28.166 51.167 35.499 90.5s11 91.333 11 156c0 67.333 -3.83301 121.333 -11.5 162s-19.667 71.334 -36 92.001s-37.333 34.334 -63 41.001s-57.167 10 -94.5 10c-34.667 0 -64.834 -3.33301 -90.501 -10s-47 -20.334 -64 -41.001s-29.667 -51.334 -38 -92.001
s-12.5 -94.667 -12.5 -162c0 -64.667 3.5 -116.667 10.5 -156s18.5 -69.5 34.5 -90.5s37.167 -35.167 63.5 -42.5s58.5 -11 96.5 -11zM204.004 831v48h265v-48h-265z" />
    <glyph glyph-name="omacron" unicode="&#x14d;" horiz-adv-x="577" 
d="M288 -6c-38.667 0 -72.5 4 -101.5 12s-53.167 22 -72.5 42s-33.666 47.833 -42.999 83.5s-14 81.167 -14 136.5c0 56 4.66699 101.833 14 137.5s23.666 63.334 42.999 83.001s43.5 33.334 72.5 41.001s62.833 11.5 101.5 11.5s72.5 -4 101.5 -12
s53.167 -21.833 72.5 -41.5s33.833 -47.334 43.5 -83.001s14.5 -81.167 14.5 -136.5c0 -56 -4.83301 -101.833 -14.5 -137.5s-24 -63.334 -43 -83.001s-43.167 -33.5 -72.5 -41.5s-63.333 -12 -102 -12zM288 59c24.667 0 46.5 2.33301 65.5 7s34.833 14 47.5 28
s22.334 35 29.001 63s10 65 10 111c0 46.667 -3.33301 83.667 -10 111s-16.334 48 -29.001 62s-28.5 23.333 -47.5 28s-40.833 7 -65.5 7c-25.333 0 -47.333 -2.33301 -66 -7s-34.334 -14 -47.001 -28s-22.334 -34.667 -29.001 -62s-10 -64.333 -10 -111
c0 -46 3.33301 -83 10 -111s16.334 -49 29.001 -63s28.334 -23.333 47.001 -28s40.667 -7 66 -7zM153 671v48h265v-48h-265z" />
    <glyph glyph-name="Obreve" unicode="&#x14e;" horiz-adv-x="686" 
d="M343 -6c-47.333 0 -88.8311 4.5 -124.498 13.5s-65.334 26.167 -89.001 51.5s-41.334 62.666 -53.001 111.999s-17.5 114 -17.5 194s6 144.833 18 194.5s30 87.667 54 114s53.667 44.333 89 54s76.333 14.5 123 14.5c48 0 89.833 -4.83301 125.5 -14.5
s65.334 -27.667 89.001 -54s41.167 -64.333 52.5 -114s17 -114.5 17 -194.5s-5.83301 -144.667 -17.5 -194s-29.334 -86.666 -53.001 -111.999s-53.167 -42.5 -88.5 -51.5s-77 -13.5 -125 -13.5zM343.002 65c37.333 0 69.002 3.66699 95.002 11s47.167 21.5 63.5 42.5
s28.166 51.167 35.499 90.5s11 91.333 11 156c0 67.333 -3.83301 121.333 -11.5 162s-19.667 71.334 -36 92.001s-37.333 34.334 -63 41.001s-57.167 10 -94.5 10c-34.667 0 -64.834 -3.33301 -90.501 -10s-47 -20.334 -64 -41.001s-29.667 -51.334 -38 -92.001
s-12.5 -94.667 -12.5 -162c0 -64.667 3.5 -116.667 10.5 -156s18.5 -69.5 34.5 -90.5s37.167 -35.167 63.5 -42.5s58.5 -11 96.5 -11zM336.004 789c-24 0 -45.832 4.5 -65.499 13.5s-35.5 23.833 -47.5 44.5s-18 48.334 -18 83.001h39c0 -38 9.16699 -64.833 27.5 -80.5
s39.833 -23.167 64.5 -22.5c27.333 0 49.666 7.5 66.999 22.5s26 41.833 26 80.5h39c0 -35.333 -6 -63.333 -18 -84s-28 -35.334 -48 -44.001s-42 -13 -66 -13z" />
    <glyph glyph-name="obreve" unicode="&#x14f;" horiz-adv-x="577" 
d="M288 -6c-38.667 0 -72.5 4 -101.5 12s-53.167 22 -72.5 42s-33.666 47.833 -42.999 83.5s-14 81.167 -14 136.5c0 56 4.66699 101.833 14 137.5s23.666 63.334 42.999 83.001s43.5 33.334 72.5 41.001s62.833 11.5 101.5 11.5s72.5 -4 101.5 -12
s53.167 -21.833 72.5 -41.5s33.833 -47.334 43.5 -83.001s14.5 -81.167 14.5 -136.5c0 -56 -4.83301 -101.833 -14.5 -137.5s-24 -63.334 -43 -83.001s-43.167 -33.5 -72.5 -41.5s-63.333 -12 -102 -12zM288 59c24.667 0 46.5 2.33301 65.5 7s34.833 14 47.5 28
s22.334 35 29.001 63s10 65 10 111c0 46.667 -3.33301 83.667 -10 111s-16.334 48 -29.001 62s-28.5 23.333 -47.5 28s-40.833 7 -65.5 7c-25.333 0 -47.333 -2.33301 -66 -7s-34.334 -14 -47.001 -28s-22.334 -34.667 -29.001 -62s-10 -64.333 -10 -111
c0 -46 3.33301 -83 10 -111s16.334 -49 29.001 -63s28.334 -23.333 47.001 -28s40.667 -7 66 -7zM281 629c-24 0 -45.832 4.5 -65.499 13.5s-35.5 23.833 -47.5 44.5s-18 48.334 -18 83.001h39c0 -38 9.16699 -64.833 27.5 -80.5s39.833 -23.167 64.5 -22.5
c27.333 0 49.666 7.5 66.999 22.5s26 41.833 26 80.5h39c0 -35.333 -6 -63.333 -18 -84s-28 -35.334 -48 -44.001s-42 -13 -66 -13z" />
    <glyph glyph-name="Ohungarumlaut" unicode="&#x150;" horiz-adv-x="686" 
d="M343 -6c-47.333 0 -88.8311 4.5 -124.498 13.5s-65.334 26.167 -89.001 51.5s-41.334 62.666 -53.001 111.999s-17.5 114 -17.5 194s6 144.833 18 194.5s30 87.667 54 114s53.667 44.333 89 54s76.333 14.5 123 14.5c48 0 89.833 -4.83301 125.5 -14.5
s65.334 -27.667 89.001 -54s41.167 -64.333 52.5 -114s17 -114.5 17 -194.5s-5.83301 -144.667 -17.5 -194s-29.334 -86.666 -53.001 -111.999s-53.167 -42.5 -88.5 -51.5s-77 -13.5 -125 -13.5zM343.002 65c37.333 0 69.002 3.66699 95.002 11s47.167 21.5 63.5 42.5
s28.166 51.167 35.499 90.5s11 91.333 11 156c0 67.333 -3.83301 121.333 -11.5 162s-19.667 71.334 -36 92.001s-37.333 34.334 -63 41.001s-57.167 10 -94.5 10c-34.667 0 -64.834 -3.33301 -90.501 -10s-47 -20.334 -64 -41.001s-29.667 -51.334 -38 -92.001
s-12.5 -94.667 -12.5 -162c0 -64.667 3.5 -116.667 10.5 -156s18.5 -69.5 34.5 -90.5s37.167 -35.167 63.5 -42.5s58.5 -11 96.5 -11zM374.004 791l100 136h65l-119 -136h-46zM224.004 791l100 136h65l-119 -136h-46z" />
    <glyph glyph-name="ohungarumlaut" unicode="&#x151;" horiz-adv-x="577" 
d="M288 -6c-38.667 0 -72.5 4 -101.5 12s-53.167 22 -72.5 42s-33.666 47.833 -42.999 83.5s-14 81.167 -14 136.5c0 56 4.66699 101.833 14 137.5s23.666 63.334 42.999 83.001s43.5 33.334 72.5 41.001s62.833 11.5 101.5 11.5s72.5 -4 101.5 -12
s53.167 -21.833 72.5 -41.5s33.833 -47.334 43.5 -83.001s14.5 -81.167 14.5 -136.5c0 -56 -4.83301 -101.833 -14.5 -137.5s-24 -63.334 -43 -83.001s-43.167 -33.5 -72.5 -41.5s-63.333 -12 -102 -12zM288 59c24.667 0 46.5 2.33301 65.5 7s34.833 14 47.5 28
s22.334 35 29.001 63s10 65 10 111c0 46.667 -3.33301 83.667 -10 111s-16.334 48 -29.001 62s-28.5 23.333 -47.5 28s-40.833 7 -65.5 7c-25.333 0 -47.333 -2.33301 -66 -7s-34.334 -14 -47.001 -28s-22.334 -34.667 -29.001 -62s-10 -64.333 -10 -111
c0 -46 3.33301 -83 10 -111s16.334 -49 29.001 -63s28.334 -23.333 47.001 -28s40.667 -7 66 -7zM319 631l100 136h65l-119 -136h-46zM169 631l100 136h65l-119 -136h-46z" />
    <glyph glyph-name="OE" unicode="&#x152;" horiz-adv-x="1058" 
d="M343 -6c-47.333 0 -88.8311 4.5 -124.498 13.5s-65.334 26.167 -89.001 51.5s-41.334 62.666 -53.001 111.999s-17.5 114 -17.5 194s6 144.833 18 194.5s30 87.667 54 114s53.667 44.333 89 54s76.333 14.5 123 14.5c48 0 89.833 -4.83301 125.5 -14.5
s65.334 -27.667 89.001 -54s41.167 -64.333 52.5 -114s17 -114.5 17 -194.5s-5.83301 -144.667 -17.5 -194s-29.334 -86.666 -53.001 -111.999s-53.167 -42.5 -88.5 -51.5s-77 -13.5 -125 -13.5zM343.002 65c37.333 0 69.002 3.66699 95.002 11s47.167 21.5 63.5 42.5
s28.166 51.167 35.499 90.5s11 91.333 11 156c0 67.333 -3.83301 121.333 -11.5 162s-19.667 71.334 -36 92.001s-37.333 34.334 -63 41.001s-57.167 10 -94.5 10c-34.667 0 -64.834 -3.33301 -90.501 -10s-47 -20.334 -64 -41.001s-29.667 -51.334 -38 -92.001
s-12.5 -94.667 -12.5 -162c0 -64.667 3.5 -116.667 10.5 -156s18.5 -69.5 34.5 -90.5s37.167 -35.167 63.5 -42.5s58.5 -11 96.5 -11zM704.004 -4c-16 0 -32.9961 1.50098 -50.9961 4.50098s-35 9.16699 -51 18.5s-29 23.5 -39 42.5s-15 44.833 -15 77.5v449
c0 28.667 4.16699 52.5 12.5 71.5s19.5 34 33.5 45s29.667 19 47 24s34.666 7.5 51.999 7.5c41.333 -0.666992 79.666 -1.5 114.999 -2.5s68.833 -2 100.5 -3s62.5 -2.16699 92.5 -3.5v-64h-288c-26 0 -46.667 -7 -62 -21s-23 -36.333 -23 -67v-174l329 -5v-61l-329 -5v-173
c0 -24.667 4.16699 -43.334 12.5 -56.001s19.5 -21 33.5 -25s28.333 -6 43 -6h284v-64c-30.667 -2 -62.834 -3.66699 -96.501 -5s-67.334 -2.33301 -101.001 -3z" />
    <glyph glyph-name="oe" unicode="&#x153;" horiz-adv-x="921" 
d="M286 -6c-38.667 0 -72.3301 4 -100.997 12s-52.5 22 -71.5 42s-33.167 47.833 -42.5 83.5s-14 81.167 -14 136.5c0 56 4.66699 101.833 14 137.5s23.666 63.334 42.999 83.001s43.5 33.334 72.5 41.001s62.833 11.5 101.5 11.5c36 0 67.833 -4 95.5 -12
s50.5 -21.833 68.5 -41.5s31.667 -47.334 41 -83.001s14 -81.167 14 -136.5c0 -56 -4.5 -101.833 -13.5 -137.5s-22.833 -63.334 -41.5 -83.001s-41.834 -33.5 -69.501 -41.5s-59.834 -12 -96.501 -12zM288.004 56c24.667 0 46.5 2.33301 65.5 7s34.833 14.167 47.5 28.5
s22.334 35.666 29.001 63.999s10 65.833 10 112.5c0 47.333 -3.33301 85 -10 113s-16.334 49 -29.001 63s-28.5 23.333 -47.5 28s-40.833 7 -65.5 7c-25.333 0 -47.333 -2.33301 -66 -7s-34.334 -14 -47.001 -28s-22.334 -35 -29.001 -63s-10 -65.667 -10 -113
c0 -46.667 3.33301 -84.167 10 -112.5s16.334 -49.666 29.001 -63.999s28.334 -23.833 47.001 -28.5s40.667 -7 66 -7zM655.004 -6c-46.667 0 -85.1689 9.16602 -115.502 27.499s-53 47.5 -68 87.5s-22.5 93 -22.5 159c0 64 6.5 116.167 19.5 156.5s34.333 69.833 64 88.5
s69.834 28 120.501 28c46 0 84.5 -4.83301 115.5 -14.5s54.667 -27.667 71 -54s24.5 -64.833 24.5 -115.5c0 -28 -6.16699 -51.167 -18.5 -69.5s-29.333 -31.666 -51 -39.999s-46.5 -12.5 -74.5 -12.5h-205c0.666992 -63.333 13.5 -109 38.5 -137s65.5 -42 121.5 -42h175
v-48c-29.333 -4 -59.666 -7.33301 -90.999 -10s-66 -4 -104 -4zM514.002 286.999l190.998 -0.000976562c18 0 33.333 2 46 6s22.667 11.833 30 23.5s11 27.5 11 47.5c0 33.333 -5 58.333 -15 75s-25.333 27.834 -46 33.501s-46.667 8.5 -78 8.5
c-35.333 0 -63.166 -6.66699 -83.499 -20s-34.666 -34.333 -42.999 -63s-12.5 -65.667 -12.5 -111z" />
    <glyph glyph-name="Racute" unicode="&#x154;" horiz-adv-x="608" 
d="M77 0l-0.000976562 735.999h290c24 0 47.333 -2.83301 70 -8.5s43.167 -16.167 61.5 -31.5s32.833 -37.166 43.5 -65.499s16 -65.5 16 -111.5c0 -40 -4.33301 -72.833 -13 -98.5s-20 -46 -34 -61s-29.167 -26 -45.5 -33s-32.166 -11.833 -47.499 -14.5l151 -312h-81
l-143 301c-10.667 0 -24 0.333008 -40 1s-33 1 -51 1s-35.5 0.333008 -52.5 1s-31.833 1 -44.5 1v-305h-80zM156.999 365.999h198.003c17.333 0 33.333 2 48 6s27.667 11.5 39 22.5s20.333 26.5 27 46.5s10 46 10 78c0 30.667 -3.33301 55.5 -10 74.5
s-15.834 33.667 -27.501 44s-24.834 17.333 -39.501 21s-30.334 5.5 -47.001 5.5h-198v-298zM274.002 790.999l104 136h67l-125 -136h-46z" />
    <glyph glyph-name="racute" unicode="&#x155;" horiz-adv-x="412" 
d="M76 0v533.999h60l19 -93c24 28.667 50.833 52.334 80.5 71.001s63.834 28 102.501 28c9.33301 0 18.166 -0.333008 26.499 -1s16.166 -2 23.499 -4v-81c-8.66699 1.33301 -18 2.5 -28 3.5s-20 1.5 -30 1.5c-24.667 0 -46.667 -3 -66 -9s-37.666 -15 -54.999 -27
s-35.333 -26.667 -54 -44v-379h-79zM178 630.999l104 136h67l-125 -136h-46z" />
    <glyph glyph-name="uni0156" unicode="&#x156;" horiz-adv-x="608" 
d="M77 0l-0.000976562 735.999h290c24 0 47.333 -2.83301 70 -8.5s43.167 -16.167 61.5 -31.5s32.833 -37.166 43.5 -65.499s16 -65.5 16 -111.5c0 -40 -4.33301 -72.833 -13 -98.5s-20 -46 -34 -61s-29.167 -26 -45.5 -33s-32.166 -11.833 -47.499 -14.5l151 -312h-81
l-143 301c-10.667 0 -24 0.333008 -40 1s-33 1 -51 1s-35.5 0.333008 -52.5 1s-31.833 1 -44.5 1v-305h-80zM156.999 365.999h198.003c17.333 0 33.333 2 48 6s27.667 11.5 39 22.5s20.333 26.5 27 46.5s10 46 10 78c0 30.667 -3.33301 55.5 -10 74.5
s-15.834 33.667 -27.501 44s-24.834 17.333 -39.501 21s-30.334 5.5 -47.001 5.5h-198v-298zM213.002 -202.001l0.000976562 31.998l30 5c15.333 2.66699 28.166 6.5 38.499 11.5s17.833 14.333 22.5 28s7 34.5 7 62.5h49c0 -33.333 -3 -60.166 -9 -80.499
s-16.833 -35.166 -32.5 -44.499s-38.167 -14 -67.5 -14h-38z" />
    <glyph glyph-name="uni0157" unicode="&#x157;" horiz-adv-x="412" 
d="M76 0v533.999h60l19 -93c24 28.667 50.833 52.334 80.5 71.001s63.834 28 102.501 28c9.33301 0 18.166 -0.333008 26.499 -1s16.166 -2 23.499 -4v-81c-8.66699 1.33301 -18 2.5 -28 3.5s-20 1.5 -30 1.5c-24.667 0 -46.667 -3 -66 -9s-37.666 -15 -54.999 -27
s-35.333 -26.667 -54 -44v-379h-79zM33 -202.001l0.000976562 31.998l30 5c15.333 2.66699 28.166 6.5 38.499 11.5s17.833 14.333 22.5 28s7 34.5 7 62.5h49c0 -33.333 -3 -60.166 -9 -80.499s-16.833 -35.166 -32.5 -44.499s-38.167 -14 -67.5 -14h-38z" />
    <glyph glyph-name="Rcaron" unicode="&#x158;" horiz-adv-x="608" 
d="M77 0l-0.000976562 735.999h290c24 0 47.333 -2.83301 70 -8.5s43.167 -16.167 61.5 -31.5s32.833 -37.166 43.5 -65.499s16 -65.5 16 -111.5c0 -40 -4.33301 -72.833 -13 -98.5s-20 -46 -34 -61s-29.167 -26 -45.5 -33s-32.166 -11.833 -47.499 -14.5l151 -312h-81
l-143 301c-10.667 0 -24 0.333008 -40 1s-33 1 -51 1s-35.5 0.333008 -52.5 1s-31.833 1 -44.5 1v-305h-80zM156.999 365.999h198.003c17.333 0 33.333 2 48 6s27.667 11.5 39 22.5s20.333 26.5 27 46.5s10 46 10 78c0 30.667 -3.33301 55.5 -10 74.5
s-15.834 33.667 -27.501 44s-24.834 17.333 -39.501 21s-30.334 5.5 -47.001 5.5h-198v-298zM264.002 790.999l-111 135h48l92 -97l100 97h48l-121 -135h-56z" />
    <glyph glyph-name="rcaron" unicode="&#x159;" horiz-adv-x="412" 
d="M76 0v533.999h60l19 -93c24 28.667 50.833 52.334 80.5 71.001s63.834 28 102.501 28c9.33301 0 18.166 -0.333008 26.499 -1s16.166 -2 23.499 -4v-81c-8.66699 1.33301 -18 2.5 -28 3.5s-20 1.5 -30 1.5c-24.667 0 -46.667 -3 -66 -9s-37.666 -15 -54.999 -27
s-35.333 -26.667 -54 -44v-379h-79zM181 630.999l-111 135h48l92 -97l100 97h48l-121 -135h-56z" />
    <glyph glyph-name="Sacute" unicode="&#x15a;" horiz-adv-x="578" 
d="M286 -6c-14.667 0 -32.1689 0.501953 -52.502 1.50195s-41.166 2.33301 -62.499 4s-41.5 3.5 -60.5 5.5s-34.833 4.33301 -47.5 7v61c16.667 -1.33301 37 -2.66602 61 -3.99902s49.833 -2.33301 77.5 -3s54.834 -1 81.501 -1c30 0 57 3 81 9s43.167 17 57.5 33
s21.5 39 21.5 69v50c0 34 -8.66699 59.833 -26 77.5s-45.333 26.5 -84 26.5h-79c-60.667 0 -108.167 13.333 -142.5 40s-51.5 72.667 -51.5 138v42c0 69.333 18.667 118.666 56 147.999s90 44 158 44c21.333 0 45.333 -1.16699 72 -3.5s52.5 -5 77.5 -8
s45.833 -6.16699 62.5 -9.5v-61c-29.333 2.66699 -62.5 5 -99.5 7s-71.833 3 -104.5 3c-30 0 -56 -3.5 -78 -10.5s-38.833 -19.333 -50.5 -37s-17.5 -42.834 -17.5 -75.501v-34c0 -40.667 10.667 -68.667 32 -84s51 -23 89 -23h85c40.667 0 74 -7.33301 100 -22
s45.333 -34.834 58 -60.501s19 -55.167 19 -88.5v-57c0 -49.333 -10.5 -87.333 -31.5 -114s-49 -45 -84 -55s-74.167 -15 -117.5 -15zM263.998 791.002l104 136h67l-125 -136h-46z" />
    <glyph glyph-name="sacute" unicode="&#x15b;" horiz-adv-x="500" 
d="M260 -6c-13.333 0 -29.6719 0.334961 -49.0049 1.00195s-39.5 1.66699 -60.5 3s-40 2.83301 -57 4.5s-30.167 3.5 -39.5 5.5v48h219c22 0 41 1.66699 57 5s28.5 10.666 37.5 21.999s13.5 28.333 13.5 51v24c0 23.333 -7.66699 41.5 -23 54.5s-40 19.5 -74 19.5h-75
c-31.333 0 -59.166 4 -83.499 12s-43.166 21.667 -56.499 41s-20 46 -20 80v28c0 33.333 6.5 60.666 19.5 81.999s33.333 37.333 61 48s63.5 16 107.5 16c18.667 0 40.167 -0.666992 64.5 -2s48.166 -3.16602 71.499 -5.49902s42.333 -4.83301 57 -7.5v-48h-206
c-34 0 -60.167 -5.66699 -78.5 -17s-27.5 -33.333 -27.5 -66v-22c0 -20.667 4.33301 -36.167 13 -46.5s20.834 -17.166 36.501 -20.499s33.834 -5 54.501 -5h76c48.667 0 86.334 -11.333 113.001 -34s40 -55.334 40 -98.001v-37c0 -36 -8.16699 -63.833 -24.5 -83.5
s-38.666 -33.334 -66.999 -41.001s-61.5 -11.5 -99.5 -11.5zM207.994 631.002l104 136h67l-125 -136h-46z" />
    <glyph glyph-name="Scircumflex" unicode="&#x15c;" horiz-adv-x="578" 
d="M286 -6c-14.667 0 -32.1689 0.501953 -52.502 1.50195s-41.166 2.33301 -62.499 4s-41.5 3.5 -60.5 5.5s-34.833 4.33301 -47.5 7v61c16.667 -1.33301 37 -2.66602 61 -3.99902s49.833 -2.33301 77.5 -3s54.834 -1 81.501 -1c30 0 57 3 81 9s43.167 17 57.5 33
s21.5 39 21.5 69v50c0 34 -8.66699 59.833 -26 77.5s-45.333 26.5 -84 26.5h-79c-60.667 0 -108.167 13.333 -142.5 40s-51.5 72.667 -51.5 138v42c0 69.333 18.667 118.666 56 147.999s90 44 158 44c21.333 0 45.333 -1.16699 72 -3.5s52.5 -5 77.5 -8
s45.833 -6.16699 62.5 -9.5v-61c-29.333 2.66699 -62.5 5 -99.5 7s-71.833 3 -104.5 3c-30 0 -56 -3.5 -78 -10.5s-38.833 -19.333 -50.5 -37s-17.5 -42.834 -17.5 -75.501v-34c0 -40.667 10.667 -68.667 32 -84s51 -23 89 -23h85c40.667 0 74 -7.33301 100 -22
s45.333 -34.834 58 -60.501s19 -55.167 19 -88.5v-57c0 -49.333 -10.5 -87.333 -31.5 -114s-49 -45 -84 -55s-74.167 -15 -117.5 -15zM135.998 791.002l122 135h56l110 -135h-48l-92 97l-99 -97h-49z" />
    <glyph glyph-name="scircumflex" unicode="&#x15d;" horiz-adv-x="500" 
d="M260 -6c-13.333 0 -29.6719 0.334961 -49.0049 1.00195s-39.5 1.66699 -60.5 3s-40 2.83301 -57 4.5s-30.167 3.5 -39.5 5.5v48h219c22 0 41 1.66699 57 5s28.5 10.666 37.5 21.999s13.5 28.333 13.5 51v24c0 23.333 -7.66699 41.5 -23 54.5s-40 19.5 -74 19.5h-75
c-31.333 0 -59.166 4 -83.499 12s-43.166 21.667 -56.499 41s-20 46 -20 80v28c0 33.333 6.5 60.666 19.5 81.999s33.333 37.333 61 48s63.5 16 107.5 16c18.667 0 40.167 -0.666992 64.5 -2s48.166 -3.16602 71.499 -5.49902s42.333 -4.83301 57 -7.5v-48h-206
c-34 0 -60.167 -5.66699 -78.5 -17s-27.5 -33.333 -27.5 -66v-22c0 -20.667 4.33301 -36.167 13 -46.5s20.834 -17.166 36.501 -20.499s33.834 -5 54.501 -5h76c48.667 0 86.334 -11.333 113.001 -34s40 -55.334 40 -98.001v-37c0 -36 -8.16699 -63.833 -24.5 -83.5
s-38.666 -33.334 -66.999 -41.001s-61.5 -11.5 -99.5 -11.5zM92.9941 631.002l122 135h56l110 -135h-48l-92 97l-99 -97h-49z" />
    <glyph glyph-name="Scedilla" unicode="&#x15e;" horiz-adv-x="578" 
d="M286 -6c-14.667 0 -32.1689 0.501953 -52.502 1.50195s-41.166 2.33301 -62.499 4s-41.5 3.5 -60.5 5.5s-34.833 4.33301 -47.5 7v61c16.667 -1.33301 37 -2.66602 61 -3.99902s49.833 -2.33301 77.5 -3s54.834 -1 81.501 -1c30 0 57 3 81 9s43.167 17 57.5 33
s21.5 39 21.5 69v50c0 34 -8.66699 59.833 -26 77.5s-45.333 26.5 -84 26.5h-79c-60.667 0 -108.167 13.333 -142.5 40s-51.5 72.667 -51.5 138v42c0 69.333 18.667 118.666 56 147.999s90 44 158 44c21.333 0 45.333 -1.16699 72 -3.5s52.5 -5 77.5 -8
s45.833 -6.16699 62.5 -9.5v-61c-29.333 2.66699 -62.5 5 -99.5 7s-71.833 3 -104.5 3c-30 0 -56 -3.5 -78 -10.5s-38.833 -19.333 -50.5 -37s-17.5 -42.834 -17.5 -75.501v-34c0 -40.667 10.667 -68.667 32 -84s51 -23 89 -23h85c40.667 0 74 -7.33301 100 -22
s45.333 -34.834 58 -60.501s19 -55.167 19 -88.5v-57c0 -49.333 -10.5 -87.333 -31.5 -114s-49 -45 -84 -55s-74.167 -15 -117.5 -15zM212.998 -189.998l-0.000976562 33.0029l22 2c18.667 2 32.667 6.5 42 13.5s14 17.5 14 31.5c0 11.333 -4.16699 21.166 -12.5 29.499
s-26.166 13.166 -53.499 14.499l33 12c28.667 0 49.834 -5.33301 63.501 -16s20.5 -26.667 20.5 -48c0 -22.667 -8.33301 -40.334 -25 -53.001s-40.334 -19 -71.001 -19h-33zM224.997 -65.9951l52 79h37l-52 -79h-37z" />
    <glyph glyph-name="scedilla" unicode="&#x15f;" horiz-adv-x="500" 
d="M260 -6c-13.333 0 -29.6719 0.334961 -49.0049 1.00195s-39.5 1.66699 -60.5 3s-40 2.83301 -57 4.5s-30.167 3.5 -39.5 5.5v48h219c22 0 41 1.66699 57 5s28.5 10.666 37.5 21.999s13.5 28.333 13.5 51v24c0 23.333 -7.66699 41.5 -23 54.5s-40 19.5 -74 19.5h-75
c-31.333 0 -59.166 4 -83.499 12s-43.166 21.667 -56.499 41s-20 46 -20 80v28c0 33.333 6.5 60.666 19.5 81.999s33.333 37.333 61 48s63.5 16 107.5 16c18.667 0 40.167 -0.666992 64.5 -2s48.166 -3.16602 71.499 -5.49902s42.333 -4.83301 57 -7.5v-48h-206
c-34 0 -60.167 -5.66699 -78.5 -17s-27.5 -33.333 -27.5 -66v-22c0 -20.667 4.33301 -36.167 13 -46.5s20.834 -17.166 36.501 -20.499s33.834 -5 54.501 -5h76c48.667 0 86.334 -11.333 113.001 -34s40 -55.334 40 -98.001v-37c0 -36 -8.16699 -63.833 -24.5 -83.5
s-38.666 -33.334 -66.999 -41.001s-61.5 -11.5 -99.5 -11.5zM169.994 -189.998l-0.000976562 33.0029l22 2c18.667 2 32.667 6.5 42 13.5s14 17.5 14 31.5c0 11.333 -4.16699 21.166 -12.5 29.499s-26.166 13.166 -53.499 14.499l33 12c28.667 0 49.834 -5.33301 63.501 -16
s20.5 -26.667 20.5 -48c0 -22.667 -8.33301 -40.334 -25 -53.001s-40.334 -19 -71.001 -19h-33zM181.993 -65.9951l52 79h37l-52 -79h-37z" />
    <glyph glyph-name="Scaron" unicode="&#x160;" horiz-adv-x="578" 
d="M286 -6c-14.667 0 -32.1689 0.501953 -52.502 1.50195s-41.166 2.33301 -62.499 4s-41.5 3.5 -60.5 5.5s-34.833 4.33301 -47.5 7v61c16.667 -1.33301 37 -2.66602 61 -3.99902s49.833 -2.33301 77.5 -3s54.834 -1 81.501 -1c30 0 57 3 81 9s43.167 17 57.5 33
s21.5 39 21.5 69v50c0 34 -8.66699 59.833 -26 77.5s-45.333 26.5 -84 26.5h-79c-60.667 0 -108.167 13.333 -142.5 40s-51.5 72.667 -51.5 138v42c0 69.333 18.667 118.666 56 147.999s90 44 158 44c21.333 0 45.333 -1.16699 72 -3.5s52.5 -5 77.5 -8
s45.833 -6.16699 62.5 -9.5v-61c-29.333 2.66699 -62.5 5 -99.5 7s-71.833 3 -104.5 3c-30 0 -56 -3.5 -78 -10.5s-38.833 -19.333 -50.5 -37s-17.5 -42.834 -17.5 -75.501v-34c0 -40.667 10.667 -68.667 32 -84s51 -23 89 -23h85c40.667 0 74 -7.33301 100 -22
s45.333 -34.834 58 -60.501s19 -55.167 19 -88.5v-57c0 -49.333 -10.5 -87.333 -31.5 -114s-49 -45 -84 -55s-74.167 -15 -117.5 -15zM253.998 791.002l-111 135h48l92 -97l100 97h48l-121 -135h-56z" />
    <glyph glyph-name="scaron" unicode="&#x161;" horiz-adv-x="500" 
d="M260 -6c-13.333 0 -29.6719 0.334961 -49.0049 1.00195s-39.5 1.66699 -60.5 3s-40 2.83301 -57 4.5s-30.167 3.5 -39.5 5.5v48h219c22 0 41 1.66699 57 5s28.5 10.666 37.5 21.999s13.5 28.333 13.5 51v24c0 23.333 -7.66699 41.5 -23 54.5s-40 19.5 -74 19.5h-75
c-31.333 0 -59.166 4 -83.499 12s-43.166 21.667 -56.499 41s-20 46 -20 80v28c0 33.333 6.5 60.666 19.5 81.999s33.333 37.333 61 48s63.5 16 107.5 16c18.667 0 40.167 -0.666992 64.5 -2s48.166 -3.16602 71.499 -5.49902s42.333 -4.83301 57 -7.5v-48h-206
c-34 0 -60.167 -5.66699 -78.5 -17s-27.5 -33.333 -27.5 -66v-22c0 -20.667 4.33301 -36.167 13 -46.5s20.834 -17.166 36.501 -20.499s33.834 -5 54.501 -5h76c48.667 0 86.334 -11.333 113.001 -34s40 -55.334 40 -98.001v-37c0 -36 -8.16699 -63.833 -24.5 -83.5
s-38.666 -33.334 -66.999 -41.001s-61.5 -11.5 -99.5 -11.5zM210.994 631.002l-111 135h48l92 -97l100 97h48l-121 -135h-56z" />
    <glyph glyph-name="uni0162" unicode="&#x162;" horiz-adv-x="566" 
d="M243 0v664h-227v72h534v-72h-227v-664h-80zM213 -190l-0.000976562 33.0029l22 2c18.667 2 32.667 6.5 42 13.5s14 17.5 14 31.5c0 11.333 -4.16699 21.166 -12.5 29.499s-26.166 13.166 -53.499 14.499l33 12c28.667 0 49.834 -5.33301 63.501 -16
s20.5 -26.667 20.5 -48c0 -22.667 -8.33301 -40.334 -25 -53.001s-40.334 -19 -71.001 -19h-33zM224.999 -65.9971l52 79h37l-52 -79h-37z" />
    <glyph glyph-name="uni0163" unicode="&#x163;" horiz-adv-x="367" 
d="M253 0c-34.667 0 -63.3311 5.66797 -85.998 17.001s-39.334 29.666 -50.001 54.999s-15.667 59 -15 101l3 296h-85v51l86 14l13 149h61v-149h154v-65h-154v-296c0 -23.333 2.5 -42 7.5 -56s11.667 -24.667 20 -32s17.166 -12.5 26.499 -15.5s18.333 -4.83301 27 -5.5
l65 -6v-58h-73zM123.003 -189.999l-0.000976562 33.0029l22 2c18.667 2 32.667 6.5 42 13.5s14 17.5 14 31.5c0 11.333 -4.16699 21.166 -12.5 29.499s-26.166 13.166 -53.499 14.499l33 12c28.667 0 49.834 -5.33301 63.501 -16s20.5 -26.667 20.5 -48
c0 -22.667 -8.33301 -40.334 -25 -53.001s-40.334 -19 -71.001 -19h-33zM135.002 -65.9961l52 79h37l-52 -79h-37z" />
    <glyph glyph-name="Tcaron" unicode="&#x164;" horiz-adv-x="566" 
d="M243 0v664h-227v72h534v-72h-227v-664h-80zM254 791l-111 135h48l92 -97l100 97h48l-121 -135h-56z" />
    <glyph glyph-name="tcaron" unicode="&#x165;" horiz-adv-x="367" 
d="M253 0c-34.667 0 -63.3311 5.66797 -85.998 17.001s-39.334 29.666 -50.001 54.999s-15.667 59 -15 101l3 296h-85v51l86 14l13 149h61v-149h154v-65h-154v-296c0 -23.333 2.5 -42 7.5 -56s11.667 -24.667 20 -32s17.166 -12.5 26.499 -15.5s18.333 -4.83301 27 -5.5
l65 -6v-58h-73zM253.003 582.001l-6 141v60h73v-60l-6 -141h-61z" />
    <glyph glyph-name="Tbar" unicode="&#x166;" horiz-adv-x="566" 
d="M65 365v46h436v-46h-436zM243 0v664h-227v72h534v-72h-227v-664h-80z" />
    <glyph glyph-name="tbar" unicode="&#x167;" horiz-adv-x="367" 
d="M20 295v34h300v-34h-300zM253 0c-34.667 0 -63.3311 5.66797 -85.998 17.001s-39.334 29.666 -50.001 54.999s-15.667 59 -15 101l3 296h-85v51l86 14l13 149h61v-149h154v-65h-154v-296c0 -23.333 2.5 -42 7.5 -56s11.667 -24.667 20 -32s17.166 -12.5 26.499 -15.5
s18.333 -4.83301 27 -5.5l65 -6v-58h-73z" />
    <glyph glyph-name="Utilde" unicode="&#x168;" horiz-adv-x="676" 
d="M338 -6c-41.333 0 -78.666 3.66699 -111.999 11s-61.833 19.833 -85.5 37.5s-41.834 41.667 -54.501 72s-19 68.166 -19 113.499v508h80v-508c0 -42 7.5 -74.667 22.5 -98s36.833 -39.833 65.5 -49.5s63 -14.5 103 -14.5s74.333 4.83301 103 14.5s50.5 26.167 65.5 49.5
s22.5 56 22.5 98v508h80v-508c0 -45.333 -6.33301 -83.166 -19 -113.499s-30.834 -54.333 -54.501 -72s-52.167 -30.167 -85.5 -37.5s-70.666 -11 -111.999 -11zM162 807c0.666992 26.667 5.66797 47.666 15.001 62.999s21.333 26.5 36 33.5s29.667 10.5 45 10.5
c16 0 30.667 -3.16699 44 -9.5s26.166 -13.5 38.499 -21.5s24.333 -15 36 -21s23.834 -9 36.501 -9c17.333 0 31.666 5.33301 42.999 16s17.333 26.334 18 47.001h40c-0.666992 -34 -9.33398 -60.667 -26.001 -80s-40 -29 -70 -29c-15.333 0 -29.666 3.16699 -42.999 9.5
s-26.333 13.5 -39 21.5s-25 15.167 -37 21.5s-24.333 9.5 -37 9.5c-16 0 -29.833 -5 -41.5 -15s-17.5 -25.667 -17.5 -47h-41z" />
    <glyph glyph-name="utilde" unicode="&#x169;" horiz-adv-x="588" 
d="M235 -6c-51.333 0 -90.834 13.334 -118.501 40.001s-41.5 68 -41.5 124v376h79v-356c0 -44.667 10.167 -74.834 30.5 -90.501s48.833 -23.5 85.5 -23.5c31.333 0 60 4.5 86 13.5s52.667 21.5 80 37.5v419h79v-534h-62l-17 59
c-27.333 -17.333 -58.166 -32.5 -92.499 -45.5s-70.5 -19.5 -108.5 -19.5zM120.999 647.001c0.666992 26.667 5.66797 47.666 15.001 62.999s21.333 26.5 36 33.5s29.667 10.5 45 10.5c16 0 30.667 -3.16699 44 -9.5s26.166 -13.5 38.499 -21.5s24.333 -15 36 -21
s23.834 -9 36.501 -9c17.333 0 31.666 5.33301 42.999 16s17.333 26.334 18 47.001h40c-0.666992 -34 -9.33398 -60.667 -26.001 -80s-40 -29 -70 -29c-15.333 0 -29.666 3.16699 -42.999 9.5s-26.333 13.5 -39 21.5s-25 15.167 -37 21.5s-24.333 9.5 -37 9.5
c-16 0 -29.833 -5 -41.5 -15s-17.5 -25.667 -17.5 -47h-41z" />
    <glyph glyph-name="Umacron" unicode="&#x16a;" horiz-adv-x="676" 
d="M338 -6c-41.333 0 -78.666 3.66699 -111.999 11s-61.833 19.833 -85.5 37.5s-41.834 41.667 -54.501 72s-19 68.166 -19 113.499v508h80v-508c0 -42 7.5 -74.667 22.5 -98s36.833 -39.833 65.5 -49.5s63 -14.5 103 -14.5s74.333 4.83301 103 14.5s50.5 26.167 65.5 49.5
s22.5 56 22.5 98v508h80v-508c0 -45.333 -6.33301 -83.166 -19 -113.499s-30.834 -54.333 -54.501 -72s-52.167 -30.167 -85.5 -37.5s-70.666 -11 -111.999 -11zM195 831v48h265v-48h-265z" />
    <glyph glyph-name="umacron" unicode="&#x16b;" horiz-adv-x="588" 
d="M235 -6c-51.333 0 -90.834 13.334 -118.501 40.001s-41.5 68 -41.5 124v376h79v-356c0 -44.667 10.167 -74.834 30.5 -90.501s48.833 -23.5 85.5 -23.5c31.333 0 60 4.5 86 13.5s52.667 21.5 80 37.5v419h79v-534h-62l-17 59
c-27.333 -17.333 -58.166 -32.5 -92.499 -45.5s-70.5 -19.5 -108.5 -19.5zM150.999 671.001v48h265v-48h-265z" />
    <glyph glyph-name="Ubreve" unicode="&#x16c;" horiz-adv-x="676" 
d="M338 -6c-41.333 0 -78.666 3.66699 -111.999 11s-61.833 19.833 -85.5 37.5s-41.834 41.667 -54.501 72s-19 68.166 -19 113.499v508h80v-508c0 -42 7.5 -74.667 22.5 -98s36.833 -39.833 65.5 -49.5s63 -14.5 103 -14.5s74.333 4.83301 103 14.5s50.5 26.167 65.5 49.5
s22.5 56 22.5 98v508h80v-508c0 -45.333 -6.33301 -83.166 -19 -113.499s-30.834 -54.333 -54.501 -72s-52.167 -30.167 -85.5 -37.5s-70.666 -11 -111.999 -11zM327 789c-24 0 -45.832 4.5 -65.499 13.5s-35.5 23.833 -47.5 44.5s-18 48.334 -18 83.001h39
c0 -38 9.16699 -64.833 27.5 -80.5s39.833 -23.167 64.5 -22.5c27.333 0 49.666 7.5 66.999 22.5s26 41.833 26 80.5h39c0 -35.333 -6 -63.333 -18 -84s-28 -35.334 -48 -44.001s-42 -13 -66 -13z" />
    <glyph glyph-name="ubreve" unicode="&#x16d;" horiz-adv-x="588" 
d="M235 -6c-51.333 0 -90.834 13.334 -118.501 40.001s-41.5 68 -41.5 124v376h79v-356c0 -44.667 10.167 -74.834 30.5 -90.501s48.833 -23.5 85.5 -23.5c31.333 0 60 4.5 86 13.5s52.667 21.5 80 37.5v419h79v-534h-62l-17 59
c-27.333 -17.333 -58.166 -32.5 -92.499 -45.5s-70.5 -19.5 -108.5 -19.5zM278.999 629.001c-24 0 -45.832 4.5 -65.499 13.5s-35.5 23.833 -47.5 44.5s-18 48.334 -18 83.001h39c0 -38 9.16699 -64.833 27.5 -80.5s39.833 -23.167 64.5 -22.5
c27.333 0 49.666 7.5 66.999 22.5s26 41.833 26 80.5h39c0 -35.333 -6 -63.333 -18 -84s-28 -35.334 -48 -44.001s-42 -13 -66 -13z" />
    <glyph glyph-name="Uring" unicode="&#x16e;" horiz-adv-x="676" 
d="M338 -6c-41.333 0 -78.666 3.66699 -111.999 11s-61.833 19.833 -85.5 37.5s-41.834 41.667 -54.501 72s-19 68.166 -19 113.499v508h80v-508c0 -42 7.5 -74.667 22.5 -98s36.833 -39.833 65.5 -49.5s63 -14.5 103 -14.5s74.333 4.83301 103 14.5s50.5 26.167 65.5 49.5
s22.5 56 22.5 98v508h80v-508c0 -45.333 -6.33301 -83.166 -19 -113.499s-30.834 -54.333 -54.501 -72s-52.167 -30.167 -85.5 -37.5s-70.666 -11 -111.999 -11zM335 763c-36 0 -63.667 7.83301 -83 23.5s-29 43.5 -29 83.5c0 40.667 9.66699 68.834 29 84.501
s47 23.5 83 23.5c36.667 0 64.167 -7.83301 82.5 -23.5s27.5 -43.834 27.5 -84.501c0 -40 -9.16699 -67.833 -27.5 -83.5s-45.833 -23.5 -82.5 -23.5zM335 797c24.667 0 42.5 5 53.5 15s16.5 29.333 16.5 58c0 29.333 -5.5 49.166 -16.5 59.499s-28.833 15.5 -53.5 15.5
c-24 0 -42.167 -5.16699 -54.5 -15.5s-18.5 -30.166 -18.5 -59.499c0 -28.667 6.16699 -48 18.5 -58s30.5 -15 54.5 -15z" />
    <glyph glyph-name="uring" unicode="&#x16f;" horiz-adv-x="588" 
d="M235 -6c-51.333 0 -90.834 13.334 -118.501 40.001s-41.5 68 -41.5 124v376h79v-356c0 -44.667 10.167 -74.834 30.5 -90.501s48.833 -23.5 85.5 -23.5c31.333 0 60 4.5 86 13.5s52.667 21.5 80 37.5v419h79v-534h-62l-17 59
c-27.333 -17.333 -58.166 -32.5 -92.499 -45.5s-70.5 -19.5 -108.5 -19.5zM286.999 593.001c-36 0 -63.667 7.83301 -83 23.5s-29 43.5 -29 83.5c0 40.667 9.66699 68.834 29 84.501s47 23.5 83 23.5c36.667 0 64.167 -7.83301 82.5 -23.5s27.5 -43.834 27.5 -84.501
c0 -40 -9.16699 -67.833 -27.5 -83.5s-45.833 -23.5 -82.5 -23.5zM286.999 627.001c24.667 0 42.5 5 53.5 15s16.5 29.333 16.5 58c0 29.333 -5.5 49.166 -16.5 59.499s-28.833 15.5 -53.5 15.5c-24 0 -42.167 -5.16699 -54.5 -15.5s-18.5 -30.166 -18.5 -59.499
c0 -28.667 6.16699 -48 18.5 -58s30.5 -15 54.5 -15z" />
    <glyph glyph-name="Uhungarumlaut" unicode="&#x170;" horiz-adv-x="676" 
d="M338 -6c-41.333 0 -78.666 3.66699 -111.999 11s-61.833 19.833 -85.5 37.5s-41.834 41.667 -54.501 72s-19 68.166 -19 113.499v508h80v-508c0 -42 7.5 -74.667 22.5 -98s36.833 -39.833 65.5 -49.5s63 -14.5 103 -14.5s74.333 4.83301 103 14.5s50.5 26.167 65.5 49.5
s22.5 56 22.5 98v508h80v-508c0 -45.333 -6.33301 -83.166 -19 -113.499s-30.834 -54.333 -54.501 -72s-52.167 -30.167 -85.5 -37.5s-70.666 -11 -111.999 -11zM365 791l100 136h65l-119 -136h-46zM215 791l100 136h65l-119 -136h-46z" />
    <glyph glyph-name="uhungarumlaut" unicode="&#x171;" horiz-adv-x="588" 
d="M235 -6c-51.333 0 -90.834 13.334 -118.501 40.001s-41.5 68 -41.5 124v376h79v-356c0 -44.667 10.167 -74.834 30.5 -90.501s48.833 -23.5 85.5 -23.5c31.333 0 60 4.5 86 13.5s52.667 21.5 80 37.5v419h79v-534h-62l-17 59
c-27.333 -17.333 -58.166 -32.5 -92.499 -45.5s-70.5 -19.5 -108.5 -19.5zM316.999 631.001l100 136h65l-119 -136h-46zM166.999 631.001l100 136h65l-119 -136h-46z" />
    <glyph glyph-name="Uogonek" unicode="&#x172;" horiz-adv-x="676" 
d="M338 -6c-41.333 0 -78.666 3.66699 -111.999 11s-61.833 19.833 -85.5 37.5s-41.834 41.667 -54.501 72s-19 68.166 -19 113.499v508h80v-508c0 -42 7.5 -74.667 22.5 -98s36.833 -39.833 65.5 -49.5s63 -14.5 103 -14.5s74.333 4.83301 103 14.5s50.5 26.167 65.5 49.5
s22.5 56 22.5 98v508h80v-508c0 -45.333 -6.33301 -83.166 -19 -113.499s-30.834 -54.333 -54.501 -72s-52.167 -30.167 -85.5 -37.5s-70.666 -11 -111.999 -11zM422 -187c-22 0 -41 3.99902 -57 11.999s-28 18.667 -36 32s-12 28.333 -12 45
c0 19.333 6.16699 37.5 18.5 54.5s31.166 31.5 56.499 43.5h30c-20.667 -11.333 -36.334 -23.833 -47.001 -37.5s-16 -28.167 -16 -43.5c0 -20 7.16699 -35.833 21.5 -47.5s34.833 -17.5 61.5 -17.5h6v-38c-3.33301 -1.33301 -7.16602 -2.16602 -11.499 -2.49902
s-9.16602 -0.5 -14.499 -0.5z" />
    <glyph glyph-name="uogonek" unicode="&#x173;" horiz-adv-x="588" 
d="M235 -6c-51.333 0 -90.834 13.334 -118.501 40.001s-41.5 68 -41.5 124v376h79v-356c0 -44.667 10.167 -74.834 30.5 -90.501s48.833 -23.5 85.5 -23.5c31.333 0 60 4.5 86 13.5s52.667 21.5 80 37.5v419h79v-534h-62l-17 59
c-27.333 -17.333 -58.166 -32.5 -92.499 -45.5s-70.5 -19.5 -108.5 -19.5zM513.999 -186.999c-22 0 -41 3.99902 -57 11.999s-28 18.667 -36 32s-12 28.333 -12 45c0 19.333 6.16699 37.5 18.5 54.5s31.166 31.5 56.499 43.5h30
c-20.667 -11.333 -36.334 -23.833 -47.001 -37.5s-16 -28.167 -16 -43.5c0 -20 7.16699 -35.833 21.5 -47.5s34.833 -17.5 61.5 -17.5h6v-38c-3.33301 -1.33301 -7.16602 -2.16602 -11.499 -2.49902s-9.16602 -0.5 -14.499 -0.5z" />
    <glyph glyph-name="Wcircumflex" unicode="&#x174;" horiz-adv-x="991" 
d="M223 0l-189 736h82l158 -627l182 627h80l181 -627l158 627h82l-189 -736h-86l-186 625l-187 -625h-86zM359 791l122 135h56l110 -135h-48l-92 97l-99 -97h-49z" />
    <glyph glyph-name="wcircumflex" unicode="&#x175;" horiz-adv-x="797" 
d="M181 0l-162 534h81l131 -460l135 460h69l135 -460l127 460h81l-161 -534h-87l-131 428l-132 -428h-86zM256 631l122 135h56l110 -135h-48l-92 97l-99 -97h-49z" />
    <glyph glyph-name="Ycircumflex" unicode="&#x176;" horiz-adv-x="618" 
d="M269 0v244l-234 492h83l192 -412l192 412h80l-233 -492v-244h-80zM163 791l122 135h56l110 -135h-48l-92 97l-99 -97h-49z" />
    <glyph glyph-name="ycircumflex" unicode="&#x177;" horiz-adv-x="541" 
d="M219 -237l68.002 237c-16.667 0.666992 -34 4.66699 -52 12s-34.667 20 -50 38s-28 43 -38 75l-128 409h83l119 -392c7.33301 -20.667 15.166 -36 23.499 -46s16.833 -17 25.5 -21s16.167 -6.16699 22.5 -6.5s10.166 -0.5 11.499 -0.5l137 466h81l-195 -672l-46 -99h-62z
M120.002 631l122 135h56l110 -135h-48l-92 97l-99 -97h-49z" />
    <glyph glyph-name="Ydieresis" unicode="&#x178;" horiz-adv-x="618" 
d="M269 0v244l-234 492h83l192 -412l192 412h80l-233 -492v-244h-80zM402 813c-10.667 0 -16.001 5.33301 -16.001 16v78c0 10.667 5.33301 16 16 16h37c4.66699 0 8.33398 -1.5 11.001 -4.5s4 -6.83301 4 -11.5v-78c0 -10.667 -5 -16 -15 -16h-37zM165.999 813
c-10.667 0 -16 5.33301 -16 16v78c0 10.667 5.33301 16 16 16h37c5.33301 0 9.33301 -1.5 12 -4.5s4 -6.83301 4 -11.5v-78c0 -10.667 -5.33301 -16 -16 -16h-37z" />
    <glyph glyph-name="Zacute" unicode="&#x179;" horiz-adv-x="560" 
d="M43 0v65l383 599h-383v72h479v-65l-383 -600h383v-71h-479zM259 791l104 136h67l-125 -136h-46z" />
    <glyph glyph-name="zacute" unicode="&#x17a;" horiz-adv-x="494" 
d="M51 0v60l308 409h-316v65h408v-60l-309 -409h309v-65h-400zM205 631l104 136h67l-125 -136h-46z" />
    <glyph glyph-name="Zdotaccent" unicode="&#x17b;" horiz-adv-x="560" 
d="M43 0v65l383 599h-383v72h479v-65l-383 -600h383v-71h-479zM258 820c-10.667 0 -16.001 5.33301 -16.001 16v78c0 10.667 5.33301 16 16 16h37c4.66699 0 8.33398 -1.5 11.001 -4.5s4 -6.83301 4 -11.5v-78c0 -10.667 -5 -16 -15 -16h-37z" />
    <glyph glyph-name="zdotaccent" unicode="&#x17c;" horiz-adv-x="494" 
d="M51 0v60l308 409h-316v65h408v-60l-309 -409h309v-65h-400zM218 660c-10.667 0 -16.001 5.33301 -16.001 16v78c0 10.667 5.33301 16 16 16h37c4.66699 0 8.33398 -1.5 11.001 -4.5s4 -6.83301 4 -11.5v-78c0 -10.667 -5 -16 -15 -16h-37z" />
    <glyph glyph-name="Zcaron" unicode="&#x17d;" horiz-adv-x="560" 
d="M43 0v65l383 599h-383v72h479v-65l-383 -600h383v-71h-479zM249 791l-111 135h48l92 -97l100 97h48l-121 -135h-56z" />
    <glyph glyph-name="zcaron" unicode="&#x17e;" horiz-adv-x="494" 
d="M51 0v60l308 409h-316v65h408v-60l-309 -409h309v-65h-400zM208 631l-111 135h48l92 -97l100 97h48l-121 -135h-56z" />
    <glyph glyph-name="uni018F" unicode="&#x18f;" horiz-adv-x="611" 
d="M301 -6c-54 0 -98.832 11 -134.499 33s-62.167 57.833 -79.5 107.5s-26 115.834 -26 198.501v57h410c0 57.333 -3.83301 104.333 -11.5 141s-20 65.167 -37 85.5s-39.833 34.333 -68.5 42s-64.334 11.5 -107.001 11.5c-40 0 -72.5 -1.5 -97.5 -4.5
s-45.167 -5.5 -60.5 -7.5v60c21.333 6 47 11.5 77 16.5s65 7.5 105 7.5c47.333 0 88.5 -4.83301 123.5 -14.5s64.167 -27.5 87.5 -53.5s40.833 -63 52.5 -111s17.5 -110.667 17.5 -188c0 -76.667 -5.83301 -139.834 -17.5 -189.501s-28.667 -88.5 -51 -116.5
s-48.833 -47.5 -79.5 -58.5s-65 -16.5 -103 -16.5zM300.001 65c26 0 49.3311 3.83301 69.998 11.5s38.334 21 53.001 40s26 45.5 34 79.5s12.333 77 13 129h-330c0.666992 -63.333 5.83398 -114 15.501 -152s26.167 -65.5 49.5 -82.5s55 -25.5 95 -25.5z" />
    <glyph glyph-name="florin" unicode="&#x192;" horiz-adv-x="609" 
d="M112 -204c-18 0 -35.3301 1.33301 -51.9971 4s-29.667 5.33398 -39 8.00098l9 50h64c23.333 0 43.166 6.5 59.499 19.5s30.166 35 41.499 66s21 73.5 29 127.5l54 331h-94l8 59h93l22 120c8 50 18.667 91.167 32 123.5s31.166 56.166 53.499 71.499s51.833 23 88.5 23
c26.667 0 47.667 -1.66699 63 -5s26.333 -6 33 -8l-8 -49h-65c-25.333 0 -45.666 -5.66699 -60.999 -17s-27.5 -29.5 -36.5 -54.5s-16.833 -58.167 -23.5 -99.5l-18 -106h128l-9 -58h-127l-51 -314c-10.667 -68.667 -23.834 -124.5 -39.501 -167.5s-35.667 -74.5 -60 -94.5
s-55.833 -30 -94.5 -30z" />
    <glyph glyph-name="Ohorn" unicode="&#x1a0;" horiz-adv-x="686" 
d="M378 691l0.000976562 45h126c23.333 0 42.333 8.16699 57 24.5s22 45.833 22 88.5h57c0 -38.667 -5.66699 -69.667 -17 -93s-26.333 -40 -45 -50s-39.334 -15 -62.001 -15h-138zM343.001 -6c-47.333 0 -88.8311 4.5 -124.498 13.5s-65.334 26.167 -89.001 51.5
s-41.334 62.666 -53.001 111.999s-17.5 114 -17.5 194s6 144.833 18 194.5s30 87.667 54 114s53.667 44.333 89 54s76.333 14.5 123 14.5c48 0 89.833 -4.83301 125.5 -14.5s65.334 -27.667 89.001 -54s41.167 -64.333 52.5 -114s17 -114.5 17 -194.5
s-5.83301 -144.667 -17.5 -194s-29.334 -86.666 -53.001 -111.999s-53.167 -42.5 -88.5 -51.5s-77 -13.5 -125 -13.5zM343.003 65c37.333 0 69.002 3.66699 95.002 11s47.167 21.5 63.5 42.5s28.166 51.167 35.499 90.5s11 91.333 11 156
c0 67.333 -3.83301 121.333 -11.5 162s-19.667 71.334 -36 92.001s-37.333 34.334 -63 41.001s-57.167 10 -94.5 10c-34.667 0 -64.834 -3.33301 -90.501 -10s-47 -20.334 -64 -41.001s-29.667 -51.334 -38 -92.001s-12.5 -94.667 -12.5 -162
c0 -64.667 3.5 -116.667 10.5 -156s18.5 -69.5 34.5 -90.5s37.167 -35.167 63.5 -42.5s58.5 -11 96.5 -11z" />
    <glyph glyph-name="ohorn" unicode="&#x1a1;" horiz-adv-x="577" 
d="M288 -6c-38.667 0 -72.5 4 -101.5 12s-53.167 22 -72.5 42s-33.666 47.833 -42.999 83.5s-14 81.167 -14 136.5c0 56 4.66699 101.833 14 137.5s23.666 63.334 42.999 83.001s43.5 33.334 72.5 41.001s62.833 11.5 101.5 11.5s72.5 -4 101.5 -12
s53.167 -21.833 72.5 -41.5s33.833 -47.334 43.5 -83.001s14.5 -81.167 14.5 -136.5c0 -56 -4.83301 -101.833 -14.5 -137.5s-24 -63.334 -43 -83.001s-43.167 -33.5 -72.5 -41.5s-63.333 -12 -102 -12zM288 59c24.667 0 46.5 2.33301 65.5 7s34.833 14 47.5 28
s22.334 35 29.001 63s10 65 10 111c0 46.667 -3.33301 83.667 -10 111s-16.334 48 -29.001 62s-28.5 23.333 -47.5 28s-40.833 7 -65.5 7c-25.333 0 -47.333 -2.33301 -66 -7s-34.334 -14 -47.001 -28s-22.334 -34.667 -29.001 -62s-10 -64.333 -10 -111
c0 -46 3.33301 -83 10 -111s16.334 -49 29.001 -63s28.334 -23.333 47.001 -28s40.667 -7 66 -7zM322 489l0.00195312 45h93c23.333 0 42.333 8.16699 57 24.5s22 45.833 22 88.5h58c0 -38.667 -5.83301 -69.667 -17.5 -93s-26.834 -40 -45.501 -50s-39.334 -15 -62.001 -15
h-105z" />
    <glyph glyph-name="Uhorn" unicode="&#x1af;" horiz-adv-x="676" 
d="M538 691l0.000976562 45h31c23.333 0 42.333 8.16699 57 24.5s22 45.833 22 88.5h57c0 -38.667 -5.66699 -69.667 -17 -93s-26.333 -40 -45 -50s-39.334 -15 -62.001 -15h-43zM338.001 -6c-41.333 0 -78.666 3.66699 -111.999 11s-61.833 19.833 -85.5 37.5
s-41.834 41.667 -54.501 72s-19 68.166 -19 113.499v508h80v-508c0 -42 7.5 -74.667 22.5 -98s36.833 -39.833 65.5 -49.5s63 -14.5 103 -14.5s74.333 4.83301 103 14.5s50.5 26.167 65.5 49.5s22.5 56 22.5 98v508h80v-508c0 -45.333 -6.33301 -83.166 -19 -113.499
s-30.834 -54.333 -54.501 -72s-52.167 -30.167 -85.5 -37.5s-70.666 -11 -111.999 -11z" />
    <glyph glyph-name="uhorn" unicode="&#x1b0;" horiz-adv-x="588" 
d="M451 489l0.00195312 45h22c23.333 0 42.333 8.16699 57 24.5s22 45.833 22 88.5h58c0 -38.667 -5.83301 -69.667 -17.5 -93s-26.834 -40 -45.501 -50s-39.334 -15 -62.001 -15h-34zM235.002 -6c-51.333 0 -90.834 13.334 -118.501 40.001s-41.5 68 -41.5 124v376h79v-356
c0 -44.667 10.167 -74.834 30.5 -90.501s48.833 -23.5 85.5 -23.5c31.333 0 60 4.5 86 13.5s52.667 21.5 80 37.5v419h79v-534h-62l-17 59c-27.333 -17.333 -58.166 -32.5 -92.499 -45.5s-70.5 -19.5 -108.5 -19.5z" />
    <glyph glyph-name="Gcaron" unicode="&#x1e6;" horiz-adv-x="653" 
d="M295 -5c-46.667 -0.666992 -85.333 6.50488 -116 21.5049s-54.667 37.833 -72 68.5s-29.666 69.667 -36.999 117s-11 103.333 -11 168c0 62 3.83301 116.333 11.5 163s20.834 85.5 39.501 116.5s44.167 54.167 76.5 69.5s72.833 23 121.5 23c26 0 53 -1 81 -3
s55.333 -5 82 -9s51.334 -8.66699 74.001 -14v-60c-13.333 2 -32 4.16699 -56 6.5s-50.833 4.16602 -80.5 5.49902s-59.167 2 -88.5 2c-48 0 -85.167 -9.83301 -111.5 -29.5s-44.666 -51.667 -54.999 -96s-15.5 -102.833 -15.5 -175.5
c0 -58.667 2.83301 -107.334 8.5 -146.001s15.167 -69.334 28.5 -92.001s31.5 -38.834 54.5 -48.501s52.167 -14.5 87.5 -14.5c31.333 0 63.666 4 96.999 12s61.666 16.667 84.999 26v217h-178v59c12.667 2 28 3.66699 46 5s37.167 2.5 57.5 3.5s40.833 1.5 61.5 1.5
c17.333 0 33.666 -0.166992 48.999 -0.5s28.666 -1.5 39.999 -3.5v-388h-58l-12 52c-24 -12 -54.5 -24.333 -91.5 -37s-76.5 -19.334 -118.5 -20.001zM299.001 791.005l-111 135h48l92 -97l100 97h48l-121 -135h-56z" />
    <glyph glyph-name="gcaron" unicode="&#x1e7;" horiz-adv-x="576" 
d="M207 -245c-34.667 0 -65.1699 4.83789 -91.5029 14.5049s-47 24.334 -62 44.001s-22.5 44.167 -22.5 73.5v24c0 30.667 8.5 56.334 25.5 77.001s38.5 36.167 64.5 46.5s52.667 15.5 80 15.5l20 -32c-20 0 -38.667 -3.16699 -56 -9.5s-31.5 -16.5 -42.5 -30.5
s-16.5 -32 -16.5 -54v-22c0 -32 10.667 -54.833 32 -68.5s50.333 -20.5 87 -20.5h124c40 0 71.5 7.66699 94.5 23s34.5 39.333 34.5 72v20c0 18.667 -3.66699 34.667 -11 48s-19.5 23.666 -36.5 30.999s-40.833 11 -71.5 11h-161c-41.333 0 -73.5 8.83301 -96.5 26.5
s-34.5 40.5 -34.5 68.5c0 26.667 7.83301 47.667 23.5 63s37.834 26 66.501 32c-24.667 10 -44 23.5 -58 40.5s-23.667 35.333 -29 55s-8 39.5 -8 59.5c0 41.333 8.33301 74.666 25 99.999s40.5 43.666 71.5 54.999s67.5 17 109.5 17h285v-45l-120 -10
c8.66699 -6 18.334 -13.833 29.001 -23.5s19.834 -23.334 27.501 -41.001s11.5 -41.834 11.5 -72.501c0 -27.333 -5.83301 -53.333 -17.5 -78s-31.167 -44.834 -58.5 -60.501s-65 -23.5 -113 -23.5h-85c-28 0 -50.167 -4.16699 -66.5 -12.5s-24.5 -23.166 -24.5 -44.499
c0 -16 6 -27.333 18 -34s24.667 -10 38 -10h177c41.333 0 75.5 -5.33301 102.5 -16s47.333 -26.834 61 -48.501s20.5 -49.167 20.5 -82.5v-22c0 -48.667 -16.5 -86.834 -49.5 -114.501s-82.167 -41.5 -147.5 -41.5h-149zM243.997 242.005l59.999 -0.00195312
c34 0 59.833 5.16699 77.5 15.5s29.834 23.833 36.501 40.5s10 34.667 10 54c0 30 -4.83301 53.833 -14.5 71.5s-23.167 30.334 -40.5 38.001s-37.333 11.5 -60 11.5h-57c-38 0 -67.833 -8.5 -89.5 -25.5s-32.5 -46.5 -32.5 -88.5c0 -41.333 9.83301 -71.166 29.5 -89.499
s46.5 -27.5 80.5 -27.5zM259.996 631.003l-111 135h48l92 -97l100 97h48l-121 -135h-56z" />
    <glyph glyph-name="uni01EA" unicode="&#x1ea;" horiz-adv-x="686" 
d="M343 -6c-47.333 0 -88.8311 4.5 -124.498 13.5s-65.334 26.167 -89.001 51.5s-41.334 62.666 -53.001 111.999s-17.5 114 -17.5 194s6 144.833 18 194.5s30 87.667 54 114s53.667 44.333 89 54s76.333 14.5 123 14.5c48 0 89.833 -4.83301 125.5 -14.5
s65.334 -27.667 89.001 -54s41.167 -64.333 52.5 -114s17 -114.5 17 -194.5s-5.83301 -144.667 -17.5 -194s-29.334 -86.666 -53.001 -111.999s-53.167 -42.5 -88.5 -51.5s-77 -13.5 -125 -13.5zM343.002 65c37.333 0 69.002 3.66699 95.002 11s47.167 21.5 63.5 42.5
s28.166 51.167 35.499 90.5s11 91.333 11 156c0 67.333 -3.83301 121.333 -11.5 162s-19.667 71.334 -36 92.001s-37.333 34.334 -63 41.001s-57.167 10 -94.5 10c-34.667 0 -64.834 -3.33301 -90.501 -10s-47 -20.334 -64 -41.001s-29.667 -51.334 -38 -92.001
s-12.5 -94.667 -12.5 -162c0 -64.667 3.5 -116.667 10.5 -156s18.5 -69.5 34.5 -90.5s37.167 -35.167 63.5 -42.5s58.5 -11 96.5 -11zM415.004 -187c-22 0 -41 3.99902 -57 11.999s-28 18.667 -36 32s-12 28.333 -12 45c0 19.333 6.16699 37.5 18.5 54.5
s31.166 31.5 56.499 43.5h30c-20.667 -11.333 -36.334 -23.833 -47.001 -37.5s-16 -28.167 -16 -43.5c0 -20 7.16699 -35.833 21.5 -47.5s34.833 -17.5 61.5 -17.5h6v-38c-3.33301 -1.33301 -7.16602 -2.16602 -11.499 -2.49902s-9.16602 -0.5 -14.499 -0.5z" />
    <glyph glyph-name="uni01EB" unicode="&#x1eb;" horiz-adv-x="577" 
d="M288 -6c-38.667 0 -72.5 4 -101.5 12s-53.167 22 -72.5 42s-33.666 47.833 -42.999 83.5s-14 81.167 -14 136.5c0 56 4.66699 101.833 14 137.5s23.666 63.334 42.999 83.001s43.5 33.334 72.5 41.001s62.833 11.5 101.5 11.5s72.5 -4 101.5 -12
s53.167 -21.833 72.5 -41.5s33.833 -47.334 43.5 -83.001s14.5 -81.167 14.5 -136.5c0 -56 -4.83301 -101.833 -14.5 -137.5s-24 -63.334 -43 -83.001s-43.167 -33.5 -72.5 -41.5s-63.333 -12 -102 -12zM288 59c24.667 0 46.5 2.33301 65.5 7s34.833 14 47.5 28
s22.334 35 29.001 63s10 65 10 111c0 46.667 -3.33301 83.667 -10 111s-16.334 48 -29.001 62s-28.5 23.333 -47.5 28s-40.833 7 -65.5 7c-25.333 0 -47.333 -2.33301 -66 -7s-34.334 -14 -47.001 -28s-22.334 -34.667 -29.001 -62s-10 -64.333 -10 -111
c0 -46 3.33301 -83 10 -111s16.334 -49 29.001 -63s28.334 -23.333 47.001 -28s40.667 -7 66 -7zM340 -187c-22 0 -41 3.99902 -57 11.999s-28 18.667 -36 32s-12 28.333 -12 45c0 19.333 6.16699 37.5 18.5 54.5s31.166 31.5 56.499 43.5h30
c-20.667 -11.333 -36.334 -23.833 -47.001 -37.5s-16 -28.167 -16 -43.5c0 -20 7.16699 -35.833 21.5 -47.5s34.833 -17.5 61.5 -17.5h6v-38c-3.33301 -1.33301 -7.16602 -2.16602 -11.499 -2.49902s-9.16602 -0.5 -14.499 -0.5z" />
    <glyph glyph-name="Aringacute" unicode="&#x1fa;" horiz-adv-x="674" 
d="M34 0l252 736h102l252 -736h-82l-74 210h-296l-72 -210h-82zM208 282h256l-127 384zM338 763c-36 0 -63.667 7.83301 -83 23.5s-29 43.5 -29 83.5c0 40.667 9.66699 68.834 29 84.501s47 23.5 83 23.5c36.667 0 64.167 -7.83301 82.5 -23.5s27.5 -43.834 27.5 -84.501
c0 -40 -9.16699 -67.833 -27.5 -83.5s-45.833 -23.5 -82.5 -23.5zM338 797c24.667 0 42.5 5 53.5 15s16.5 29.333 16.5 58c0 29.333 -5.5 49.166 -16.5 59.499s-28.833 15.5 -53.5 15.5c-24 0 -42.167 -5.16699 -54.5 -15.5s-18.5 -30.166 -18.5 -59.499
c0 -28.667 6.16699 -48 18.5 -58s30.5 -15 54.5 -15zM318 965l104 136h67l-125 -136h-46z" />
    </font>
</defs>
</svg>
